<?xml version="1.0" encoding="UTF-8"?>
<svg id="Pc" xmlns="http://www.w3.org/2000/svg" xmlns:xlink="http://www.w3.org/1999/xlink" version="1.1" viewBox="0 0 1728 1117">
  <!-- Generator: Adobe Illustrator 29.0.1, SVG Export Plug-In . SVG Version: 2.1.0 Build 192)  -->
  <defs>
    <style>
      .st0 {
        fill: none;
      }

      .st1 {
        fill: #ccc;
      }

      .st2 {
        fill: #fff;
      }

      .st3 {
        fill: url(#New_Pattern_3);
        opacity: .15;
      }
    </style>
    <pattern id="New_Pattern_3" data-name="New Pattern 3" x="0" y="0" width="431.67" height="572" patternTransform="translate(334 -304)" patternUnits="userSpaceOnUse" viewBox="0 0 431.67 572">
      <g>
        <rect class="st0" width="431.67" height="572"/>
        <path class="st1" d="M309.8,122.46c-40.4,40.4-40.4-27.48,0,12.92-40.4-40.4,27.48-40.4-12.92,0,40.4-40.4,40.4,27.48,0-12.92,40.4,40.4-27.48,40.4,12.92,0Z"/>
        <path class="st1" d="M170.05,122.46c-40.4,40.4-40.4-27.48,0,12.92-40.4-40.4,27.48-40.4-12.92,0,40.4-40.4,40.4,27.48,0-12.92,40.4,40.4-27.48,40.4,12.92,0Z"/>
        <path class="st1" d="M30.3,122.46c-40.4,40.4-40.4-27.48,0,12.92-40.4-40.4,27.48-40.4-12.92,0,40.4-40.4,40.4,27.48,0-12.92,40.4,40.4-27.48,40.4,12.92,0Z"/>
        <path class="st1" d="M309.8,262.21c-40.4,40.4-40.4-27.48,0,12.92-40.4-40.4,27.48-40.4-12.92,0,40.4-40.4,40.4,27.48,0-12.92,40.4,40.4-27.48,40.4,12.92,0Z"/>
        <path class="st1" d="M170.05,262.21c-40.4,40.4-40.4-27.48,0,12.92-40.4-40.4,27.48-40.4-12.92,0,40.4-40.4,40.4,27.48,0-12.92,40.4,40.4-27.48,40.4,12.92,0Z"/>
        <path class="st1" d="M30.3,262.21c-40.4,40.4-40.4-27.48,0,12.92-40.4-40.4,27.48-40.4-12.92,0,40.4-40.4,40.4,27.48,0-12.92,40.4,40.4-27.48,40.4,12.92,0Z"/>
        <path class="st1" d="M309.8,401.95c-40.4,40.4-40.4-27.48,0,12.92-40.4-40.4,27.48-40.4-12.92,0,40.4-40.4,40.4,27.48,0-12.92,40.4,40.4-27.48,40.4,12.92,0Z"/>
        <path class="st1" d="M170.05,401.95c-40.4,40.4-40.4-27.48,0,12.92-40.4-40.4,27.48-40.4-12.92,0,40.4-40.4,40.4,27.48,0-12.92,40.4,40.4-27.48,40.4,12.92,0Z"/>
        <path class="st1" d="M30.3,401.95c-40.4,40.4-40.4-27.48,0,12.92-40.4-40.4,27.48-40.4-12.92,0,40.4-40.4,40.4,27.48,0-12.92,40.4,40.4-27.48,40.4,12.92,0Z"/>
        <path class="st1" d="M309.8,541.7c-40.4,40.4-40.4-27.48,0,12.92-40.4-40.4,27.48-40.4-12.92,0,40.4-40.4,40.4,27.48,0-12.92,40.4,40.4-27.48,40.4,12.92,0Z"/>
        <path class="st1" d="M170.05,541.7c-40.4,40.4-40.4-27.48,0,12.92-40.4-40.4,27.48-40.4-12.92,0,40.4-40.4,40.4,27.48,0-12.92,40.4,40.4-27.48,40.4,12.92,0Z"/>
        <path class="st1" d="M30.3,541.7c-40.4,40.4-40.4-27.48,0,12.92-40.4-40.4,27.48-40.4-12.92,0,40.4-40.4,40.4,27.48,0-12.92,40.4,40.4-27.48,40.4,12.92,0Z"/>
        <path class="st1" d="M34.67,0s1.87,1.8,5.14,4.95c3.26,3.17,7.91,7.7,13.49,13.13,5.55,5.46,12.03,11.84,18.97,18.67,6.91,6.86,14.27,14.19,21.64,21.51,7.32,7.37,14.64,14.73,21.51,21.64,6.83,6.94,13.2,13.42,18.67,18.97,5.43,5.58,9.96,10.24,13.13,13.49,3.15,3.27,4.95,5.15,4.95,5.15,0,0-1.87-1.8-5.15-4.95-3.26-3.17-7.91-7.7-13.49-13.13-5.55-5.46-12.03-11.84-18.97-18.67-6.91-6.86-14.27-14.19-21.64-21.51-7.32-7.37-14.64-14.73-21.51-21.64-6.83-6.94-13.2-13.42-18.67-18.97-5.43-5.58-9.96-10.24-13.13-13.49C36.47,1.87,34.67,0,34.67,0Z"/>
        <path class="st1" d="M152.18,0s-1.8,1.87-4.95,5.14c-3.17,3.26-7.7,7.91-13.13,13.49-5.46,5.55-11.84,12.03-18.67,18.97-6.86,6.91-14.19,14.27-21.51,21.64-7.37,7.32-14.73,14.64-21.64,21.51-6.94,6.83-13.42,13.2-18.97,18.67-5.58,5.43-10.24,9.96-13.49,13.13-3.27,3.15-5.15,4.95-5.15,4.95,0,0,1.8-1.87,4.95-5.15,3.17-3.26,7.7-7.91,13.13-13.49,5.46-5.55,11.84-12.03,18.67-18.97,6.86-6.91,14.19-14.27,21.51-21.64,7.37-7.32,14.73-14.64,21.64-21.51,6.94-6.83,13.42-13.2,18.97-18.67,5.58-5.43,10.24-9.96,13.49-13.13C150.31,1.8,152.18,0,152.18,0Z"/>
        <circle class="st1" cx="93.72" cy="59.04" r="3.49"/>
        <path class="st1" d="M174.42,0s1.87,1.8,5.14,4.95c3.26,3.17,7.91,7.7,13.49,13.13,5.55,5.46,12.03,11.84,18.97,18.67,6.91,6.86,14.27,14.19,21.64,21.51,7.32,7.37,14.64,14.73,21.51,21.64,6.83,6.94,13.2,13.42,18.67,18.97,5.43,5.58,9.96,10.24,13.13,13.49,3.15,3.27,4.95,5.15,4.95,5.15,0,0-1.87-1.8-5.15-4.95-3.26-3.17-7.91-7.7-13.49-13.13-5.55-5.46-12.03-11.84-18.97-18.67-6.91-6.86-14.27-14.19-21.64-21.51-7.32-7.37-14.64-14.73-21.51-21.64-6.83-6.94-13.2-13.42-18.67-18.97-5.43-5.58-9.96-10.24-13.13-13.49C176.22,1.87,174.42,0,174.42,0Z"/>
        <path class="st1" d="M291.92,0s-1.8,1.87-4.95,5.14c-3.17,3.26-7.7,7.91-13.13,13.49-5.46,5.55-11.84,12.03-18.67,18.97-6.86,6.91-14.19,14.27-21.51,21.64-7.37,7.32-14.73,14.64-21.64,21.51-6.94,6.83-13.42,13.2-18.97,18.67-5.58,5.43-10.24,9.96-13.49,13.13-3.27,3.15-5.15,4.95-5.15,4.95l4.95-5.15c3.17-3.26,7.7-7.91,13.13-13.49,5.46-5.55,11.84-12.03,18.67-18.97,6.86-6.91,14.19-14.27,21.51-21.64,7.37-7.32,14.73-14.64,21.64-21.51,6.94-6.83,13.42-13.2,18.97-18.67,5.58-5.43,10.24-9.96,13.49-13.13C290.05,1.8,291.92,0,291.92,0Z"/>
        <circle class="st1" cx="233.46" cy="59.04" r="3.49"/>
        <path class="st1" d="M314.17,0s1.87,1.8,5.14,4.95c3.26,3.17,7.91,7.7,13.49,13.13,5.55,5.46,12.03,11.84,18.97,18.67,6.91,6.86,14.27,14.19,21.64,21.51,7.32,7.37,14.64,14.73,21.51,21.64,6.83,6.94,13.2,13.42,18.67,18.97,5.43,5.58,9.96,10.24,13.13,13.49,3.15,3.27,4.95,5.15,4.95,5.15,0,0-1.87-1.8-5.15-4.95-3.26-3.17-7.91-7.7-13.49-13.13-5.55-5.46-12.03-11.84-18.97-18.67-6.91-6.86-14.27-14.19-21.64-21.51-7.32-7.37-14.64-14.73-21.51-21.64-6.83-6.94-13.2-13.42-18.67-18.97-5.43-5.58-9.96-10.24-13.13-13.49C315.97,1.87,314.17,0,314.17,0Z"/>
        <path class="st1" d="M431.67,0s-1.8,1.87-4.95,5.14c-3.17,3.26-7.7,7.91-13.13,13.49-5.46,5.55-11.84,12.03-18.67,18.97-6.86,6.91-14.19,14.27-21.51,21.64-7.37,7.32-14.73,14.64-21.64,21.51-6.94,6.83-13.42,13.2-18.97,18.67-5.58,5.43-10.24,9.96-13.49,13.13-3.27,3.15-5.15,4.95-5.15,4.95l4.95-5.15c3.17-3.26,7.7-7.91,13.13-13.49,5.46-5.55,11.84-12.03,18.67-18.97,6.86-6.91,14.19-14.27,21.51-21.64,7.37-7.32,14.73-14.64,21.64-21.51,6.94-6.83,13.42-13.2,18.97-18.67,5.58-5.43,10.24-9.96,13.49-13.13C429.8,1.8,431.67,0,431.67,0Z"/>
        <circle class="st1" cx="373.21" cy="59.04" r="3.49"/>
        <path class="st1" d="M34.67,139.75s1.87,1.8,5.14,4.95c3.26,3.17,7.91,7.7,13.49,13.13,5.55,5.46,12.03,11.84,18.97,18.67,6.91,6.86,14.27,14.19,21.64,21.51,7.32,7.37,14.64,14.73,21.51,21.64,6.83,6.94,13.2,13.42,18.67,18.97,5.43,5.58,9.96,10.24,13.13,13.49,3.15,3.27,4.95,5.15,4.95,5.15,0,0-1.87-1.8-5.15-4.95-3.26-3.17-7.91-7.7-13.49-13.13-5.55-5.46-12.03-11.84-18.97-18.67-6.91-6.86-14.27-14.19-21.64-21.51-7.32-7.37-14.64-14.73-21.51-21.64-6.83-6.94-13.2-13.42-18.67-18.97-5.43-5.58-9.96-10.24-13.13-13.49-3.15-3.27-4.95-5.14-4.95-5.14Z"/>
        <path class="st1" d="M152.18,139.75s-1.8,1.87-4.95,5.14c-3.17,3.26-7.7,7.91-13.13,13.49-5.46,5.55-11.84,12.03-18.67,18.97-6.86,6.91-14.19,14.27-21.51,21.64-7.37,7.32-14.73,14.64-21.64,21.51-6.94,6.83-13.42,13.2-18.97,18.67-5.58,5.43-10.24,9.96-13.49,13.13-3.27,3.15-5.15,4.95-5.15,4.95,0,0,1.8-1.87,4.95-5.15,3.17-3.26,7.7-7.91,13.13-13.49,5.46-5.55,11.84-12.03,18.67-18.97,6.86-6.91,14.19-14.27,21.51-21.64,7.37-7.32,14.73-14.64,21.64-21.51,6.94-6.83,13.42-13.2,18.97-18.67,5.58-5.43,10.24-9.96,13.49-13.13,3.27-3.15,5.14-4.95,5.14-4.95Z"/>
        <circle class="st1" cx="93.72" cy="198.79" r="3.49"/>
        <path class="st1" d="M174.42,139.75s1.87,1.8,5.14,4.95c3.26,3.17,7.91,7.7,13.49,13.13,5.55,5.46,12.03,11.84,18.97,18.67,6.91,6.86,14.27,14.19,21.64,21.51,7.32,7.37,14.64,14.73,21.51,21.64,6.83,6.94,13.2,13.42,18.67,18.97,5.43,5.58,9.96,10.24,13.13,13.49,3.15,3.27,4.95,5.15,4.95,5.15,0,0-1.87-1.8-5.15-4.95-3.26-3.17-7.91-7.7-13.49-13.13-5.55-5.46-12.03-11.84-18.97-18.67-6.91-6.86-14.27-14.19-21.64-21.51-7.32-7.37-14.64-14.73-21.51-21.64-6.83-6.94-13.2-13.42-18.67-18.97-5.43-5.58-9.96-10.24-13.13-13.49-3.15-3.27-4.95-5.14-4.95-5.14Z"/>
        <path class="st1" d="M291.92,139.75s-1.8,1.87-4.95,5.14c-3.17,3.26-7.7,7.91-13.13,13.49-5.46,5.55-11.84,12.03-18.67,18.97-6.86,6.91-14.19,14.27-21.51,21.64-7.37,7.32-14.73,14.64-21.64,21.51-6.94,6.83-13.42,13.2-18.97,18.67-5.58,5.43-10.24,9.96-13.49,13.13-3.27,3.15-5.15,4.95-5.15,4.95l4.95-5.15c3.17-3.26,7.7-7.91,13.13-13.49,5.46-5.55,11.84-12.03,18.67-18.97,6.86-6.91,14.19-14.27,21.51-21.64,7.37-7.32,14.73-14.64,21.64-21.51,6.94-6.83,13.42-13.2,18.97-18.67,5.58-5.43,10.24-9.96,13.49-13.13,3.27-3.15,5.14-4.95,5.14-4.95Z"/>
        <circle class="st1" cx="233.46" cy="198.79" r="3.49"/>
        <path class="st1" d="M314.17,139.75s1.87,1.8,5.14,4.95c3.26,3.17,7.91,7.7,13.49,13.13,5.55,5.46,12.03,11.84,18.97,18.67,6.91,6.86,14.27,14.19,21.64,21.51,7.32,7.37,14.64,14.73,21.51,21.64,6.83,6.94,13.2,13.42,18.67,18.97,5.43,5.58,9.96,10.24,13.13,13.49,3.15,3.27,4.95,5.15,4.95,5.15,0,0-1.87-1.8-5.15-4.95-3.26-3.17-7.91-7.7-13.49-13.13-5.55-5.46-12.03-11.84-18.97-18.67-6.91-6.86-14.27-14.19-21.64-21.51-7.32-7.37-14.64-14.73-21.51-21.64-6.83-6.94-13.2-13.42-18.67-18.97-5.43-5.58-9.96-10.24-13.13-13.49-3.15-3.27-4.95-5.14-4.95-5.14Z"/>
        <path class="st1" d="M431.67,139.75s-1.8,1.87-4.95,5.14c-3.17,3.26-7.7,7.91-13.13,13.49-5.46,5.55-11.84,12.03-18.67,18.97-6.86,6.91-14.19,14.27-21.51,21.64-7.37,7.32-14.73,14.64-21.64,21.51-6.94,6.83-13.42,13.2-18.97,18.67-5.58,5.43-10.24,9.96-13.49,13.13-3.27,3.15-5.15,4.95-5.15,4.95l4.95-5.15c3.17-3.26,7.7-7.91,13.13-13.49,5.46-5.55,11.84-12.03,18.67-18.97,6.86-6.91,14.19-14.27,21.51-21.64,7.37-7.32,14.73-14.64,21.64-21.51,6.94-6.83,13.42-13.2,18.97-18.67,5.58-5.43,10.24-9.96,13.49-13.13,3.27-3.15,5.14-4.95,5.14-4.95Z"/>
        <circle class="st1" cx="373.21" cy="198.79" r="3.49"/>
        <path class="st1" d="M34.67,279.49s1.87,1.8,5.14,4.95c3.26,3.17,7.91,7.7,13.49,13.13,5.55,5.46,12.03,11.84,18.97,18.67,6.91,6.86,14.27,14.19,21.64,21.51,7.32,7.37,14.64,14.73,21.51,21.64,6.83,6.94,13.2,13.42,18.67,18.97,5.43,5.58,9.96,10.24,13.13,13.49,3.15,3.27,4.95,5.15,4.95,5.15,0,0-1.87-1.8-5.15-4.95-3.26-3.17-7.91-7.7-13.49-13.13-5.55-5.46-12.03-11.84-18.97-18.67-6.91-6.86-14.27-14.19-21.64-21.51-7.32-7.37-14.64-14.73-21.51-21.64-6.83-6.94-13.2-13.42-18.67-18.97-5.43-5.58-9.96-10.24-13.13-13.49-3.15-3.27-4.95-5.14-4.95-5.14Z"/>
        <path class="st1" d="M152.18,279.49s-1.8,1.87-4.95,5.14c-3.17,3.26-7.7,7.91-13.13,13.49-5.46,5.55-11.84,12.03-18.67,18.97-6.86,6.91-14.19,14.27-21.51,21.64-7.37,7.32-14.73,14.64-21.64,21.51-6.94,6.83-13.42,13.2-18.97,18.67-5.58,5.43-10.24,9.96-13.49,13.13-3.27,3.15-5.15,4.95-5.15,4.95,0,0,1.8-1.87,4.95-5.15,3.17-3.26,7.7-7.91,13.13-13.49,5.46-5.55,11.84-12.03,18.67-18.97,6.86-6.91,14.19-14.27,21.51-21.64,7.37-7.32,14.73-14.64,21.64-21.51,6.94-6.83,13.42-13.2,18.97-18.67,5.58-5.43,10.24-9.96,13.49-13.13,3.27-3.15,5.14-4.95,5.14-4.95Z"/>
        <circle class="st1" cx="93.72" cy="338.54" r="3.49"/>
        <path class="st1" d="M174.42,279.49s1.87,1.8,5.14,4.95c3.26,3.17,7.91,7.7,13.49,13.13,5.55,5.46,12.03,11.84,18.97,18.67,6.91,6.86,14.27,14.19,21.64,21.51,7.32,7.37,14.64,14.73,21.51,21.64,6.83,6.94,13.2,13.42,18.67,18.97,5.43,5.58,9.96,10.24,13.13,13.49,3.15,3.27,4.95,5.15,4.95,5.15,0,0-1.87-1.8-5.15-4.95-3.26-3.17-7.91-7.7-13.49-13.13-5.55-5.46-12.03-11.84-18.97-18.67-6.91-6.86-14.27-14.19-21.64-21.51-7.32-7.37-14.64-14.73-21.51-21.64-6.83-6.94-13.2-13.42-18.67-18.97-5.43-5.58-9.96-10.24-13.13-13.49-3.15-3.27-4.95-5.14-4.95-5.14Z"/>
        <path class="st1" d="M291.92,279.49s-1.8,1.87-4.95,5.14c-3.17,3.26-7.7,7.91-13.13,13.49-5.46,5.55-11.84,12.03-18.67,18.97-6.86,6.91-14.19,14.27-21.51,21.64-7.37,7.32-14.73,14.64-21.64,21.51-6.94,6.83-13.42,13.2-18.97,18.67-5.58,5.43-10.24,9.96-13.49,13.13-3.27,3.15-5.15,4.95-5.15,4.95l4.95-5.15c3.17-3.26,7.7-7.91,13.13-13.49,5.46-5.55,11.84-12.03,18.67-18.97,6.86-6.91,14.19-14.27,21.51-21.64,7.37-7.32,14.73-14.64,21.64-21.51,6.94-6.83,13.42-13.2,18.97-18.67,5.58-5.43,10.24-9.96,13.49-13.13,3.27-3.15,5.14-4.95,5.14-4.95Z"/>
        <circle class="st1" cx="233.46" cy="338.54" r="3.49"/>
        <path class="st1" d="M314.17,279.49s1.87,1.8,5.14,4.95c3.26,3.17,7.91,7.7,13.49,13.13,5.55,5.46,12.03,11.84,18.97,18.67,6.91,6.86,14.27,14.19,21.64,21.51,7.32,7.37,14.64,14.73,21.51,21.64,6.83,6.94,13.2,13.42,18.67,18.97,5.43,5.58,9.96,10.24,13.13,13.49,3.15,3.27,4.95,5.15,4.95,5.15,0,0-1.87-1.8-5.15-4.95-3.26-3.17-7.91-7.7-13.49-13.13-5.55-5.46-12.03-11.84-18.97-18.67-6.91-6.86-14.27-14.19-21.64-21.51-7.32-7.37-14.64-14.73-21.51-21.64-6.83-6.94-13.2-13.42-18.67-18.97-5.43-5.58-9.96-10.24-13.13-13.49-3.15-3.27-4.95-5.14-4.95-5.14Z"/>
        <path class="st1" d="M431.67,279.49s-1.8,1.87-4.95,5.14c-3.17,3.26-7.7,7.91-13.13,13.49-5.46,5.55-11.84,12.03-18.67,18.97-6.86,6.91-14.19,14.27-21.51,21.64-7.37,7.32-14.73,14.64-21.64,21.51-6.94,6.83-13.42,13.2-18.97,18.67-5.58,5.43-10.24,9.96-13.49,13.13-3.27,3.15-5.15,4.95-5.15,4.95l4.95-5.15c3.17-3.26,7.7-7.91,13.13-13.49,5.46-5.55,11.84-12.03,18.67-18.97,6.86-6.91,14.19-14.27,21.51-21.64,7.37-7.32,14.73-14.64,21.64-21.51,6.94-6.83,13.42-13.2,18.97-18.67,5.58-5.43,10.24-9.96,13.49-13.13,3.27-3.15,5.14-4.95,5.14-4.95Z"/>
        <circle class="st1" cx="373.21" cy="338.54" r="3.49"/>
        <path class="st1" d="M34.67,419.24s1.87,1.8,5.14,4.95c3.26,3.17,7.91,7.7,13.49,13.13,5.55,5.46,12.03,11.84,18.97,18.67,6.91,6.86,14.27,14.19,21.64,21.51,7.32,7.37,14.64,14.73,21.51,21.64,6.83,6.94,13.2,13.42,18.67,18.97,5.43,5.58,9.96,10.24,13.13,13.49,3.15,3.27,4.95,5.15,4.95,5.15,0,0-1.87-1.8-5.15-4.95-3.26-3.17-7.91-7.7-13.49-13.13-5.55-5.46-12.03-11.84-18.97-18.67-6.91-6.86-14.27-14.19-21.64-21.51-7.32-7.37-14.64-14.73-21.51-21.64-6.83-6.94-13.2-13.42-18.67-18.97-5.43-5.58-9.96-10.24-13.13-13.49-3.15-3.27-4.95-5.14-4.95-5.14Z"/>
        <path class="st1" d="M152.18,419.24s-1.8,1.87-4.95,5.14c-3.17,3.26-7.7,7.91-13.13,13.49-5.46,5.55-11.84,12.03-18.67,18.97-6.86,6.91-14.19,14.27-21.51,21.64-7.37,7.32-14.73,14.64-21.64,21.51-6.94,6.83-13.42,13.2-18.97,18.67-5.58,5.43-10.24,9.96-13.49,13.13-3.27,3.15-5.15,4.95-5.15,4.95,0,0,1.8-1.87,4.95-5.15,3.17-3.26,7.7-7.91,13.13-13.49,5.46-5.55,11.84-12.03,18.67-18.97,6.86-6.91,14.19-14.27,21.51-21.64,7.37-7.32,14.73-14.64,21.64-21.51,6.94-6.83,13.42-13.2,18.97-18.67,5.58-5.43,10.24-9.96,13.49-13.13,3.27-3.15,5.14-4.95,5.14-4.95Z"/>
        <circle class="st1" cx="93.72" cy="478.28" r="3.49"/>
        <path class="st1" d="M174.42,419.24s1.87,1.8,5.14,4.95c3.26,3.17,7.91,7.7,13.49,13.13,5.55,5.46,12.03,11.84,18.97,18.67,6.91,6.86,14.27,14.19,21.64,21.51,7.32,7.37,14.64,14.73,21.51,21.64,6.83,6.94,13.2,13.42,18.67,18.97,5.43,5.58,9.96,10.24,13.13,13.49,3.15,3.27,4.95,5.15,4.95,5.15,0,0-1.87-1.8-5.15-4.95-3.26-3.17-7.91-7.7-13.49-13.13-5.55-5.46-12.03-11.84-18.97-18.67-6.91-6.86-14.27-14.19-21.64-21.51-7.32-7.37-14.64-14.73-21.51-21.64-6.83-6.94-13.2-13.42-18.67-18.97-5.43-5.58-9.96-10.24-13.13-13.49-3.15-3.27-4.95-5.14-4.95-5.14Z"/>
        <path class="st1" d="M291.92,419.24s-1.8,1.87-4.95,5.14c-3.17,3.26-7.7,7.91-13.13,13.49-5.46,5.55-11.84,12.03-18.67,18.97-6.86,6.91-14.19,14.27-21.51,21.64-7.37,7.32-14.73,14.64-21.64,21.51-6.94,6.83-13.42,13.2-18.97,18.67-5.58,5.43-10.24,9.96-13.49,13.13-3.27,3.15-5.15,4.95-5.15,4.95l4.95-5.15c3.17-3.26,7.7-7.91,13.13-13.49,5.46-5.55,11.84-12.03,18.67-18.97,6.86-6.91,14.19-14.27,21.51-21.64,7.37-7.32,14.73-14.64,21.64-21.51,6.94-6.83,13.42-13.2,18.97-18.67,5.58-5.43,10.24-9.96,13.49-13.13,3.27-3.15,5.14-4.95,5.14-4.95Z"/>
        <circle class="st1" cx="233.46" cy="478.28" r="3.49"/>
        <path class="st1" d="M314.17,419.24s1.87,1.8,5.14,4.95c3.26,3.17,7.91,7.7,13.49,13.13,5.55,5.46,12.03,11.84,18.97,18.67,6.91,6.86,14.27,14.19,21.64,21.51,7.32,7.37,14.64,14.73,21.51,21.64,6.83,6.94,13.2,13.42,18.67,18.97,5.43,5.58,9.96,10.24,13.13,13.49,3.15,3.27,4.95,5.15,4.95,5.15,0,0-1.87-1.8-5.15-4.95-3.26-3.17-7.91-7.7-13.49-13.13-5.55-5.46-12.03-11.84-18.97-18.67-6.91-6.86-14.27-14.19-21.64-21.51-7.32-7.37-14.64-14.73-21.51-21.64-6.83-6.94-13.2-13.42-18.67-18.97-5.43-5.58-9.96-10.24-13.13-13.49-3.15-3.27-4.95-5.14-4.95-5.14Z"/>
        <path class="st1" d="M431.67,419.24s-1.8,1.87-4.95,5.14c-3.17,3.26-7.7,7.91-13.13,13.49-5.46,5.55-11.84,12.03-18.67,18.97-6.86,6.91-14.19,14.27-21.51,21.64-7.37,7.32-14.73,14.64-21.64,21.51-6.94,6.83-13.42,13.2-18.97,18.67-5.58,5.43-10.24,9.96-13.49,13.13-3.27,3.15-5.15,4.95-5.15,4.95l4.95-5.15c3.17-3.26,7.7-7.91,13.13-13.49,5.46-5.55,11.84-12.03,18.67-18.97,6.86-6.91,14.19-14.27,21.51-21.64,7.37-7.32,14.73-14.64,21.64-21.51,6.94-6.83,13.42-13.2,18.97-18.67,5.58-5.43,10.24-9.96,13.49-13.13,3.27-3.15,5.14-4.95,5.14-4.95Z"/>
        <circle class="st1" cx="373.21" cy="478.28" r="3.49"/>
      </g>
    </pattern>
  </defs>
  <g id="BG">
    <rect id="WBG" class="st2" width="1728" height="1117"/>
    <rect id="Pattern" class="st3" width="1728" height="1117"/>
  </g>
</svg>