<?xml version="1.0" encoding="UTF-8"?>
<svg id="Layer_1" xmlns="http://www.w3.org/2000/svg" version="1.1" viewBox="0 0 1920 1080">
  <!-- Generator: Adobe Illustrator 29.0.1, SVG Export Plug-In . SVG Version: 2.1.0 Build 192)  -->
  <defs>
    <style>
      .st0, .st1, .st2, .st3, .st4, .st5, .st6, .st7 {
        stroke-width: 2.02px;
      }

      .st0, .st1, .st3, .st5, .st6, .st7 {
        stroke: #333;
      }

      .st0, .st2 {
        stroke-linecap: round;
        stroke-linejoin: round;
      }

      .st0, .st2, .st3, .st4 {
        fill: none;
      }

      .st1, .st3, .st4, .st5, .st6, .st7 {
        stroke-miterlimit: 10;
      }

      .st1, .st8 {
        fill: #333;
      }

      .st9 {
        opacity: .5;
      }

      .st9, .st10, .st11, .st6 {
        fill: #fff;
      }

      .st10 {
        opacity: .8;
      }

      .st2 {
        stroke: #fff;
      }

      .st4 {
        stroke: #999;
      }

      .st12 {
        fill: #082338;
      }

      .st13 {
        opacity: .3;
      }

      .st5 {
        fill: #d8d8d8;
      }

      .st14, .st7 {
        fill: #2886de;
      }

      .st15 {
        fill: #cacaca;
      }
    </style>
  </defs>
  <rect class="st12" width="1920" height="1080"/>
  <g>
    <path class="st2" d="M980.26,94.07s-14.33-36.39-44.11-45.21c-29.77-8.82-47.42,8.82-52.93,20.95-5.51,12.13-6.62,25.36-15.44,27.57-8.82,2.21-17.64-11.03-31.98-6.62-14.33,4.41-11.03,18.75-18.75,23.16-7.72,4.41-22.05-6.62-34.18,0-12.13,6.62-17.64,19.85-17.64,19.85,0,0-5.51-5.51-19.85,0-14.33,5.51-17.64,13.23-22.05,14.33-4.41,1.1,345.14,0,345.14,0,0,0-6.62-23.16-17.64-36.39-11.03-13.23-27.96-16.13-40.8-11.03-16.82,6.69-27.57,1.1-29.77-6.62Z"/>
    <path class="st2" d="M864.97,102.9c-7.17,8.53-19.99,22.49-32.61,19.74-8.32-1.82-8.58-12.01-3.68-17.63,5.92-6.8,23.73-4.84,18.43,6.82"/>
    <path class="st2" d="M944.72,120.77c8.22,9.55,26.45-1.62,14.29-10.06-12.05-8.37-30.47.78-26.4,16.24,2.8,10.65,15.72,16.07,25.87,15.17,13.92-1.23,24.49-12.35,34.72-20.72,8.77-7.18,22.54-14.38,34.43-10.94,11.98,3.46,22.86,25.23,6.4,30.72"/>
    <path class="st2" d="M782.67,132.89c9.66-5.53,15.28,11.7.82,12.11-11.38.32-14.24-9.2-8.47-17.85"/>
  </g>
  <g>
    <path class="st2" d="M1263.47,116.07s-8.55-21.7-26.31-26.97c-17.76-5.26-28.28,5.26-31.57,12.5-3.29,7.23-3.95,15.13-9.21,16.44-5.26,1.32-10.52-6.58-19.07-3.95-8.55,2.63-6.58,11.18-11.18,13.81-4.6,2.63-13.15-3.95-20.39,0-7.23,3.95-10.52,11.84-10.52,11.84,0,0-3.29-3.29-11.84,0-8.55,3.29-10.52,7.89-13.15,8.55-2.63.66,205.86,0,205.86,0,0,0-3.95-13.81-10.52-21.7-6.58-7.89-16.68-9.62-24.34-6.58-10.03,3.99-16.44.66-17.76-3.95Z"/>
    <path class="st2" d="M1194.71,121.34c-4.28,5.09-11.92,13.41-19.45,11.77-4.96-1.08-5.12-7.16-2.2-10.51,3.53-4.05,14.15-2.89,10.99,4.07"/>
    <path class="st2" d="M1242.27,131.99c4.9,5.69,15.77-.96,8.53-6-7.19-4.99-18.18.47-15.75,9.69,1.67,6.35,9.38,9.58,15.43,9.05,8.3-.74,14.61-7.37,20.71-12.36,5.23-4.28,13.45-8.58,20.54-6.53,7.15,2.06,13.63,15.05,3.82,18.32"/>
    <path class="st2" d="M1145.62,139.22c5.76-3.3,9.12,6.98.49,7.22-6.79.19-8.49-5.49-5.05-10.65"/>
  </g>
  <g>
    <path class="st2" d="M1763.33,81.69s-17.59-44.65-54.12-55.47c-36.53-10.82-58.18,10.82-64.94,25.71-6.76,14.88-8.12,31.12-18.94,33.82-10.82,2.71-21.65-13.53-39.23-8.12-17.59,5.41-13.53,23-23,28.41-9.47,5.41-27.06-8.12-41.94,0-14.88,8.12-21.65,24.35-21.65,24.35,0,0-6.76-6.76-24.35,0-17.59,6.76-21.65,16.24-27.06,17.59-5.41,1.35,423.47,0,423.47,0,0,0-8.12-28.41-21.65-44.65-13.53-16.24-34.3-19.79-50.06-13.53-20.64,8.2-33.82,1.35-36.53-8.12Z"/>
    <path class="st2" d="M1719.73,114.45c10.08,11.71,32.45-1.98,17.54-12.34-14.79-10.27-37.39.96-32.39,19.93,3.44,13.07,19.29,19.72,31.74,18.61,17.08-1.51,30.05-15.15,42.6-25.42,10.76-8.81,27.66-17.64,42.24-13.43,14.7,4.25,28.05,30.96,7.85,37.69"/>
  </g>
  <g>
    <path class="st14" d="M1920,246.68v827.42c-57.48,9.17-118.59,5.54-174.39,3.08-106.96-4.7-215.09-17.5-319.81-33.49-138.27-21.02-460.87,96.56-581.41-36.85-120.54-133.4-79.73-312.48-7.1-421.34,72.68-108.86,388.24-128.15,450.25-161.53,62.06-33.32,262.33-256.29,471.49-228.23,1.06.17,2.12.28,3.19.45,54.46,7.66,107.91,25.1,157.78,50.49Z"/>
    <path class="st10" d="M1920,246.68v827.42c-57.48,9.17-118.59,5.54-174.39,3.08-106.96-4.7-215.09-17.5-319.81-33.49-138.27-21.02-460.87,96.56-581.41-36.85-120.54-133.4-79.73-312.48-7.1-421.34,72.68-108.86,388.24-128.15,450.25-161.53,62.06-33.32,262.33-256.29,471.49-228.23,1.06.17,2.12.28,3.19.45,54.46,7.66,107.91,25.1,157.78,50.49Z"/>
  </g>
  <line class="st3" x1="482.95" y1="939.63" x2="1920" y2="939.63"/>
  <g>
    <path class="st14" d="M1467.65,356.77c0,77.89-46.08,141.03-102.91,141.03s-102.91-63.14-102.91-141.03S1307.9,11.18,1364.74,11.18s102.91,267.7,102.91,345.59Z"/>
    <path class="st9" d="M1467.65,356.77c0,77.89-46.08,141.03-102.91,141.03s-102.91-63.14-102.91-141.03S1307.9,11.18,1364.74,11.18s102.91,267.7,102.91,345.59Z"/>
    <polygon class="st15" points="1309.15 363.77 1341.97 375.22 1358.23 397.32 1355.39 465 1336.47 452.16 1354.8 479 1351.55 556.39 1370.15 556.39 1367.93 427.57 1422.45 397.52 1391.28 409.04 1397.54 390.28 1382.64 412.24 1367.76 417.74 1366.7 356.14 1420.84 284.22 1391.83 313.23 1396.73 293.06 1382.85 322.2 1366.4 338.66 1364.74 242.42 1358.84 382.78 1307.54 328.41 1335.72 366.72 1309.15 363.77"/>
    <g>
      <path class="st11" d="M1421.36,242.72s.95,9.46-4.22,16.4c-5.17,6.94-14.5,8.74-14.5,8.74,0,0-.95-9.45,4.22-16.4,5.17-6.94,14.5-8.74,14.5-8.74Z"/>
      <path class="st11" d="M1452.38,286.3s.95,9.45-4.22,16.4c-5.17,6.94-14.5,8.74-14.5,8.74,0,0-.95-9.45,4.22-16.4,5.17-6.94,14.5-8.74,14.5-8.74Z"/>
      <path class="st11" d="M1452.36,371.15s-2.29,9.22-9.49,14.02c-7.2,4.8-16.59,3.35-16.59,3.35,0,0,2.29-9.22,9.49-14.02,7.2-4.8,16.59-3.35,16.59-3.35Z"/>
      <path class="st11" d="M1282.01,371.15s2.29,9.22,9.49,14.02c7.2,4.8,16.59,3.35,16.59,3.35,0,0-2.29-9.22-9.49-14.02-7.2-4.8-16.59-3.35-16.59-3.35Z"/>
      <path class="st11" d="M1416.54,335.93s.95,9.46-4.22,16.4c-5.17,6.94-14.5,8.74-14.5,8.74,0,0-.95-9.46,4.22-16.4,5.17-6.94,14.5-8.74,14.5-8.74Z"/>
      <path class="st11" d="M1408.5,195.32s.95,9.45-4.22,16.4c-5.17,6.94-14.5,8.74-14.5,8.74,0,0-.95-9.45,4.22-16.4,5.17-6.94,14.5-8.74,14.5-8.74Z"/>
      <path class="st11" d="M1390.02,231.47s.95,9.46-4.22,16.4c-5.17,6.94-14.5,8.74-14.5,8.74,0,0-.95-9.46,4.22-16.4,5.17-6.94,14.5-8.74,14.5-8.74Z"/>
      <path class="st11" d="M1433.89,205.15s.95,9.45-4.22,16.4c-5.17,6.94-14.5,8.74-14.5,8.74,0,0-.95-9.45,4.22-16.4,5.17-6.94,14.5-8.74,14.5-8.74Z"/>
      <path class="st11" d="M1291.32,205.15s-.95,9.45,4.22,16.4c5.17,6.94,14.5,8.74,14.5,8.74,0,0,.95-9.45-4.22-16.4-5.17-6.94-14.5-8.74-14.5-8.74Z"/>
      <path class="st11" d="M1412.52,151.12s.95,9.46-4.22,16.4c-5.17,6.94-14.5,8.74-14.5,8.74,0,0-.95-9.46,4.22-16.4,5.17-6.94,14.5-8.74,14.5-8.74Z"/>
      <path class="st11" d="M1403.44,104.18s3.3,8.91.04,16.93c-3.26,8.02-11.84,12.1-11.84,12.1,0,0-3.3-8.91-.04-16.93,3.26-8.02,11.84-12.1,11.84-12.1Z"/>
      <path class="st11" d="M1338.36,91.91s8.42,4.41,11.37,12.54c2.95,8.14-.68,16.92-.68,16.92,0,0-8.42-4.41-11.37-12.54-2.95-8.14.68-16.92.68-16.92Z"/>
      <path class="st11" d="M1368.71,148.05s6,7.37,5.5,16.01c-.5,8.64-7.3,15.28-7.3,15.28,0,0-6-7.37-5.5-16.01.5-8.64,7.3-15.28,7.3-15.28Z"/>
      <path class="st11" d="M1367.1,64.48s6,7.37,5.5,16.01c-.5,8.64-7.3,15.27-7.3,15.27,0,0-6-7.37-5.5-16.01.5-8.64,7.3-15.27,7.3-15.27Z"/>
      <path class="st11" d="M1298.99,242.72s-.95,9.46,4.22,16.4c5.17,6.94,14.5,8.74,14.5,8.74,0,0,.95-9.45-4.22-16.4-5.17-6.94-14.5-8.74-14.5-8.74Z"/>
      <path class="st11" d="M1281.31,294.15s-.95,9.46,4.22,16.4c5.17,6.94,14.5,8.74,14.5,8.74,0,0,.95-9.46-4.22-16.4-5.17-6.94-14.5-8.74-14.5-8.74Z"/>
      <path class="st11" d="M1328.23,312.82s-.95,9.46,4.22,16.4c5.17,6.94,14.5,8.74,14.5,8.74,0,0,.95-9.46-4.22-16.4-5.17-6.94-14.5-8.74-14.5-8.74Z"/>
      <path class="st11" d="M1341.06,241.56s-3.62,8.79-.66,16.92c2.96,8.13,11.39,12.53,11.39,12.53,0,0,3.62-8.79.66-16.92-2.96-8.13-11.39-12.53-11.39-12.53Z"/>
      <path class="st11" d="M1307.84,431.18s9.5.17,16-5.55c6.49-5.72,7.52-15.17,7.52-15.17,0,0-9.5-.17-15.99,5.55-6.49,5.72-7.52,15.17-7.52,15.17Z"/>
      <path class="st11" d="M1399.01,420.78s2.58,9.15,9.93,13.71c7.35,4.56,16.69,2.82,16.69,2.82,0,0-2.58-9.15-9.93-13.71-7.35-4.56-16.69-2.82-16.69-2.82Z"/>
      <path class="st11" d="M1318.43,195.32s-.95,9.45,4.22,16.4c5.17,6.94,14.5,8.74,14.5,8.74,0,0,.95-9.45-4.22-16.4-5.17-6.94-14.5-8.74-14.5-8.74Z"/>
      <path class="st11" d="M1318.27,153.53s-.95,9.45,4.22,16.4c5.17,6.94,14.5,8.74,14.5,8.74,0,0,.95-9.45-4.22-16.4-5.17-6.94-14.5-8.74-14.5-8.74Z"/>
    </g>
  </g>
  <g>
    <path class="st14" d="M1859.11,399.54c0,58.96-34.88,106.75-77.9,106.75s-77.9-47.79-77.9-106.75,34.88-261.59,77.9-261.59,77.9,202.63,77.9,261.59Z"/>
    <path class="st9" d="M1859.11,399.54c0,58.96-34.88,106.75-77.9,106.75s-77.9-47.79-77.9-106.75,34.88-261.59,77.9-261.59,77.9,202.63,77.9,261.59Z"/>
    <polygon class="st15" points="1739.13 404.83 1763.98 413.5 1776.29 430.23 1774.13 481.46 1759.81 471.74 1773.69 492.06 1771.46 545.21 1785.22 545.21 1783.63 453.13 1824.89 430.38 1801.3 439.1 1806.04 424.91 1794.76 441.52 1783.5 445.69 1782.7 399.06 1823.68 344.62 1801.71 366.58 1805.43 351.31 1794.92 373.37 1782.47 385.83 1781.21 312.98 1776.75 419.22 1737.92 378.07 1759.25 407.07 1739.13 404.83"/>
    <g>
      <path class="st11" d="M1824.07,313.21s.72,7.16-3.19,12.41c-3.91,5.25-10.97,6.62-10.97,6.62,0,0-.72-7.16,3.19-12.41,3.91-5.25,10.97-6.62,10.97-6.62Z"/>
      <path class="st11" d="M1847.55,346.2s.72,7.16-3.19,12.41c-3.91,5.25-10.97,6.62-10.97,6.62,0,0-.72-7.16,3.19-12.41,3.91-5.25,10.98-6.62,10.98-6.62Z"/>
      <path class="st11" d="M1847.54,410.43s-1.73,6.98-7.18,10.61c-5.45,3.63-12.56,2.53-12.56,2.53,0,0,1.73-6.98,7.18-10.61,5.45-3.63,12.56-2.53,12.56-2.53Z"/>
      <path class="st11" d="M1718.59,410.43s1.73,6.98,7.18,10.61c5.45,3.63,12.56,2.53,12.56,2.53,0,0-1.73-6.98-7.18-10.61-5.45-3.63-12.56-2.53-12.56-2.53Z"/>
      <path class="st11" d="M1820.42,383.77s.72,7.16-3.19,12.41c-3.91,5.25-10.97,6.62-10.97,6.62,0,0-.72-7.16,3.19-12.41,3.91-5.25,10.97-6.62,10.97-6.62Z"/>
      <path class="st11" d="M1814.34,277.33s.72,7.16-3.19,12.41c-3.91,5.25-10.97,6.62-10.97,6.62,0,0-.72-7.16,3.19-12.41,3.91-5.25,10.97-6.62,10.97-6.62Z"/>
      <path class="st11" d="M1800.35,304.7s.72,7.16-3.19,12.41c-3.91,5.25-10.98,6.62-10.98,6.62,0,0-.72-7.16,3.19-12.41,3.91-5.25,10.97-6.62,10.97-6.62Z"/>
      <path class="st11" d="M1833.56,284.77s.72,7.16-3.19,12.41c-3.91,5.25-10.97,6.62-10.97,6.62,0,0-.72-7.16,3.19-12.41,3.91-5.25,10.97-6.62,10.97-6.62Z"/>
      <path class="st11" d="M1725.64,284.77s-.72,7.16,3.19,12.41c3.91,5.25,10.97,6.62,10.97,6.62,0,0,.72-7.16-3.19-12.41-3.91-5.25-10.97-6.62-10.97-6.62Z"/>
      <path class="st11" d="M1817.38,243.87s.72,7.16-3.19,12.41c-3.91,5.25-10.97,6.62-10.97,6.62,0,0-.72-7.16,3.19-12.41,3.91-5.25,10.97-6.62,10.97-6.62Z"/>
      <path class="st11" d="M1810.5,208.34s2.5,6.75.03,12.81c-2.47,6.07-8.96,9.16-8.96,9.16,0,0-2.5-6.75-.03-12.81,2.47-6.07,8.96-9.16,8.96-9.16Z"/>
      <path class="st11" d="M1761.24,199.05s6.37,3.34,8.6,9.5c2.23,6.16-.52,12.8-.52,12.8,0,0-6.37-3.34-8.61-9.5-2.23-6.16.52-12.8.52-12.8Z"/>
      <path class="st11" d="M1784.21,241.55s4.54,5.58,4.16,12.12c-.38,6.54-5.53,11.56-5.53,11.56,0,0-4.54-5.58-4.16-12.12.38-6.54,5.52-11.56,5.52-11.56Z"/>
      <path class="st11" d="M1783,178.29s4.54,5.58,4.16,12.12c-.38,6.54-5.53,11.56-5.53,11.56,0,0-4.54-5.58-4.16-12.12.38-6.54,5.53-11.56,5.53-11.56Z"/>
      <path class="st11" d="M1731.44,313.21s-.72,7.16,3.19,12.41c3.91,5.25,10.97,6.62,10.97,6.62,0,0,.72-7.16-3.19-12.41-3.91-5.25-10.98-6.62-10.98-6.62Z"/>
      <path class="st11" d="M1718.06,352.14s-.72,7.16,3.19,12.41c3.91,5.25,10.97,6.62,10.97,6.62,0,0,.72-7.16-3.19-12.41-3.91-5.25-10.97-6.62-10.97-6.62Z"/>
      <path class="st11" d="M1753.58,366.27s-.72,7.16,3.19,12.41c3.91,5.25,10.97,6.62,10.97,6.62,0,0,.72-7.16-3.19-12.41-3.91-5.25-10.97-6.62-10.97-6.62Z"/>
      <path class="st11" d="M1763.29,312.33s-2.74,6.65-.5,12.8c2.24,6.15,8.62,9.48,8.62,9.48,0,0,2.74-6.65.5-12.8-2.24-6.15-8.62-9.48-8.62-9.48Z"/>
      <path class="st11" d="M1738.14,455.86s7.19.13,12.11-4.2c4.92-4.33,5.69-11.48,5.69-11.48,0,0-7.19-.13-12.11,4.2-4.92,4.33-5.69,11.48-5.69,11.48Z"/>
      <path class="st11" d="M1807.15,447.99s1.95,6.92,7.52,10.38c5.57,3.45,12.64,2.13,12.64,2.13,0,0-1.95-6.92-7.52-10.38-5.57-3.45-12.64-2.13-12.64-2.13Z"/>
      <path class="st11" d="M1746.16,277.33s-.72,7.16,3.19,12.41c3.91,5.25,10.97,6.62,10.97,6.62,0,0,.72-7.16-3.19-12.41-3.91-5.25-10.97-6.62-10.97-6.62Z"/>
      <path class="st11" d="M1746.04,245.7s-.72,7.16,3.19,12.41c3.91,5.25,10.97,6.62,10.97,6.62,0,0,.72-7.16-3.19-12.41-3.91-5.25-10.97-6.62-10.97-6.62Z"/>
    </g>
  </g>
  <g>
    <path class="st14" d="M1111.27,399.54c0,58.96-34.88,106.75-77.9,106.75s-77.9-47.79-77.9-106.75,34.88-261.59,77.9-261.59,77.9,202.63,77.9,261.59Z"/>
    <path class="st9" d="M1111.27,399.54c0,58.96-34.88,106.75-77.9,106.75s-77.9-47.79-77.9-106.75,34.88-261.59,77.9-261.59,77.9,202.63,77.9,261.59Z"/>
    <polygon class="st15" points="991.29 404.83 1016.14 413.5 1028.44 430.23 1026.29 481.46 1011.97 471.74 1025.85 492.06 1023.61 545.21 1037.37 545.21 1035.79 453.13 1077.05 430.38 1053.46 439.1 1058.19 424.91 1046.92 441.52 1035.66 445.69 1034.86 399.06 1075.83 344.62 1053.87 366.58 1057.59 351.31 1047.08 373.37 1034.63 385.83 1033.37 312.98 1028.91 419.22 990.07 378.07 1011.41 407.07 991.29 404.83"/>
    <g>
      <path class="st11" d="M1076.23,313.21s.72,7.16-3.19,12.41c-3.91,5.25-10.97,6.62-10.97,6.62,0,0-.72-7.16,3.19-12.41,3.91-5.25,10.97-6.62,10.97-6.62Z"/>
      <path class="st11" d="M1099.7,346.2s.72,7.16-3.19,12.41c-3.91,5.25-10.97,6.62-10.97,6.62,0,0-.72-7.16,3.19-12.41,3.91-5.25,10.98-6.62,10.98-6.62Z"/>
      <path class="st11" d="M1099.69,410.43s-1.73,6.98-7.18,10.61c-5.45,3.63-12.56,2.53-12.56,2.53,0,0,1.73-6.98,7.18-10.61,5.45-3.63,12.56-2.53,12.56-2.53Z"/>
      <path class="st11" d="M970.75,410.43s1.73,6.98,7.18,10.61c5.45,3.63,12.56,2.53,12.56,2.53,0,0-1.73-6.98-7.18-10.61-5.45-3.63-12.56-2.53-12.56-2.53Z"/>
      <path class="st11" d="M1072.58,383.77s.72,7.16-3.19,12.41c-3.91,5.25-10.97,6.62-10.97,6.62,0,0-.72-7.16,3.19-12.41,3.91-5.25,10.97-6.62,10.97-6.62Z"/>
      <path class="st11" d="M1066.49,277.33s.72,7.16-3.19,12.41c-3.91,5.25-10.97,6.62-10.97,6.62,0,0-.72-7.16,3.19-12.41,3.91-5.25,10.97-6.62,10.97-6.62Z"/>
      <path class="st11" d="M1052.51,304.7s.72,7.16-3.19,12.41c-3.91,5.25-10.98,6.62-10.98,6.62,0,0-.72-7.16,3.19-12.41,3.91-5.25,10.97-6.62,10.97-6.62Z"/>
      <path class="st11" d="M1085.72,284.77s.72,7.16-3.19,12.41c-3.91,5.25-10.97,6.62-10.97,6.62,0,0-.72-7.16,3.19-12.41,3.91-5.25,10.97-6.62,10.97-6.62Z"/>
      <path class="st11" d="M977.8,284.77s-.72,7.16,3.19,12.41c3.91,5.25,10.97,6.62,10.97,6.62,0,0,.72-7.16-3.19-12.41-3.91-5.25-10.97-6.62-10.97-6.62Z"/>
      <path class="st11" d="M1069.54,243.87s.72,7.16-3.19,12.41c-3.91,5.25-10.97,6.62-10.97,6.62,0,0-.72-7.16,3.19-12.41,3.91-5.25,10.97-6.62,10.97-6.62Z"/>
      <path class="st11" d="M1062.66,208.34s2.5,6.75.03,12.81c-2.47,6.07-8.96,9.16-8.96,9.16,0,0-2.5-6.75-.03-12.81,2.47-6.07,8.96-9.16,8.96-9.16Z"/>
      <path class="st11" d="M1013.4,199.05s6.37,3.34,8.6,9.5c2.23,6.16-.52,12.8-.52,12.8,0,0-6.37-3.34-8.61-9.5-2.23-6.16.52-12.8.52-12.8Z"/>
      <path class="st11" d="M1036.37,241.55s4.54,5.58,4.16,12.12c-.38,6.54-5.53,11.56-5.53,11.56,0,0-4.54-5.58-4.16-12.12.38-6.54,5.52-11.56,5.52-11.56Z"/>
      <path class="st11" d="M1035.16,178.29s4.54,5.58,4.16,12.12c-.38,6.54-5.53,11.56-5.53,11.56,0,0-4.54-5.58-4.16-12.12.38-6.54,5.53-11.56,5.53-11.56Z"/>
      <path class="st11" d="M983.6,313.21s-.72,7.16,3.19,12.41c3.91,5.25,10.97,6.62,10.97,6.62,0,0,.72-7.16-3.19-12.41-3.91-5.25-10.98-6.62-10.98-6.62Z"/>
      <path class="st11" d="M970.22,352.14s-.72,7.16,3.19,12.41c3.91,5.25,10.97,6.62,10.97,6.62,0,0,.72-7.16-3.19-12.41-3.91-5.25-10.97-6.62-10.97-6.62Z"/>
      <path class="st11" d="M1005.74,366.27s-.72,7.16,3.19,12.41c3.91,5.25,10.97,6.62,10.97,6.62,0,0,.72-7.16-3.19-12.41-3.91-5.25-10.97-6.62-10.97-6.62Z"/>
      <path class="st11" d="M1015.45,312.33s-2.74,6.65-.5,12.8c2.24,6.15,8.62,9.48,8.62,9.48,0,0,2.74-6.65.5-12.8-2.24-6.15-8.62-9.48-8.62-9.48Z"/>
      <path class="st11" d="M990.3,455.86s7.19.13,12.11-4.2c4.92-4.33,5.69-11.48,5.69-11.48,0,0-7.19-.13-12.11,4.2-4.92,4.33-5.69,11.48-5.69,11.48Z"/>
      <path class="st11" d="M1059.31,447.99s1.95,6.92,7.52,10.38c5.57,3.45,12.64,2.13,12.64,2.13,0,0-1.95-6.92-7.52-10.38-5.57-3.45-12.64-2.13-12.64-2.13Z"/>
      <path class="st11" d="M998.32,277.33s-.72,7.16,3.19,12.41c3.91,5.25,10.97,6.62,10.97,6.62,0,0,.72-7.16-3.19-12.41-3.91-5.25-10.97-6.62-10.97-6.62Z"/>
      <path class="st11" d="M998.2,245.7s-.72,7.16,3.19,12.41c3.91,5.25,10.97,6.62,10.97,6.62,0,0,.72-7.16-3.19-12.41-3.91-5.25-10.97-6.62-10.97-6.62Z"/>
    </g>
  </g>
  <g class="st13">
    <line class="st0" x1="510.19" y1="556.7" x2="1872.77" y2="556.7"/>
    <line class="st0" x1="510.19" y1="546.6" x2="1872.77" y2="546.6"/>
    <g>
      <rect class="st0" x="1296.04" y="775.54" width="34.8" height="13.4"/>
      <rect class="st0" x="1404.56" y="827.36" width="34.8" height="13.4"/>
      <rect class="st0" x="1219.41" y="595.96" width="34.8" height="13.4"/>
      <rect class="st0" x="1122.14" y="768.84" width="59.2" height="25.27"/>
      <rect class="st0" x="1129.24" y="731.44" width="34.33" height="17.18"/>
      <rect class="st0" x="1259.47" y="825.45" width="66.3" height="27.29"/>
      <rect class="st0" x="1362.65" y="757.55" width="66.3" height="27.29"/>
      <rect class="st0" x="1122.14" y="829.49" width="21.31" height="12.13"/>
      <rect class="st0" x="833.25" y="763.79" width="72.22" height="27.29"/>
      <rect class="st0" x="887.71" y="713.24" width="18.94" height="15.16"/>
      <rect class="st0" x="877.28" y="594.85" width="18.94" height="15.16"/>
      <rect class="st0" x="935.07" y="792.09" width="29.6" height="17.18"/>
      <rect class="st0" x="1031.61" y="833.84" width="47.36" height="17.18"/>
      <rect class="st0" x="1268.95" y="679.88" width="66.3" height="28.3"/>
      <rect class="st0" x="1399.21" y="691.01" width="34.8" height="13.4"/>
      <rect class="st0" x="1372.12" y="595.36" width="66.3" height="28.3"/>
      <rect class="st0" x="1745.86" y="775.54" width="34.8" height="13.4"/>
      <rect class="st0" x="1854.37" y="827.36" width="34.8" height="13.4"/>
      <rect class="st0" x="1669.23" y="595.96" width="34.8" height="13.4"/>
      <rect class="st0" x="1571.95" y="768.84" width="59.2" height="25.27"/>
      <rect class="st0" x="1579.06" y="731.44" width="34.33" height="17.18"/>
      <rect class="st0" x="1709.29" y="825.45" width="66.3" height="27.29"/>
      <rect class="st0" x="1812.46" y="757.55" width="66.3" height="27.29"/>
      <rect class="st0" x="1511.41" y="656.47" width="34.8" height="13.4"/>
      <rect class="st0" x="1578.02" y="638.49" width="66.3" height="27.29"/>
      <rect class="st0" x="1010.46" y="633.32" width="34.8" height="13.4"/>
      <rect class="st0" x="1077.07" y="615.33" width="66.3" height="27.29"/>
      <rect class="st0" x="1571.95" y="829.49" width="21.31" height="12.13"/>
      <rect class="st0" x="1481.42" y="833.84" width="47.36" height="17.18"/>
      <rect class="st0" x="977.67" y="891.6" width="34.8" height="13.4" transform="translate(1990.14 1796.6) rotate(180)"/>
      <rect class="st0" x="1091.25" y="889.68" width="66.3" height="27.29" transform="translate(2248.81 1806.66) rotate(180)"/>
      <rect class="st0" x="1273.58" y="893.73" width="21.31" height="12.13" transform="translate(2568.48 1799.59) rotate(180)"/>
      <rect class="st0" x="1452.36" y="856.33" width="29.6" height="17.18" transform="translate(2934.32 1729.84) rotate(180)"/>
      <rect class="st0" x="1859.58" y="867.03" width="29.6" height="17.18" transform="translate(3748.76 1751.25) rotate(180)"/>
      <rect class="st0" x="1704.54" y="870.48" width="88.8" height="36.39" transform="translate(3497.88 1777.35) rotate(180)"/>
      <rect class="st0" x="1338.07" y="898.07" width="47.36" height="17.18" transform="translate(2723.49 1813.33) rotate(180)"/>
      <rect class="st0" x="1799.26" y="876.54" width="37.89" height="20.22" transform="translate(3636.4 1773.3) rotate(180)"/>
      <rect class="st0" x="823.76" y="893.73" width="21.31" height="12.13" transform="translate(1668.84 1799.59) rotate(180)"/>
      <rect class="st0" x="888.25" y="898.07" width="47.36" height="17.18" transform="translate(1823.85 1813.33) rotate(180)"/>
      <rect class="st0" x="1718.76" y="679.88" width="66.3" height="28.3"/>
      <rect class="st0" x="1849.03" y="691.01" width="34.8" height="13.4"/>
      <rect class="st0" x="1821.94" y="595.36" width="66.3" height="28.3"/>
    </g>
  </g>
  <g>
    <g>
      <path class="st6" d="M1577.41,98.88s-8-22.84-9.44-24.84c-1.44-1.99,1.44-4.56,1.44-4.56,0,0-.65-1.31.41-3.98,1.06-2.67,6.13-.47,6.13-.47,0,0,2.45-3.05,10.48,4.6,8.04,7.64,12.24,18.71,12.24,18.71l10.35,15.06.2-3.63s-.45-4.94.81-7.96,4.49-5.39,6.86-5.44c2.37-.05-.11,8.37-.11,8.37,0,0,2.59,13.89,3.24,18.48.65,4.59-2.91,14.49-4.27,16.05-1.36,1.56-6.01,16.23-6.01,16.23,0,0-1.01,1.76-1.04,7.13-.03,5.37,8.32,68.92,5.24,78.4l24.95,48.89,7.97,9.58.19,65.41-3.71,14.85-16.34-42.32s-44.51-64.57-45.99-70.51c-.99-3.95-2.76-13.28-2.21-24.5,1.53-24.41,4.84-67.99,5.2-69.8.38-1.89,4.28-29.16,4.28-29.16,0,0-4.68-10.64-7.17-16.52-2.49-5.87-3.72-18.05-3.72-18.05Z"/>
      <line class="st3" x1="1609.02" y1="103.39" x2="1606.52" y2="110.62"/>
      <path class="st3" d="M1602.39,109.66s-2.02,6.8,1.05,13.71c3.07,6.91,4.66,6.18,4.66,6.18"/>
      <path class="st6" d="M1577.34,95.32s-1.2-10.99-1.22-15.45c-.02-4.46,3.35-3,3.98.41.63,3.4,2.91,19.46,2.86,20.37-.05.91,2.49,5.87,2.49,5.87,0,0,6.2,6.36,7.03,9.41"/>
      <line class="st3" x1="1569.42" y1="69.48" x2="1576.12" y2="79.87"/>
      <path class="st3" d="M1575.95,65.02s6.72,8.3,9.27,13.27c2.54,4.97,7.15,12.05,7.15,12.05"/>
      <line class="st3" x1="1581.25" y1="85.62" x2="1586.24" y2="94.09"/>
      <line class="st3" x1="1595.04" y1="88.13" x2="1584.98" y2="97.12"/>
    </g>
    <path class="st1" d="M1611.24,870.08c0-2.42,6.78-97.41,6.78-98.86s.48-12.12.97-15.99c.48-3.88.97-11.63.97-13.08s1.45-66.39,1.45-99.83,5.33-81.41,7.27-89.65c1.94-8.24,2.91-11.63,2.91-11.63l130.84-.48,7.73,4.45,25.23,191.82s16.96,40.22,17.93,52.34c.97,12.12,9.69,121.15,9.69,121.15,0,0,1.24,2.12,3.16,5.35l-21.48,6.91c-.35-2.85-.58-4.99-.58-4.99l-.97-11.63s-34.41-78.02-39.74-95.95c-5.33-17.93-16.48-62.51-16.48-62.51l-43.61-132.3-36.35,157.5s4.85,21.32.97,37.32c-3.88,15.99-29.08,84.81-31.98,94.98-2.91,10.18-3.88,12.12-3.88,14.54s-1.94,15.02-3.88,16.48c-1.94,1.45-15.99,3.88-18.42.48-2.42-3.39-5.82-11.15-5.82-11.15,0,0,7.27-52.82,7.27-55.25Z"/>
    <g>
      <path class="st6" d="M1804.12,917.57l-.97-11.63s-7.79-17.66-16.52-38.1l32.31-8.58c2.15,26.85,4.08,51.04,4.08,51.04,0,0,1.24,2.12,3.16,5.35l-21.48,6.91c-.35-2.85-.58-4.99-.58-4.99Z"/>
      <path class="st6" d="M1635.96,904.97c-2.91,10.18-3.88,12.12-3.88,14.54s-1.94,15.02-3.88,16.48c-1.94,1.45-15.99,3.88-18.42.48-2.42-3.39-5.82-11.15-5.82-11.15,0,0,7.27-52.82,7.27-55.25,0-.25.07-1.52.21-3.58l34.27,9.91c-4.78,13.64-8.72,24.9-9.76,28.56Z"/>
    </g>
    <path class="st6" d="M1603.49,918.54s4.36.97,6.3,4.36c1.94,3.39,2.91,6.3,2.91,6.3,0,0,6.3,2.91,12.12,1.45,5.82-1.45,11.63-5.33,12.6-2.42.97,2.91,0,20.84,0,24.71s-1.45,6.3-8.24,7.75c-6.78,1.45-13.57.48-16.96.97-3.39.48-14.54,6.78-22.29,6.78s-19.87,2.42-26.65-2.42c-6.78-4.85-10.66-5.33-4.36-10.66,6.3-5.33,19.38-7.27,21.81-8.72,2.42-1.45,14.54-15.51,16.48-16.96,1.94-1.45,6.3-11.15,6.3-11.15Z"/>
    <path class="st6" d="M1804.69,922.56s2.82-13.23,10.57-12.74c7.75.48,14.54,5.33,16.48,9.69,1.94,4.36,3.88,7.27,3.88,7.27,0,0,16.48,21.32,18.42,31.5,1.94,10.18-2.91,16.48-10.66,19.38-7.75,2.91-18.42-2.91-24.23-8.24-5.82-5.33-6.05-23.52-11.15-30.05-4.93-6.32-8.42-13.17-6.78-20.35,1.2-5.28,3.48,3.54,3.48,3.54Z"/>
    <path class="st7" d="M1742.88,350.87s42.5,19.41,44.6,24.13c2.1,4.72,14.17,57.71,14.17,57.71l-48.79,7.87-6.82,40.4,24.13,64.01s-42.5,22.04-78.17,19.94c-35.68-2.1-64.53-23.61-64.53-23.61,0,0,8.39-67.68,8.39-70.83s-4.72-47.22-4.2-54.56,9.97-67.16,9.97-67.16l5.25-59.29s15.74,13.64,21.51,18.89c5.77,5.25,8.92,9.97,8.92,9.97l13.64,7.35,51.94,25.18Z"/>
    <line class="st3" x1="1641.57" y1="352.29" x2="1661.66" y2="317.02"/>
    <line class="st3" x1="1641.63" y1="348.77" x2="1653.46" y2="314.97"/>
    <line class="st3" x1="1762.32" y1="403.59" x2="1753.9" y2="435.86"/>
    <line class="st3" x1="1766.49" y1="387.59" x2="1764.03" y2="397.05"/>
    <line class="st3" x1="1775.41" y1="399.66" x2="1760.2" y2="419.6"/>
    <path class="st1" d="M1664.16,284.67s-13.16-1.75-24.12-10.53c-10.96-8.77-14.47-28.51-4.82-39.91,9.65-11.4,17.98-11.4,17.98-11.4,0,0,16.66-20.17,43.86-18.42,27.19,1.75,43.42,27.19,43.86,35.08s.44,15.79.44,15.79c0,0,11.4,6.58,13.16,18.42,1.75,11.84-4.82,28.51-22.8,33.77-17.98,5.26-27.63,2.19-27.63,2.19l-39.91-25Z"/>
    <path class="st7" d="M1722.83,327.38s.61.27,1.61.73c4.72,2.16,18.26,8.48,18.69,10.2.52,2.08,5.99,12.75,5.21,16.92-.78,4.16-3.38,21.6-7.03,17.44-3.64-4.16-14.83-11.71-14.83-11.71,0,0-3.12,7.29-6.51,8.85-3.38,1.56-22.92,9.15-22.92,9.15,0,0-15.08-13.58-15.86-15.92-.78-2.34-2.08-9.11-2.08-9.11,0,0-9.89,7.03-11.45,9.89-1.56,2.86-3.64-1.3-3.9-2.86-.26-1.56,2.34-27.33,4.68-31.49,2.34-4.16,19.78-8.07,19.78-8.07l34.61,5.99Z"/>
    <path class="st3" d="M1740,339.61s-7.81,12.49-11.71,16.92"/>
    <path class="st6" d="M1721.17,295.19s6.58,46.92,3.95,53.94c-2.63,7.02-24.12,30.26-28.07,29.82-3.95-.44-14.03-29.82-15.79-35.96-1.75-6.14-3.51-29.82-3.51-29.82l43.42-17.98Z"/>
    <polygon class="st1" points="1698.44 316.89 1724.43 328.11 1721.65 298.54 1698.44 316.89"/>
    <g>
      <path class="st6" d="M1705.38,231.16s3.95,11.4,7.46,20.61c3.51,9.21,8.33,12.28,8.33,12.28l2.63,7.46s3.95-7.46,8.33-7.02c4.39.44,10.09,7.46,6.58,14.91-3.51,7.46-11.4,9.21-11.4,9.21,0,0-3.07,10.96-6.58,17.1-3.51,6.14-19.73,15.79-26.75,16.23-7.02.44-25-8.77-29.38-21.05-4.39-12.28-5.26-29.38-5.26-29.38l-3.51-15.35s14.03-5.26,23.68-10.96c9.65-5.7,25.87-14.03,25.87-14.03Z"/>
      <path class="st3" d="M1704.06,282.47s-7.02,11.84-20.61,9.65c0,0,13.6,7.89,17.54,3.07,3.95-4.82,3.07-12.72,3.07-12.72Z"/>
      <path class="st3" d="M1689.15,277.21s-5.26,3.07-7.89-1.32"/>
      <ellipse class="st8" cx="1697.71" cy="263.4" rx="3.29" ry="4.6"/>
      <path class="st8" d="M1668.31,272.64c.88,2.39,2.97,3.81,4.68,3.19,1.7-.63,2.37-3.07,1.5-5.46-.88-2.39-2.97-3.81-4.68-3.19-1.7.63-2.37,3.07-1.5,5.46Z"/>
      <path class="st3" d="M1706.26,251.77s-10.09-5.26-17.1,3.07"/>
      <path class="st3" d="M1675.56,257.91s-10.96-1.75-14.47,7.46"/>
    </g>
    <path class="st3" d="M1694.62,386.54s-13.12,38.3-13.12,43.02-4.2,89.19-4.2,89.19"/>
    <line class="st6" x1="1676.78" y1="526.63" x2="1677.3" y2="550.24"/>
    <path class="st6" d="M1788.27,434.89l2.88,55.53s5.77,18.36,4.72,29.91c-1.05,11.54-3.37,112.52-3.37,112.52,0,0,19.94,16.79,19.94,18.89s-5.25,12.59-9.44,14.17c-4.2,1.57-11.54-3.15-14.69-5.25-3.15-2.1-7.87-12.59-7.87-12.59,0,0-3.15-10.49-3.67-14.69-.52-4.2,0-11.02,0-11.02,0,0-18.14-122.49-17.62-134.03.52-11.54-6.3-47.74-6.3-47.74l35.42-5.69Z"/>
    <path class="st6" d="M1792.08,645.2l4.71,8.84s9.11,6.99,7.66,9.43c-1.45,2.44-4.71,1.47-7.07,0-2.36-1.47-6.19-5.3-6.19-5.3,0,0-5.3-.29-7.07-2.95s-3.24-10.9-3.24-10.9"/>
  </g>
  <g>
    <path class="st5" d="M1307.01,515.23s13.02,56.26,15.11,63.03c2.08,6.77,4.17,11.46,4.17,11.46l4.17,7.81,13.02-27.61-6.25-54.18-30.21-.52Z"/>
    <g>
      <path class="st7" d="M1330.54,352.82s-8.84,6.86-11.07,16.53c-2.23,9.67-20.82,99.64-20.08,104.85s2.97,20.82,2.97,20.82l34.95,3.72s-.91-143.11-6.77-145.91Z"/>
      <path class="st3" d="M1304.94,464.89s12.3-2.46,19.68,6.56"/>
      <path class="st3" d="M1313.97,456.69s8.2,2.46,11.48,4.92"/>
    </g>
    <path class="st7" d="M1344,493.88s-43.76-7.29-45.32-4.17c-1.56,3.13-1.04,25.52,2.08,27.61,3.13,2.08,44.28,5.21,44.28,5.21l-1.04-28.65Z"/>
    <g>
      <path class="st5" d="M1572.09,256.58s.46-15.38-.3-17.3c-.77-1.92-.85-12.45,1.28-16.56,2.13-4.11,9.17-16.37,9.17-16.37,0,0,.45-8.76,2.67-7.93s4.48,4.13,4.67,7.4c.19,3.27-1.87,7.79-1.87,7.79l-1.01,3.49,14.75-10.79s7.63-9.06,17.74-13.61c10.11-4.56,11.41-.87,11.41-.87,0,0,5.51-.4,5.62,2.47.12,2.87-.93,3.89-.93,3.89,0,0,1.86,3.38-.15,4.78-2.01,1.41-17.12,20.32-17.12,20.32,0,0-5.18,11.08-9.48,15.81-4.29,4.72-12.23,13.21-12.23,13.21,0,0-5.34,27.03-5.61,28.94-.27,1.91-4.92,47.2-13.39,59.51-8.47,12.31-22.76,18.88-27.4,14.98-4.65-3.89-10.3-9.88-10.07-19.84.23-9.96,29.13-67.18,30.87-72.25s1.38-7.07,1.38-7.07Z"/>
      <line class="st3" x1="1586.7" y1="217.09" x2="1586.67" y2="224.75"/>
      <path class="st3" d="M1590.88,225.21s-.34,7.09-5.53,12.59c-5.18,5.5-6.44,4.29-6.44,4.29"/>
      <path class="st5" d="M1619.26,219.96s4.77-9.97,6.27-14.18c1.5-4.2-2.17-3.94-3.89-.93-1.72,3-9.18,17.4-9.44,18.28-.25.87-4.29,4.72-4.29,4.72,0,0-7.95,3.95-9.74,6.55"/>
      <line class="st3" x1="1635.29" y1="198.19" x2="1625.53" y2="205.78"/>
      <path class="st3" d="M1630.6,191.83s-9.09,5.61-13.13,9.45c-4.04,3.85-10.73,9.01-10.73,9.01"/>
      <line class="st3" x1="1618.78" y1="209.51" x2="1611.27" y2="215.86"/>
      <line class="st3" x1="1604.94" y1="207.32" x2="1611.46" y2="219.13"/>
    </g>
    <path class="st1" d="M1368.99,906.65l-9.64,18.75s-28.92,17.14-33.21,19.82c-4.29,2.68-.54,8.03-.54,8.03,1.61,2.14,33.75,3.21,42.32,3.21h25.18s17.68,1.07,19.28.54c1.61-.54,6.43-4.29,7.5-7.5,1.07-3.21-.54-37.49-.54-37.49l-50.35-5.36Z"/>
    <path class="st1" d="M1423.63,913.61s-11.25,18.75-12.32,20.35c-1.07,1.61-19.82,16.61-21.96,20.89-2.14,4.29-.54,10.18,8.03,11.25,8.57,1.07,36.96-1.07,46.6-1.61,9.64-.54,19.28-2.68,21.43-5.36,2.14-2.68,2.68-11.25,2.14-14.46-.54-3.21-2.14-25.18-2.14-26.78s-41.78-4.29-41.78-4.29Z"/>
    <g>
      <path class="st1" d="M1335.75,565.82s-12.76,24.81-12.05,37.57c.71,12.76,9.93,24.81,9.93,24.81l5.67,116.98,13.79,85.78,11.27,56.97-7.09,3.54,5.85,19.46s20.39,3.94,24.64,5.36c4.25,1.42,18.21,3.75,18.21,3.75,0,0,15.9-4,18.02-3.29,2.13.71,29.78,7.09,34.74,5.67s11.34-5.67,11.34-5.67c0,0,6.38-12.76,7.09-19.14.71-6.38-5.67-23.4-5.67-23.4l-.71-14.89s8.19-80.11,8.19-97.83-2.13-24.1-2.13-35.45-4.25-124.07-4.25-124.07l2.13-29.78-44.66-18.43-94.29,12.05Z"/>
      <polyline class="st4" points="1410.16 880.04 1408.12 897.38 1403.02 905.54 1405.95 920.04 1402 938.18"/>
      <polyline class="st4" points="1378.54 627.07 1387.72 646.45 1404.04 778.04 1409.24 864.8"/>
      <path class="st4" d="M1444.14,842.64c3.97,6.37,8.07,12.08,11.92,15.98"/>
      <path class="st4" d="M1421.38,798.44s8.52,19.72,18.76,37.51"/>
      <path class="st4" d="M1414.24,763.76s15.3,33.66,26.52,45.9"/>
      <path class="st4" d="M1395.88,896.36s-24.48-32.64-35.7-61.2"/>
    </g>
    <path class="st7" d="M1540.32,324.18l-9.28,16.54s-3.23-2.02-4.84-.81c-1.61,1.21-2.82,4.84-2.82,4.84l-32.68-3.63-42.76-7.26-31.47-2.42-36.71,2.82s-45.18,14.12-49.22,18.56c-4.03,4.44-6.86,44.78-5.24,62.13,1.61,17.35,2.42,71,2.42,71l2.04,62.01-1.03,5.51-5.74,9.02,1.64,10.66s12.3,2.46,16.4,5.74c3.24,2.59,15.17,8.25,20.04,10.51,10.33,6.79,23.88,14.12,40.48,9.51,21.78-6.05,53.47-16.74,53.47-16.74l23.98.2,2.82,1.61s-3.23-25.82-6.45-40.74c-3.23-14.93-6.45-31.47-6.45-31.47l.81-37.52,12.91-81.89s71.4-2.82,75.84-2.82,10.89-8.07,10.89-8.07l10.89-43.57-39.94-13.72Z"/>
    <path class="st3" d="M1379.94,540.35c-.16,3.23-.29,5.99-.37,8.18-.82,22.14-3.28,39.36-3.28,39.36"/>
    <path class="st3" d="M1389.41,390.27s-6.26,92.35-8.85,138.46"/>
    <path class="st3" d="M1434.11,472.89c-6.18,12.28-11.34,22.21-13.53,25.62"/>
    <path class="st3" d="M1468.96,401.75s-17.26,35.9-31.4,64.25"/>
    <path class="st3" d="M1428.77,465.71s-28.7,41-32.8,44.28"/>
    <path class="st3" d="M1482.63,392.35s8.07-28.64,8.07-30.26"/>
    <line class="st3" x1="1500.38" y1="355.24" x2="1491.5" y2="381.46"/>
    <path class="st3" d="M1531.04,343.54s4.44,22.99,9.28,27.03"/>
    <line class="st3" x1="1523.37" y1="347.58" x2="1524.58" y2="356.85"/>
    <path class="st7" d="M1544.35,302.39s-9.68,23.4-8.88,25.01c.81,1.61,45.18,17.35,45.18,17.35l7.26-24.61-43.57-17.75Z"/>
    <path class="st7" d="M1382.99,329.02s-7.66-1.21-10.09,5.24c-2.42,6.45-4.03,29.45-4.44,34.69l-.4,5.24,20.57-8.47,12.91-.4,17.35,16.54s12.51-22.19,12.1-37.11c-.4-14.93-8.88-19.36-12.1-19.77-3.23-.4-35.9,4.03-35.9,4.03Z"/>
    <path class="st5" d="M1380.16,312.48s-.4,43.16.81,52.85c1.21,9.68,8.87,16.14,11.3,14.93,2.42-1.21,18.15-19.77,22.19-28.64,4.03-8.88,6.45-21.78,6.45-21.78l2.42-22.19-43.16,4.84Z"/>
    <polygon class="st1" points="1399.61 320.16 1380.58 337.15 1380.24 307.93 1399.61 320.16"/>
    <g>
      <path class="st5" d="M1367.09,266.36s-.27,27.96,1.86,32.49c2.13,4.53,14.12,19.34,17.32,22,3.2,2.66,14.11,4.26,18.91,2.93s22.36-16.68,24.75-19.6c2.4-2.93,4.79-10.38,4.79-10.38,0,0,11.18-6.92,13.58-12.52,2.4-5.59,1.94-10.93-.8-13.85-2.74-2.92-5.86-2.93-5.86-2.93,0,0,0-14.11-1.33-19.17-1.33-5.06-11.45-11.45-16.24-11.45s-56.98,13.85-57.78,17.57l-.8,3.73,1.6,11.18Z"/>
      <path class="st5" d="M1366.02,257.57s-7.19,1.6-7.99,6.92c-.8,5.33,6.92,16.51,7.99,18.37s2.13,3.73,2.13,3.73l.27-27.43s-.8-2.4-2.4-1.6Z"/>
      <path class="st1" d="M1366.06,240.63s-11.5,12.38-12.82,4.42c-1.33-7.96,13.26-22.99,13.26-22.99,0,0-7.96-.44-.44-7.96,7.52-7.52,31.39-14.59,49.96-13.27,18.57,1.33,27.86,15.92,32.72,23.43,4.86,7.52,3.54,20.34.88,25.2-2.65,4.86-3.98,7.07-4.42,9.29-.44,2.21-.44,5.75-.44,5.75,0,0-2.65,10.17-5.75,9.29-3.1-.88-3.1-4.86-1.33-7.52,1.77-2.65-3.54-5.75-7.52-14.15-3.98-8.4-3.98-11.94-3.98-11.94,0,0-22.11,12.38-33.16,12.38s-15.48,1.77-15.48,1.77c0,0-2.21,6.19-5.31,8.4-3.1,2.21-5.75,5.31-5.75,5.31,0,0-8.4-12.38-.44-27.41Z"/>
      <path class="st8" d="M1391.85,272.22c0,2.35-1.13,4.26-2.53,4.26s-2.53-1.91-2.53-4.26,1.13-4.26,2.53-4.26,2.53,1.91,2.53,4.26Z"/>
      <path class="st8" d="M1414.07,274.86c-.23,2.34-1.55,4.13-2.94,3.99-1.39-.14-2.33-2.15-2.1-4.49.23-2.34,1.55-4.13,2.94-3.99s2.33,2.15,2.1,4.49Z"/>
      <path class="st3" d="M1380.4,263.16s8.25-4.53,14.38,0"/>
      <path class="st3" d="M1406.23,263.96s8.52-5.06,15.18,3.73"/>
      <path class="st3" d="M1393.18,287.39s.27,2.93,5.86,4.26c5.59,1.33,7.99-2.13,7.99-2.13"/>
      <path class="st3" d="M1385.19,295.38s8.52,7.19,14.91,6.66c6.39-.53,11.98-4.26,11.98-4.26"/>
    </g>
  </g>
  <g>
    <g>
      <path class="st6" d="M1279.06,436.25l3.69,33.19s7.9,25.81,10.01,39.51c2.11,13.7,11.06,65.85,11.06,65.85,0,0,21.07,11.59,22.13,14.22,1.05,2.63-3.69,15.28-4.74,16.86-1.05,1.58-26.34-5.79-30.55-8.96-4.21-3.16-6.85-21.6-6.85-21.6,0,0-24.23-61.64-26.87-73.22-2.63-11.59-8.96-61.64-8.96-61.64l31.08-4.21Z"/>
      <path class="st6" d="M1301.71,586.92l8.43,5.27,4.74,9.48s5.27,7.38.53,7.38-8.43-6.32-8.43-6.32c0,0-17.91-3.16-16.33-5.79"/>
    </g>
    <path class="st1" d="M1104.05,526.78s-7.81,26.44-7.81,61.29,21.03,128.59,21.03,128.59c0,0-.6,23.43-1.8,43.26-1.2,19.83-2.4,42.66,3,64.3,5.41,21.63,16.82,78.72,16.82,78.72,0,0-4.21,4.81-4.21,9.01s2.4,15.62,2.4,15.62c0,0-19.83,15.62-22.23,18.03-2.4,2.4-5.41,7.21,0,10.22,5.41,3,62.49,0,62.49,0,0,0,4.21-4.21,3.61-9.61-.6-5.41-6.61-22.23-6.61-22.23,0,0,2.4-13.82,2.4-17.43s-4.81-23.43-4.81-23.43c0,0-1.2-113.57,0-122.58,1.2-9.01,3.61-70.3,3.61-70.3l4.81-108.16,15.62,109.96s-.6,19.23,2.4,26.44c3,7.21,27.04,103.35,30.04,121.38,3,18.03,9.61,57.08,9.61,57.08l-3,15.02s2.4,9.61,3,11.42c.6,1.8-.6,31.85,1.8,31.85h43.26s3.61,2.4,3-6.01c-.6-8.41-20.43-38.46-20.43-38.46,0,0-.6-12.02-.6-16.82s-1.2-13.22-1.2-13.22c0,0,6.01-69.1,0-101.55-6.01-32.45-16.22-86.53-16.22-86.53,0,0,15.02-85.93,14.42-117.17-.6-31.25-1.64-38.43-1.64-38.43l-152.79-10.24Z"/>
    <path class="st6" d="M1114.41,474.17l-15.37,59.23s32.55,14.47,77.77,15.83c45.21,1.36,80.03-12.21,80.03-12.21l-10.85-54.26-7.69-131.12-74.6-17.18-49.28,139.71Z"/>
    <polygon class="st7" points="1214.93 372.35 1210.14 393.68 1221.46 497.7 1265.42 491.18 1259.32 445.47 1290.66 439.38 1265.42 353.64 1219.72 340.14 1214.93 372.35"/>
    <line class="st3" x1="1249.56" y1="397.97" x2="1246.27" y2="381.93"/>
    <line class="st3" x1="1259.32" y1="445.47" x2="1251.24" y2="406.12"/>
    <g>
      <path class="st6" d="M1133.73,166.16c-3.84,1.2-9.79,8.59-9.79,8.59,0,0,4.72-18.73,5.4-23.06.68-4.33.74-5.75-.15-6.58,0,0,0-5.07-1.19-5.76-1.19-.69-3.4-.57-3.4-.57,0,0-2.28-3.52-4.48-2.19-2.2,1.34-4.68,5.95-4.68,5.95,0,0-3.49,1.57-4.96,4.15-1.47,2.58-11.78,20.15-14.18,26.48-2.41,6.33-3.24,19.29-3.24,19.29l-24.35,40.76c-12.84,21.49-23.12,44.42-30.63,68.3l-3.44,10.94,53.21,30.03,8.27-37.16-18.28-11.31,25.29-87.98s16.51-3.47,18.94-8.58c2.43-5.11,5.12-14.71,6.34-16.66,1.22-1.95,8.79-8.49,10.38-10.78,1.6-2.29-1.22-5.05-5.05-3.86Z"/>
      <path class="st3" d="M1115.43,142.54s2.26,2.31-.06,6.5-6.78,13.36-6.78,13.36l-4.44,10.39"/>
      <path class="st3" d="M1124.59,138.78s.04,2.43-1.26,4.59-7.2,18.27-7.2,18.27l-3.45,9.07"/>
      <path class="st3" d="M1129.18,145.12s-2.43,10.18-5.94,15.61c-3.51,5.42-4.21,11.68-4.21,11.68"/>
      <line class="st3" x1="1122.92" y1="176.78" x2="1119.35" y2="183.63"/>
      <path class="st3" d="M1108.15,178.16s-.81,9.11-2.53,14.25c-1.72,5.14-8.22,7.01-8.22,7.01"/>
    </g>
    <path class="st7" d="M1174.45,366.26s3.92,16.54,3.05,21.76c-.87,5.22-42.22,104.02-42.22,104.02l-52.23-26.55,32.21-95.75-36.56-17.85,17.41-46.57s38.3,10.88,40.91,12.19c2.61,1.31,39.17,12.62,39.17,12.62l-1.74,36.13Z"/>
    <path class="st1" d="M1180.98,207.39c.87-1.31-16.54,11.75-20.89,23.07s-2.61,30.9-2.18,32.64c.44,1.74-13.06,27.86-13.06,27.86,0,0,1.31,3.05,4.35,6.09,3.05,3.05,7.4,6.96,7.4,6.96l5.66-5.22-.44,8.27s6.96,3.05,10.88,4.35,26.55,9.14,39.17,9.58c12.62.44,15.67.44,15.67.44l6.96-4.79v7.83s9.58,0,13.49-.44c3.92-.44,10.01-3.48,10.01-3.48,0,0-1.31-15.67,0-23.94s4.35-20.89,4.35-20.89c0,0,11.75-19.15,4.35-42.22-7.4-23.07-26.99-30.9-48.31-33.95-21.33-3.05-37.43,7.83-37.43,7.83Z"/>
    <path class="st6" d="M1183.16,304.45s-10.45,41.78-8.7,49.62c1.74,7.83,14.36,16.1,22.2,15.67,7.83-.44,18.72-7.4,20.46-13.49,1.74-6.09,5.22-44.4,5.22-44.4l-39.17-7.4Z"/>
    <polygon class="st1" points="1198.22 322.88 1177.93 325.78 1183.16 304.45 1198.22 322.88"/>
    <g>
      <path class="st6" d="M1178.8,252.66s22.2-.44,37.43-7.4c15.23-6.96,17.41-7.83,17.41-7.83,0,0,3.05,13.06,6.09,21.33,3.05,8.27,6.09,10.88,6.09,10.88l-2.18,9.14s5.66-6.96,8.7-3.05c3.05,3.92.87,13.93-2.61,17.85-3.48,3.92-10.88,5.22-10.88,5.22,0,0-2.18,7.4-3.92,10.45-1.74,3.05-29.75,18.44-37,16.1-10.02-3.23-27.42-29.16-27.86-35.26-.44-6.09,2.18-13.49,2.18-13.49,0,0-8.7-14.36-6.53-20.89,2.18-6.53,6.96-6.96,10.45,1.31l2.18,3.05.44-7.4Z"/>
      <path class="st8" d="M1198.35,268.6c-.48,2.97-2.21,5.15-3.88,4.88-1.66-.27-2.62-2.89-2.14-5.86.48-2.97,2.21-5.15,3.88-4.88,1.66.27,2.62,2.89,2.14,5.86Z"/>
      <path class="st8" d="M1225.67,276.49c-.9,2.87-2.92,4.79-4.53,4.29-1.61-.5-2.18-3.23-1.29-6.1.9-2.87,2.92-4.79,4.53-4.29s2.18,3.23,1.29,6.1Z"/>
      <path class="st3" d="M1200.13,286.61s5.22,3.48,9.58,2.18"/>
      <path class="st3" d="M1191.43,293.14s8.7,9.14,23.5,5.22"/>
      <path class="st3" d="M1189.68,256.14s9.14-2.61,14.8,2.61"/>
      <path class="st3" d="M1219.72,262.67s9.58-2.61,14.8,6.96"/>
    </g>
    <path class="st7" d="M1177.93,325.78s-9.58-1.74-10.88,1.31c-1.31,3.05-10.45,29.16-10.45,29.16l12.19-3.48,5.66,13.49v-12.19l3.48-28.29Z"/>
    <line class="st3" x1="1115.26" y1="369.74" x2="1126.14" y2="332.31"/>
    <line class="st3" x1="1115.96" y1="333.05" x2="1117" y2="319.25"/>
    <line class="st3" x1="1113.95" y1="359.73" x2="1115.53" y2="338.81"/>
    <path class="st7" d="M1220.15,333.62s3.05,0,5.66,2.18c2.61,2.18,4.35,6.96,4.35,6.96l-.44,27.42-7.4-9.58-7.4,11.75,5.22-38.74Z"/>
  </g>
  <g>
    <path class="st1" d="M875.33,532.83v221.62s-8.5,38.24-7.08,47.44c1.42,9.2,9.2,102.67,9.2,102.67,0,0-6.37,6.37-6.37,8.5v5.66s-23.37,19.83-24.07,24.07c-.71,4.25,1.42,9.2,4.96,9.91,3.54.71,70.1,0,70.1,0,0,0,.71-4.25.71-12.74s-4.96-30.45-4.96-30.45l2.12-18.41s-2.83-7.79-2.83-12.04,15.58-201.09,15.58-201.09l14.87-86.38,54.52,285.35-1.42,16.99,9.91,26.91s-1.42,30.45,1.42,31.86c2.83,1.42,64.43,0,64.43,0,0,0,8.5-4.96,7.08-9.91-1.42-4.96-26.91-18.41-26.91-18.41l-11.33-14.16,2.12-20.53-5.66-21.24-14.87-212.42-3.54-100.54-9.91-36.11-138.07,13.45Z"/>
    <polygon class="st6" points="923.62 308.12 902.91 306.94 877.47 548.92 982.19 533.54 981.6 312.26 923.62 308.12"/>
    <g>
      <path class="st5" d="M760.51,257.18l16.47-75.43s1.3-11.7,1.73-14.31c.43-2.6,20.37-26.88,20.37-26.88h3.9s7.37-6.07,8.67-6.07,6.07.43,8.24,5.2c2.17,4.77-4.34,29.48-4.34,29.48,0,0,9.1-3.47,9.97-.43.87,3.03-10.4,12.57-11.27,13.87-.87,1.3-3.03,8.24-5.2,10.4s-14.31,3.03-14.31,3.03l-2.17,65.03-32.08-3.9Z"/>
      <path class="st3" d="M815.57,169.18l-6.94,6.07s-12.14,2.6-13.01,4.34c-.87,1.73-3.03,6.94-3.03,6.94"/>
      <line class="st3" x1="790.42" y1="159.21" x2="809.93" y2="169.18"/>
      <line class="st3" x1="802.99" y1="140.57" x2="795.19" y2="157.47"/>
      <line class="st3" x1="815.13" y1="135.8" x2="802.99" y2="161.81"/>
      <line class="st3" x1="820.77" y1="143.6" x2="810.36" y2="163.98"/>
    </g>
    <path class="st7" d="M915.71,301.83l-29.91,266.17-45.95-22.98,12.14-181.21s-91.9-37.28-92.34-38.58-1.3-61.56-1.3-61.56l36.41,4.77,7.37,33.38,51.15-2.17,62.42,2.17Z"/>
    <path class="st3" d="M893.57,413.03c.62,21.67,1.87,38.36,1.87,38.36"/>
    <path class="st3" d="M902.91,306.94s-6.52,14.78-8.89,54.2c-.82,13.58-.9,28.5-.66,42.24"/>
    <line class="st3" x1="851.98" y1="363.82" x2="850.25" y2="308.33"/>
    <line class="st3" x1="850.68" y1="356.02" x2="838.98" y2="309.63"/>
    <line class="st3" x1="836.04" y1="328.75" x2="842.88" y2="341.28"/>
    <line class="st3" x1="824.67" y1="307.9" x2="834.42" y2="325.77"/>
    <polygon class="st7" points="755.74 254.58 756.18 277.55 799.09 280.59 795.62 258.48 755.74 254.58"/>
    <path class="st7" d="M963.83,303.13s3-.42,3.13,16.92c.44,58.7-1.34,199.32.34,202,2.17,3.47,15.61,27.74,18.64,27.31,3.03-.43,30.35-48.99,31.21-50.29.87-1.3-11.27-81.93-11.27-81.93,0,0,11.27-106.64,9.54-107.51s-51.59-6.5-51.59-6.5Z"/>
    <path class="st3" d="M979.28,321.6c1.19,9.5,2.61,23.87,3.56,43.34,1.9,38.95-13.78,81.7-13.78,81.7"/>
    <path class="st3" d="M977.14,307.46s.6,2.95,1.45,8.96"/>
    <path class="st5" d="M1026.68,466.13s-32.51,67.63-32.95,69.79c-.43,2.17-.43,10.4-.43,10.4l22.11,11.27-.87-21.68,42.92-57.66-30.78-12.14Z"/>
    <path class="st7" d="M1015.41,309.63s62.42,127.88,62.42,130.92-19.51,31.65-19.94,32.95c-.43,1.3-29.91-14.31-29.91-14.31l1.3-15.61-3.03-3.47.43-5.64-19.51-33.81,8.24-91.04Z"/>
    <polygon class="st7" points="1026.25 450.09 1021.48 468.73 1059.2 485.64 1070.03 467 1026.25 450.09"/>
    <line class="st3" x1="1032.32" y1="441.85" x2="1063.53" y2="439.69"/>
    <line class="st3" x1="1057.9" y1="431.88" x2="1038.39" y2="436.65"/>
    <line class="st6" x1="1004.57" y1="506.88" x2="977.7" y2="524.22"/>
    <path class="st5" d="M914.94,286.29l1.38,36.52s12.06,8.61,24.8,8.27,25.84-11.02,25.84-11.02l-4.82-37.9-47.2,4.13Z"/>
    <polygon class="st1" points="932.85 301.45 916.79 310.99 914.94 286.29 932.85 301.45"/>
    <g>
      <path class="st5" d="M903.91,192.24s-11.02,5.86-11.02,15.16,6.89,63.73,11.37,71.66c4.48,7.92,20.67,18.95,28.59,22.39,7.92,3.45,12.06,1.03,16.88-1.38,4.82-2.41,16.88-16.19,18.95-29.63,2.07-13.44.34-49.95-1.38-59.26-1.72-9.3-6.89-16.88-13.09-20.67-6.2-3.79-28.94-5.86-50.3,1.72Z"/>
      <path class="st5" d="M898.06,247.7s-6.89-7.23-8.61.69c-1.72,7.92,11.71,17.23,11.71,17.23l-3.1-17.91Z"/>
      <path class="st5" d="M969.37,240.47s6.2-5.51,8.27,3.1c2.07,8.61-7.58,18.6-7.58,18.6l-.69-21.7Z"/>
      <path class="st3" d="M929.74,259.42c-.44,2.67-.58,4.81.01,5.17,1.72,1.03,6.89,2.07,9.3,2.07s6.55-3.45,6.55-3.45"/>
      <path class="st3" d="M924.24,274.58s8.61,4.48,16.19,3.1c7.58-1.38,11.37-5.51,11.37-5.51"/>
      <path class="st8" d="M925.58,247.58c.41,2.63-.64,4.98-2.33,5.24-1.69.26-3.39-1.66-3.8-4.29-.41-2.63.64-4.98,2.33-5.24,1.69-.26,3.39,1.66,3.8,4.29Z"/>
      <path class="st8" d="M952.17,246.9c-.2,2.66-1.75,4.7-3.46,4.58-1.71-.13-2.93-2.39-2.73-5.04s1.75-4.7,3.46-4.58c1.71.13,2.93,2.39,2.73,5.04Z"/>
      <path class="st3" d="M911.49,238.4s7.23-5.51,17.57-2.07"/>
      <line class="st3" x1="932.16" y1="242.54" x2="932.85" y2="259.07"/>
      <path class="st3" d="M942.84,235.3s11.37-3.45,16.54,1.03"/>
      <path class="st1" d="M969.56,245.29c-.25-13.97-1.26-28.67-2.26-34.1-1.72-9.3-6.89-16.88-13.09-20.67-6.2-3.79-28.94-5.86-50.3,1.72,0,0-11.02,5.86-11.02,15.16,0,5.28,2.22,25.1,4.96,42.7,1.08-.05,3.72-.27,4-1.36.34-1.38-3.1-5.17-.34-8.96,2.76-3.79,6.55-5.51,6.2-14.47-.34-8.96-5.51-12.06-3.45-15.16s3.1-6.2,8.61-5.86c5.51.34,15.5,5.17,22.39,3.44,6.89-1.72,15.85-8.61,19.98-6.2,4.13,2.41,7.23,11.71,6.55,17.91-.69,6.2-.34,8.96,1.38,12.06,1.72,3.1,6.2,8.96,6.2,8.96l-.34,6.55.54-1.73Z"/>
    </g>
  </g>
</svg>