<svg width="70" height="70" viewBox="0 0 70 70" fill="none" xmlns="http://www.w3.org/2000/svg">
<path d="M26.25 49.5833V52.5C26.25 54.8206 27.1719 57.0462 28.8128 58.6872C30.4538 60.3281 32.6794 61.25 35 61.25C37.3207 61.25 39.5463 60.3281 41.1872 58.6872C42.8281 57.0462 43.75 54.8206 43.75 52.5V49.5833M29.1667 14.5833C29.1667 13.0362 29.7813 11.5525 30.8752 10.4585C31.9692 9.36458 33.4529 8.75 35 8.75C36.5471 8.75 38.0308 9.36458 39.1248 10.4585C40.2188 11.5525 40.8334 13.0362 40.8334 14.5833C44.1829 16.1672 47.0383 18.6326 49.0935 21.7155C51.1487 24.7983 52.3263 28.3823 52.5 32.0833V40.8333C52.7195 42.6466 53.3617 44.3831 54.3749 45.9029C55.3881 47.4226 56.744 48.6833 58.3334 49.5833H11.6667C13.2561 48.6833 14.612 47.4226 15.6251 45.9029C16.6383 44.3831 17.2805 42.6466 17.5 40.8333V32.0833C17.6737 28.3823 18.8513 24.7983 20.9065 21.7155C22.9618 18.6326 25.8172 16.1672 29.1667 14.5833Z" stroke="#757575" stroke-width="4" stroke-linecap="round" stroke-linejoin="round"/>
</svg>
