<svg width="70" height="70" viewBox="0 0 70 70" fill="none" xmlns="http://www.w3.org/2000/svg">
<path d="M29.1667 23.3334V17.5C29.1667 15.9529 29.7812 14.4692 30.8752 13.3752C31.9692 12.2813 33.4529 11.6667 35 11.6667H55.4167C56.9638 11.6667 58.4475 12.2813 59.5415 13.3752C60.6354 14.4692 61.25 15.9529 61.25 17.5V52.5C61.25 54.0471 60.6354 55.5308 59.5415 56.6248C58.4475 57.7188 56.9638 58.3334 55.4167 58.3334H35C33.4529 58.3334 31.9692 57.7188 30.8752 56.6248C29.7812 55.5308 29.1667 54.0471 29.1667 52.5V46.6667M43.75 35H8.75M8.75 35L17.5 26.25M8.75 35L17.5 43.75" stroke="#757575" stroke-width="4" stroke-linecap="round" stroke-linejoin="round"/>
</svg>
