<svg width="70" height="70" viewBox="0 0 70 70" fill="none" xmlns="http://www.w3.org/2000/svg">
<path d="M49.5834 23.3333V14.5833C49.5834 13.8098 49.2761 13.0679 48.7291 12.5209C48.1821 11.9739 47.4402 11.6667 46.6667 11.6667H17.5C15.9529 11.6667 14.4692 12.2812 13.3752 13.3752C12.2813 14.4692 11.6667 15.9529 11.6667 17.5M11.6667 17.5C11.6667 19.0471 12.2813 20.5308 13.3752 21.6248C14.4692 22.7187 15.9529 23.3333 17.5 23.3333H52.5C53.2736 23.3333 54.0154 23.6406 54.5624 24.1876C55.1094 24.7346 55.4167 25.4764 55.4167 26.25V35M11.6667 17.5V52.5C11.6667 54.0471 12.2813 55.5308 13.3752 56.6248C14.4692 57.7187 15.9529 58.3333 17.5 58.3333H52.5C53.2736 58.3333 54.0154 58.026 54.5624 57.4791C55.1094 56.9321 55.4167 56.1902 55.4167 55.4167V46.6667M58.3334 35V46.6667H46.6667C45.1196 46.6667 43.6359 46.0521 42.5419 44.9581C41.4479 43.8642 40.8334 42.3804 40.8334 40.8333C40.8334 39.2862 41.4479 37.8025 42.5419 36.7085C43.6359 35.6146 45.1196 35 46.6667 35H58.3334Z" stroke="#C9A227" stroke-width="4" stroke-linecap="round" stroke-linejoin="round"/>
</svg>
