<svg width="70" height="70" viewBox="0 0 70 70" fill="none" xmlns="http://www.w3.org/2000/svg">
<path d="M35 23.3334V61.25M35 23.3334C33.945 18.9858 32.1284 15.2688 29.7871 12.6674C27.4459 10.066 24.6887 8.70085 21.875 8.74987C19.9411 8.74987 18.0865 9.5181 16.719 10.8856C15.3516 12.253 14.5833 14.1077 14.5833 16.0415C14.5833 17.9754 15.3516 19.8301 16.719 21.1975C18.0865 22.565 19.9411 23.3332 21.875 23.3332M35 23.3334C36.055 18.9858 37.8716 15.2688 40.2129 12.6674C42.5541 10.066 45.3113 8.70085 48.125 8.74987C50.0589 8.74987 51.9135 9.5181 53.281 10.8856C54.6484 12.253 55.4167 14.1077 55.4167 16.0415C55.4167 17.9754 54.6484 19.8301 53.281 21.1975C51.9135 22.565 50.0589 23.3332 48.125 23.3332M55.4167 35V55.4167C55.4167 56.9638 54.8021 58.4475 53.7081 59.5415C52.6142 60.6354 51.1304 61.25 49.5833 61.25H20.4167C18.8696 61.25 17.3858 60.6354 16.2919 59.5415C15.1979 58.4475 14.5833 56.9638 14.5833 55.4167V35M8.75 26.25C8.75 25.4765 9.05729 24.7346 9.60427 24.1876C10.1513 23.6406 10.8931 23.3334 11.6667 23.3334H58.3333C59.1069 23.3334 59.8488 23.6406 60.3957 24.1876C60.9427 24.7346 61.25 25.4765 61.25 26.25V32.0834C61.25 32.8569 60.9427 33.5988 60.3957 34.1457C59.8488 34.6927 59.1069 35 58.3333 35H11.6667C10.8931 35 10.1513 34.6927 9.60427 34.1457C9.05729 33.5988 8.75 32.8569 8.75 32.0834V26.25Z" stroke="#C9A227" stroke-width="4" stroke-linecap="round" stroke-linejoin="round"/>
</svg>
