<svg width="70" height="70" viewBox="0 0 70 70" fill="none" xmlns="http://www.w3.org/2000/svg">
<path d="M26.25 49.5833C26.25 51.9039 25.3281 54.1295 23.6872 55.7705C22.0462 57.4114 19.8206 58.3333 17.5 58.3333C15.1794 58.3333 12.9538 57.4114 11.3128 55.7705C9.67187 54.1295 8.75 51.9039 8.75 49.5833C8.75 47.2626 9.67187 45.0371 11.3128 43.3961C12.9538 41.7552 15.1794 40.8333 17.5 40.8333C19.8206 40.8333 22.0462 41.7552 23.6872 43.3961C25.3281 45.0371 26.25 47.2626 26.25 49.5833ZM26.25 49.5833V11.6666H55.4167V49.5833M55.4167 49.5833C55.4167 51.9039 54.4948 54.1295 52.8539 55.7705C51.2129 57.4114 48.9873 58.3333 46.6667 58.3333C44.346 58.3333 42.1204 57.4114 40.4795 55.7705C38.8385 54.1295 37.9167 51.9039 37.9167 49.5833C37.9167 47.2626 38.8385 45.0371 40.4795 43.3961C42.1204 41.7552 44.346 40.8333 46.6667 40.8333C48.9873 40.8333 51.2129 41.7552 52.8539 43.3961C54.4948 45.0371 55.4167 47.2626 55.4167 49.5833ZM26.25 23.3333H55.4167" stroke="#757575" stroke-width="4" stroke-linecap="round" stroke-linejoin="round"/>
</svg>
