<svg width="70" height="70" viewBox="0 0 70 70" fill="none" xmlns="http://www.w3.org/2000/svg">
<path d="M26.25 11.6666V64.1666M37.9167 23.3333H43.75M37.9167 35H43.75M17.5 11.6666H49.5833C51.1304 11.6666 52.6142 12.2812 53.7081 13.3752C54.8021 14.4691 55.4167 15.9529 55.4167 17.5V52.5C55.4167 54.0471 54.8021 55.5308 53.7081 56.6247C52.6142 57.7187 51.1304 58.3333 49.5833 58.3333H17.5C16.7265 58.3333 15.9846 58.026 15.4376 57.479C14.8906 56.932 14.5833 56.1902 14.5833 55.4166V14.5833C14.5833 13.8097 14.8906 13.0679 15.4376 12.5209C15.9846 11.9739 16.7265 11.6666 17.5 11.6666Z" stroke="#C9A227" stroke-width="4" stroke-linecap="round" stroke-linejoin="round"/>
</svg>
