<svg width="70" height="70" viewBox="0 0 70 70" fill="none" xmlns="http://www.w3.org/2000/svg">
<path d="M11.7017 21.175C10.8072 21.6849 10.0633 22.4219 9.54501 23.3115C9.02673 24.2011 8.75248 25.2117 8.75 26.2413V55.4079C8.75 58.6163 11.375 61.2413 14.5833 61.2413H43.75C45.9375 61.2413 47.1275 60.1184 48.125 58.3246M49.5833 20.4167H49.6125M20.4167 37.9167L31.045 27.2884C31.3728 26.9603 31.762 26.7001 32.1903 26.5225C32.6187 26.345 33.0779 26.2536 33.5417 26.2536C34.0054 26.2536 34.4646 26.345 34.893 26.5225C35.3214 26.7001 35.7106 26.9603 36.0383 27.2884L46.6667 37.9167M43.75 35.0001L48.545 30.2051C48.8728 29.877 49.262 29.6167 49.6904 29.4392C50.1187 29.2616 50.5779 29.1702 51.0417 29.1702C51.5054 29.1702 51.9646 29.2616 52.393 29.4392C52.8214 29.6167 53.2106 29.877 53.5383 30.2051L61.25 37.9167M20.4167 16.5287C20.4167 14.4657 21.2362 12.4871 22.695 11.0283C24.1538 9.56954 26.1324 8.75 28.1954 8.75H53.4713C54.4928 8.75 55.5043 8.9512 56.4481 9.34212C57.3918 9.73304 58.2493 10.306 58.9717 11.0283C59.694 11.7507 60.267 12.6082 60.6579 13.552C61.0488 14.4957 61.25 15.5072 61.25 16.5287V41.8046C61.25 42.8261 61.0488 43.8376 60.6579 44.7814C60.267 45.7251 59.694 46.5827 58.9717 47.305C58.2493 48.0273 57.3918 48.6003 56.4481 48.9912C55.5043 49.3821 54.4928 49.5833 53.4713 49.5833H28.1954C26.1324 49.5833 24.1538 48.7638 22.695 47.305C21.2362 45.8462 20.4167 43.8676 20.4167 41.8046V16.5287Z" stroke="#757575" stroke-width="4" stroke-linecap="round" stroke-linejoin="round"/>
</svg>
