<svg width="70" height="70" viewBox="0 0 70 70" fill="none" xmlns="http://www.w3.org/2000/svg">
<path d="M35 14.5833C35 13.0362 34.3854 11.5525 33.2915 10.4585C32.1975 9.36458 30.7138 8.75 29.1667 8.75H11.6667C10.8931 8.75 10.1513 9.05729 9.60427 9.60427C9.05729 10.1513 8.75 10.8931 8.75 11.6667V52.5C8.75 53.2735 9.05729 54.0154 9.60427 54.5624C10.1513 55.1094 10.8931 55.4167 11.6667 55.4167H29.1667C30.7138 55.4167 32.1975 56.0313 33.2915 57.1252C34.3854 58.2192 35 59.7029 35 61.25M35 14.5833C35 13.0362 35.6146 11.5525 36.7085 10.4585C37.8025 9.36458 39.2862 8.75 40.8333 8.75H58.3333C59.1069 8.75 59.8488 9.05729 60.3957 9.60427C60.9427 10.1513 61.25 10.8931 61.25 11.6667V52.5C61.25 53.2735 60.9427 54.0154 60.3957 54.5624C59.8488 55.1094 59.1069 55.4167 58.3333 55.4167H40.8333C39.2862 55.4167 37.8025 56.0313 36.7085 57.1252C35.6146 58.2192 35 59.7029 35 61.25M35 14.5833V61.25M20.4167 20.4167H23.3333M20.4167 32.0833H23.3333M46.6667 20.4167H49.5833M46.6667 32.0833H49.5833M46.6667 43.75H49.5833" stroke="#757575" stroke-width="4" stroke-linecap="round" stroke-linejoin="round"/>
</svg>
