<svg width="70" height="70" viewBox="0 0 70 70" fill="none" xmlns="http://www.w3.org/2000/svg">
<path d="M30.1146 12.5913C31.3571 7.46958 38.6429 7.46958 39.8854 12.5913C40.0718 13.3607 40.4373 14.0752 40.9521 14.6767C41.4668 15.2781 42.1163 15.7496 42.8477 16.0526C43.5791 16.3556 44.3717 16.4816 45.161 16.4205C45.9504 16.3593 46.7141 16.1125 47.39 15.7004C51.8904 12.9587 57.0442 18.1096 54.3025 22.6129C53.891 23.2886 53.6446 24.0518 53.5836 24.8406C53.5225 25.6294 53.6485 26.4214 53.9511 27.1524C54.2538 27.8833 54.7247 28.5325 55.3255 29.0472C55.9263 29.562 56.64 29.9276 57.4088 30.1146C62.5304 31.3571 62.5304 38.6429 57.4088 39.8854C56.6393 40.0718 55.9248 40.4373 55.3233 40.9521C54.7219 41.4668 54.2504 42.1163 53.9474 42.8477C53.6444 43.5791 53.5184 44.3717 53.5795 45.161C53.6407 45.9504 53.8875 46.7141 54.2996 47.39C57.0413 51.8904 51.8904 57.0442 47.3871 54.3025C46.7114 53.891 45.9482 53.6446 45.1594 53.5836C44.3706 53.5225 43.5786 53.6485 42.8476 53.9511C42.1167 54.2538 41.4675 54.7247 40.9528 55.3255C40.438 55.9263 40.0724 56.64 39.8854 57.4088C38.6429 62.5304 31.3571 62.5304 30.1146 57.4088C29.9282 56.6393 29.5627 55.9248 29.0479 55.3233C28.5332 54.7219 27.8837 54.2504 27.1523 53.9474C26.4209 53.6444 25.6283 53.5184 24.839 53.5795C24.0497 53.6407 23.2859 53.8875 22.61 54.2996C18.1096 57.0413 12.9558 51.8904 15.6975 47.3871C16.109 46.7114 16.3554 45.9482 16.4164 45.1594C16.4775 44.3706 16.3515 43.5786 16.0489 42.8476C15.7462 42.1167 15.2753 41.4675 14.6745 40.9528C14.0737 40.438 13.36 40.0724 12.5913 39.8854C7.46958 38.6429 7.46958 31.3571 12.5913 30.1146C13.3607 29.9282 14.0752 29.5627 14.6767 29.0479C15.2781 28.5332 15.7496 27.8837 16.0526 27.1523C16.3556 26.4209 16.4816 25.6283 16.4205 24.839C16.3593 24.0497 16.1125 23.2859 15.7004 22.61C12.9587 18.1096 18.1096 12.9558 22.6129 15.6975C25.5296 17.4708 29.3096 15.9017 30.1146 12.5913Z" stroke="#C9A227" stroke-width="4" stroke-linecap="round" stroke-linejoin="round"/>
<path d="M26.25 35C26.25 37.3206 27.1719 39.5462 28.8128 41.1872C30.4538 42.8281 32.6794 43.75 35 43.75C37.3206 43.75 39.5462 42.8281 41.1872 41.1872C42.8281 39.5462 43.75 37.3206 43.75 35C43.75 32.6794 42.8281 30.4538 41.1872 28.8128C39.5462 27.1719 37.3206 26.25 35 26.25C32.6794 26.25 30.4538 27.1719 28.8128 28.8128C27.1719 30.4538 26.25 32.6794 26.25 35Z" stroke="#C9A227" stroke-width="4" stroke-linecap="round" stroke-linejoin="round"/>
</svg>
