<svg width="70" height="70" viewBox="0 0 70 70" fill="none" xmlns="http://www.w3.org/2000/svg">
<path d="M40.8333 8.75V20.4167C40.8333 21.1902 41.1406 21.9321 41.6876 22.4791C42.2346 23.026 42.9764 23.3333 43.75 23.3333H55.4167M40.8333 8.75H20.4167C18.8696 8.75 17.3858 9.36458 16.2919 10.4585C15.1979 11.5525 14.5833 13.0362 14.5833 14.5833V55.4167C14.5833 56.9638 15.1979 58.4475 16.2919 59.5415C17.3858 60.6354 18.8696 61.25 20.4167 61.25H49.5833C51.1304 61.25 52.6142 60.6354 53.7081 59.5415C54.8021 58.4475 55.4167 56.9638 55.4167 55.4167V23.3333M40.8333 8.75L55.4167 23.3333M26.25 49.5833H43.75M26.25 37.9167H43.75" stroke="#C9A227" stroke-width="4" stroke-linecap="round" stroke-linejoin="round"/>
</svg>
