<svg width="70" height="70" viewBox="0 0 70 70" fill="none" xmlns="http://www.w3.org/2000/svg">
<path d="M43.75 23.3333H43.7792M8.75 46.6662L23.3333 32.0828C26.04 29.4782 29.3767 29.4782 32.0833 32.0828L46.6667 46.6662M40.8333 40.8328L43.75 37.9162C46.4567 35.3116 49.7933 35.3116 52.5 37.9162L61.25 46.6662M8.75 17.5C8.75 15.1794 9.67187 12.9538 11.3128 11.3128C12.9538 9.67187 15.1794 8.75 17.5 8.75H52.5C54.8206 8.75 57.0462 9.67187 58.6872 11.3128C60.3281 12.9538 61.25 15.1794 61.25 17.5V52.5C61.25 54.8206 60.3281 57.0462 58.6872 58.6872C57.0462 60.3281 54.8206 61.25 52.5 61.25H17.5C15.1794 61.25 12.9538 60.3281 11.3128 58.6872C9.67187 57.0462 8.75 54.8206 8.75 52.5V17.5Z" stroke="#C9A227" stroke-width="4" stroke-linecap="round" stroke-linejoin="round"/>
</svg>
