<svg width="70" height="70" viewBox="0 0 70 70" fill="none" xmlns="http://www.w3.org/2000/svg">
<path d="M8.75 35H11.6667M35 8.75V11.6667M58.3333 35H61.25M35 58.3333V61.25M16.3333 16.3333L18.375 18.375M53.6667 16.3333L51.625 18.375M51.625 51.625L53.6667 53.6667M18.375 51.625L16.3333 53.6667M23.3333 35C23.3333 38.0942 24.5625 41.0617 26.7504 43.2496C28.9383 45.4375 31.9058 46.6667 35 46.6667C38.0942 46.6667 41.0617 45.4375 43.2496 43.2496C45.4375 41.0617 46.6667 38.0942 46.6667 35C46.6667 31.9058 45.4375 28.9383 43.2496 26.7504C41.0617 24.5625 38.0942 23.3333 35 23.3333C31.9058 23.3333 28.9383 24.5625 26.7504 26.7504C24.5625 28.9383 23.3333 31.9058 23.3333 35Z" stroke="#757575" stroke-width="4" stroke-linecap="round" stroke-linejoin="round"/>
</svg>
