<svg width="70" height="70" viewBox="0 0 70 70" fill="none" xmlns="http://www.w3.org/2000/svg">
<path d="M11.6667 20.4167H58.3333M29.1667 32.0833V49.5833M40.8333 32.0833V49.5833M14.5833 20.4167L17.5 55.4167C17.5 56.9638 18.1146 58.4475 19.2085 59.5415C20.3025 60.6354 21.7862 61.25 23.3333 61.25H46.6667C48.2138 61.25 49.6975 60.6354 50.7915 59.5415C51.8854 58.4475 52.5 56.9638 52.5 55.4167L55.4167 20.4167M26.25 20.4167V11.6667C26.25 10.8931 26.5573 10.1513 27.1043 9.60427C27.6513 9.05729 28.3931 8.75 29.1667 8.75H40.8333C41.6069 8.75 42.3487 9.05729 42.8957 9.60427C43.4427 10.1513 43.75 10.8931 43.75 11.6667V20.4167" stroke="#C9A227" stroke-width="4" stroke-linecap="round" stroke-linejoin="round"/>
</svg>
