<svg width="70" height="70" viewBox="0 0 70 70" fill="none" xmlns="http://www.w3.org/2000/svg">
<path d="M32.0833 20.4167C32.0833 23.5109 30.8542 26.4783 28.6662 28.6662C26.4783 30.8542 23.5109 32.0833 20.4167 32.0833C17.3225 32.0833 14.355 30.8542 12.1671 28.6662C9.97916 26.4783 8.75 23.5109 8.75 20.4167C8.75 17.3225 9.97916 14.355 12.1671 12.1671C14.355 9.97916 17.3225 8.75 20.4167 8.75M32.0833 20.4167C32.0833 17.3225 30.8542 14.355 28.6662 12.1671C26.4783 9.97916 23.5109 8.75 20.4167 8.75M32.0833 20.4167H20.4167V8.75M26.25 49.5833V61.25M49.5833 40.8333V61.25M37.9167 37.9167V61.25M61.25 35V61.25" stroke="#757575" stroke-width="4" stroke-linecap="round" stroke-linejoin="round"/>
</svg>
