<svg width="70" height="70" viewBox="0 0 70 70" fill="none" xmlns="http://www.w3.org/2000/svg">
<path d="M56.8759 36.6685L35.0009 58.3335L13.1259 36.6685C11.683 35.2644 10.5465 33.5769 9.7879 31.712C9.02929 29.8472 8.66503 27.8454 8.71804 25.8329C8.77105 23.8203 9.2402 21.8406 10.0959 20.0182C10.9517 18.1959 12.1754 16.5705 13.6902 15.2444C15.205 13.9182 16.9779 12.9201 18.8974 12.3128C20.8169 11.7055 22.8413 11.5023 24.8432 11.7158C26.8451 11.9294 28.7811 12.5551 30.5293 13.5536C32.2775 14.5522 33.7999 15.9018 35.0009 17.5177C36.207 15.9136 37.7313 14.5757 39.4783 13.5878C41.2252 12.5998 43.1573 11.9831 45.1536 11.7763C47.1499 11.5694 49.1674 11.7768 51.0798 12.3855C52.9922 12.9942 54.7585 13.991 56.2679 15.3137C57.7774 16.6364 58.9975 18.2564 59.8521 20.0723C60.7067 21.8883 61.1772 23.8611 61.2343 25.8672C61.2914 27.8734 60.9337 29.8697 60.1838 31.7313C59.4338 33.5929 58.3077 35.2796 56.8759 36.686" stroke="#C9A227" stroke-width="4" stroke-linecap="round" stroke-linejoin="round"/>
</svg>
