<svg width="70" height="70" viewBox="0 0 70 70" fill="none" xmlns="http://www.w3.org/2000/svg">
<path d="M61.25 61.25L43.75 43.75M8.75 29.1667C8.75 31.8478 9.27809 34.5027 10.3041 36.9798C11.3302 39.4569 12.834 41.7076 14.7299 43.6034C16.6258 45.4993 18.8765 47.0032 21.3535 48.0292C23.8306 49.0552 26.4855 49.5833 29.1667 49.5833C31.8478 49.5833 34.5027 49.0552 36.9798 48.0292C39.4569 47.0032 41.7076 45.4993 43.6034 43.6034C45.4993 41.7076 47.0032 39.4569 48.0292 36.9798C49.0552 34.5027 49.5833 31.8478 49.5833 29.1667C49.5833 26.4855 49.0552 23.8306 48.0292 21.3535C47.0032 18.8765 45.4993 16.6258 43.6034 14.7299C41.7076 12.834 39.4569 11.3302 36.9798 10.3041C34.5027 9.27809 31.8478 8.75 29.1667 8.75C26.4855 8.75 23.8306 9.27809 21.3535 10.3041C18.8765 11.3302 16.6258 12.834 14.7299 14.7299C12.834 16.6258 11.3302 18.8765 10.3041 21.3535C9.27809 23.8306 8.75 26.4855 8.75 29.1667Z" stroke="#C9A227" stroke-width="4" stroke-linecap="round" stroke-linejoin="round"/>
</svg>
