<svg width="70" height="70" viewBox="0 0 70 70" fill="none" xmlns="http://www.w3.org/2000/svg">
<path d="M46.6667 8.75L35 20.4167L23.3333 8.75M8.75 26.25C8.75 24.7029 9.36458 23.2192 10.4585 22.1252C11.5525 21.0312 13.0362 20.4167 14.5833 20.4167H55.4167C56.9638 20.4167 58.4475 21.0312 59.5415 22.1252C60.6354 23.2192 61.25 24.7029 61.25 26.25V52.5C61.25 54.0471 60.6354 55.5308 59.5415 56.6248C58.4475 57.7187 56.9638 58.3333 55.4167 58.3333H14.5833C13.0362 58.3333 11.5525 57.7187 10.4585 56.6248C9.36458 55.5308 8.75 54.0471 8.75 52.5V26.25Z" stroke="#C9A227" stroke-width="4" stroke-linecap="round" stroke-linejoin="round"/>
</svg>
