<svg width="70" height="70" viewBox="0 0 70 70" fill="none" xmlns="http://www.w3.org/2000/svg">
<path d="M26.25 43.75L43.75 26.25M32.0833 17.5L33.4338 15.9367C36.169 13.2018 39.8787 11.6655 43.7467 11.6658C47.6147 11.666 51.3241 13.2029 54.059 15.9381C56.7939 18.6734 58.3301 22.3831 58.3299 26.251C58.3296 30.119 56.7928 33.8285 54.0575 36.5633L52.5 37.9167M37.9167 52.5L36.7588 54.0575C33.9916 56.7939 30.2569 58.3286 26.3652 58.3286C22.4735 58.3286 18.7389 56.7939 15.9717 54.0575C14.6077 52.7088 13.5249 51.103 12.7858 49.3329C12.0468 47.5628 11.6663 45.6638 11.6663 43.7456C11.6663 41.8275 12.0468 39.9284 12.7858 38.1583C13.5249 36.3883 14.6077 34.7824 15.9717 33.4337L17.5 32.0833" stroke="#757575" stroke-width="4" stroke-linecap="round" stroke-linejoin="round"/>
</svg>
