<svg width="70" height="70" viewBox="0 0 70 70" fill="none" xmlns="http://www.w3.org/2000/svg">
<path d="M49.5834 29.1667L43.7501 11.6667M20.4167 29.1667L26.2501 11.6667M29.1667 40.8334C29.1667 42.3805 29.7813 43.8642 30.8753 44.9581C31.9692 46.0521 33.453 46.6667 35.0001 46.6667C36.5472 46.6667 38.0309 46.0521 39.1248 44.9581C40.2188 43.8642 40.8334 42.3805 40.8334 40.8334C40.8334 39.2863 40.2188 37.8025 39.1248 36.7086C38.0309 35.6146 36.5472 35 35.0001 35C33.453 35 31.9692 35.6146 30.8753 36.7086C29.7813 37.8025 29.1667 39.2863 29.1667 40.8334ZM14.5862 23.3334H55.4166C56.2577 23.3333 57.0889 23.515 57.8531 23.8662C58.6173 24.2174 59.2966 24.7297 59.8443 25.368C60.392 26.0063 60.7952 26.7555 61.0262 27.5642C61.2573 28.3729 61.3107 29.2221 61.1829 30.0534L57.5225 50.9134C57.2047 52.9796 56.1576 54.8639 54.5708 56.225C52.9839 57.586 50.9622 58.334 48.8716 58.3334H21.1283C19.0382 58.3333 17.0172 57.585 15.431 56.224C13.8447 54.863 12.7981 52.9792 12.4804 50.9134L8.81998 30.0534C8.69214 29.2221 8.74557 28.3729 8.97662 27.5642C9.20767 26.7555 9.61086 26.0063 10.1586 25.368C10.7063 24.7297 11.3855 24.2174 12.1498 23.8662C12.914 23.515 13.7452 23.3333 14.5862 23.3334Z" stroke="#757575" stroke-width="4" stroke-linecap="round" stroke-linejoin="round"/>
</svg>
