<svg width="70" height="70" viewBox="0 0 70 70" fill="none" xmlns="http://www.w3.org/2000/svg">
<path d="M35 35V35.0292M43.2483 26.7517C45.4355 28.9395 46.6642 31.9064 46.6642 35C46.6642 38.0936 45.4355 41.0605 43.2483 43.2483M51.4996 18.5005C53.6664 20.6672 55.3852 23.2395 56.5579 26.0705C57.7306 28.9015 58.3342 31.9358 58.3342 35C58.3342 38.0643 57.7306 41.0986 56.5579 43.9296C55.3852 46.7606 53.6664 49.3329 51.4996 51.4996M26.74 43.2483C24.5528 41.0605 23.3242 38.0936 23.3242 35C23.3242 31.9064 24.5528 28.9395 26.74 26.7517M18.4829 51.4996C16.3161 49.3329 14.5973 46.7606 13.4246 43.9296C12.2519 41.0986 11.6483 38.0643 11.6483 35C11.6483 31.9358 12.2519 28.9015 13.4246 26.0705C14.5973 23.2395 16.3161 20.6672 18.4829 18.5005" stroke="#757575" stroke-width="4" stroke-linecap="round" stroke-linejoin="round"/>
</svg>
