<svg width="70" height="70" viewBox="0 0 70 70" fill="none" xmlns="http://www.w3.org/2000/svg">
<path d="M20.3554 8.96587C22.9369 8.52603 25.5841 8.67112 28.102 9.39045C30.6199 10.1098 32.9443 11.385 34.9038 13.1221L35.0117 13.2184L35.1109 13.1309C36.981 11.4896 39.1797 10.2661 41.5601 9.54186C43.9406 8.81761 46.4481 8.60932 48.9154 8.93087L49.6329 9.03587C52.743 9.57285 55.6499 10.9409 58.046 12.9952C60.442 15.0494 62.2378 17.7134 63.2434 20.705C64.249 23.6966 64.4268 26.9044 63.7581 29.9888C63.0893 33.0732 61.5989 35.9194 59.4446 38.2259L58.9196 38.7655L58.7796 38.885L37.0504 60.4071C36.549 60.9034 35.8847 61.2011 35.1805 61.2451C34.4764 61.2891 33.7802 61.0763 33.2209 60.6463L32.9467 60.4071L11.0921 38.7596C8.77692 36.5069 7.1304 33.6574 6.3349 30.5266C5.53941 27.3959 5.62598 24.106 6.58504 21.0214C7.54409 17.9368 9.3382 15.1778 11.7687 13.05C14.1991 10.9222 17.1711 9.50865 20.3554 8.96587Z" fill="#C9A227"/>
</svg>
