<svg width="70" height="70" viewBox="0 0 70 70" fill="none" xmlns="http://www.w3.org/2000/svg">
<path d="M26.25 23.3333V17.5C26.25 15.9529 26.8646 14.4692 27.9585 13.3752C29.0525 12.2812 30.5362 11.6667 32.0833 11.6667H52.5C54.0471 11.6667 55.5308 12.2812 56.6248 13.3752C57.7187 14.4692 58.3333 15.9529 58.3333 17.5V52.5C58.3333 54.0471 57.7187 55.5308 56.6248 56.6248C55.5308 57.7187 54.0471 58.3333 52.5 58.3333H32.0833C30.5362 58.3333 29.0525 57.7187 27.9585 56.6248C26.8646 55.5308 26.25 54.0471 26.25 52.5V46.6667M8.75 35H46.6667M46.6667 35L37.9167 26.25M46.6667 35L37.9167 43.75" stroke="#C9A227" stroke-width="4" stroke-linecap="round" stroke-linejoin="round"/>
</svg>
