<svg width="70" height="70" viewBox="0 0 70 70" fill="none" xmlns="http://www.w3.org/2000/svg">
<path d="M46.6667 35L35 23.3333M46.6667 35H23.3333M46.6667 35L35 46.6667M35 8.75C31.5528 8.75 28.1394 9.42898 24.9546 10.7482C21.7698 12.0673 18.876 14.0009 16.4384 16.4384C14.0009 18.876 12.0673 21.7698 10.7482 24.9546C9.42898 28.1394 8.75 31.5528 8.75 35C8.75 38.4472 9.42898 41.8606 10.7482 45.0454C12.0673 48.2302 14.0009 51.124 16.4384 53.5616C18.876 55.9991 21.7698 57.9327 24.9546 59.2518C28.1394 60.571 31.5528 61.25 35 61.25C41.9619 61.25 48.6387 58.4844 53.5616 53.5616C58.4844 48.6387 61.25 41.9619 61.25 35C61.25 28.0381 58.4844 21.3613 53.5616 16.4384C48.6387 11.5156 41.9619 8.75 35 8.75Z" stroke="#C9A227" stroke-width="4" stroke-linecap="round" stroke-linejoin="round"/>
</svg>
