<svg width="70" height="70" viewBox="0 0 70 70" fill="none" xmlns="http://www.w3.org/2000/svg">
<path d="M10.4999 26.25H59.4999M10.4999 43.75H59.4999M33.5418 8.75C28.6282 16.6239 26.0232 25.7188 26.0232 35C26.0232 44.2812 28.6282 53.3761 33.5418 61.25M36.4583 8.75C41.3719 16.6239 43.9769 25.7188 43.9769 35C43.9769 44.2812 41.3719 53.3761 36.4583 61.25M8.75 35C8.75 38.4472 9.42898 41.8606 10.7482 45.0454C12.0673 48.2302 14.0009 51.124 16.4384 53.5616C18.876 55.9991 21.7698 57.9327 24.9546 59.2518C28.1394 60.571 31.5528 61.25 35 61.25C38.4472 61.25 41.8606 60.571 45.0454 59.2518C48.2302 57.9327 51.124 55.9991 53.5616 53.5616C55.9991 51.124 57.9327 48.2302 59.2518 45.0454C60.571 41.8606 61.25 38.4472 61.25 35C61.25 28.0381 58.4844 21.3613 53.5616 16.4384C48.6387 11.5156 41.9619 8.75 35 8.75C28.0381 8.75 21.3613 11.5156 16.4384 16.4384C11.5156 21.3613 8.75 28.0381 8.75 35Z" stroke="#757575" stroke-width="4" stroke-linecap="round" stroke-linejoin="round"/>
</svg>
