<svg width="70" height="70" viewBox="0 0 70 70" fill="none" xmlns="http://www.w3.org/2000/svg">
<path d="M35 46.6667V46.6958M35 37.9167C36.3118 37.9206 37.5866 37.4823 38.6186 36.6725C39.6506 35.8627 40.3795 34.7288 40.6876 33.4537C40.9958 32.1786 40.8652 30.8369 40.3169 29.6452C39.7686 28.4535 38.8346 27.4814 37.6658 26.8859C36.5055 26.2915 35.1782 26.1072 33.8999 26.363C32.6215 26.6187 31.4673 27.2995 30.625 28.2946M8.75 35C8.75 38.4472 9.42898 41.8606 10.7482 45.0454C12.0673 48.2302 14.0009 51.124 16.4384 53.5616C18.876 55.9991 21.7698 57.9327 24.9546 59.2518C28.1394 60.571 31.5528 61.25 35 61.25C38.4472 61.25 41.8606 60.571 45.0454 59.2518C48.2302 57.9327 51.124 55.9991 53.5616 53.5616C55.9991 51.124 57.9327 48.2302 59.2518 45.0454C60.571 41.8606 61.25 38.4472 61.25 35C61.25 28.0381 58.4844 21.3613 53.5616 16.4384C48.6387 11.5156 41.9619 8.75 35 8.75C28.0381 8.75 21.3613 11.5156 16.4384 16.4384C11.5156 21.3613 8.75 28.0381 8.75 35Z" stroke="#757575" stroke-width="4" stroke-linecap="round" stroke-linejoin="round"/>
</svg>
