<svg width="70" height="70" viewBox="0 0 70 70" fill="none" xmlns="http://www.w3.org/2000/svg">
<path d="M43.75 23.3333V17.5C43.75 15.9529 43.1354 14.4692 42.0414 13.3752C40.9475 12.2812 39.4637 11.6667 37.9166 11.6667H17.5C15.9529 11.6667 14.4691 12.2812 13.3752 13.3752C12.2812 14.4692 11.6666 15.9529 11.6666 17.5V52.5C11.6666 54.0471 12.2812 55.5308 13.3752 56.6248C14.4691 57.7187 15.9529 58.3333 17.5 58.3333H37.9166C39.4637 58.3333 40.9475 57.7187 42.0414 56.6248C43.1354 55.5308 43.75 54.0471 43.75 52.5V46.6667M61.25 35H23.3333M23.3333 35L32.0833 26.25M23.3333 35L32.0833 43.75" stroke="#757575" stroke-width="4" stroke-linecap="round" stroke-linejoin="round"/>
</svg>
