<svg width="70" height="70" viewBox="0 0 70 70" fill="none" xmlns="http://www.w3.org/2000/svg">
<path d="M20.4166 20.4167H17.5C15.9529 20.4167 14.4691 21.0312 13.3752 22.1252C12.2812 23.2192 11.6666 24.7029 11.6666 26.25V52.5C11.6666 54.0471 12.2812 55.5308 13.3752 56.6248C14.4691 57.7187 15.9529 58.3333 17.5 58.3333H43.75C45.2971 58.3333 46.7808 57.7187 47.8747 56.6248C48.9687 55.5308 49.5833 54.0471 49.5833 52.5V49.5833M46.6666 14.5833L55.4166 23.3333M59.4562 19.2062C60.6049 18.0575 61.2503 16.4995 61.2503 14.8749C61.2503 13.2504 60.6049 11.6924 59.4562 10.5437C58.3075 9.39498 56.7495 8.74963 55.125 8.74963C53.5004 8.74963 51.9424 9.39498 50.7937 10.5437L26.25 34.9999V43.7499H35L59.4562 19.2062Z" stroke="#C9A227" stroke-width="4" stroke-linecap="round" stroke-linejoin="round"/>
</svg>
