<svg width="70" height="70" viewBox="0 0 70 70" fill="none" xmlns="http://www.w3.org/2000/svg">
<path d="M49.5833 29.1667L43.75 11.6667M20.4167 29.1667L26.25 11.6667M29.1667 40.8334C29.1667 42.3805 29.7812 43.8642 30.8752 44.9581C31.9692 46.0521 33.4529 46.6667 35 46.6667C36.5471 46.6667 38.0308 46.0521 39.1248 44.9581C40.2187 43.8642 40.8333 42.3805 40.8333 40.8334C40.8333 39.2863 40.2187 37.8025 39.1248 36.7086C38.0308 35.6146 36.5471 35 35 35C33.4529 35 31.9692 35.6146 30.8752 36.7086C29.7812 37.8025 29.1667 39.2863 29.1667 40.8334ZM14.5862 23.3334H55.4166C56.2577 23.3333 57.0888 23.515 57.853 23.8662C58.6173 24.2174 59.2965 24.7297 59.8442 25.368C60.3919 26.0063 60.7951 26.7555 61.0262 27.5642C61.2572 28.3729 61.3107 29.2221 61.1828 30.0534L57.5224 50.9134C57.2046 52.9796 56.1576 54.8639 54.5707 56.225C52.9839 57.586 50.9622 58.334 48.8716 58.3334H21.1282C19.0382 58.3333 17.0172 57.585 15.4309 56.224C13.8447 54.863 12.798 52.9792 12.4803 50.9134L8.81992 30.0534C8.69207 29.2221 8.74551 28.3729 8.97656 27.5642C9.20761 26.7555 9.6108 26.0063 10.1585 25.368C10.7062 24.7297 11.3855 24.2174 12.1497 23.8662C12.9139 23.515 13.7451 23.3333 14.5862 23.3334Z" stroke="#C9A227" stroke-width="4" stroke-linecap="round" stroke-linejoin="round"/>
</svg>
