<svg width="70" height="70" viewBox="0 0 70 70" fill="none" xmlns="http://www.w3.org/2000/svg">
<path d="M17.5 35C15.9529 35 14.4692 34.3854 13.3752 33.2915C12.2813 32.1975 11.6667 30.7138 11.6667 29.1667C11.6667 27.6196 12.2813 26.1358 13.3752 25.0419C14.4692 23.9479 15.9529 23.3333 17.5 23.3333M17.5 35C19.0471 35 20.5308 34.3854 21.6248 33.2915C22.7188 32.1975 23.3334 30.7138 23.3334 29.1667C23.3334 27.6196 22.7188 26.1358 21.6248 25.0419C20.5308 23.9479 19.0471 23.3333 17.5 23.3333M17.5 35V58.3333M17.5 23.3333V11.6667M35 52.5C33.4529 52.5 31.9692 51.8854 30.8752 50.7915C29.7813 49.6975 29.1667 48.2138 29.1667 46.6667C29.1667 45.1196 29.7813 43.6358 30.8752 42.5419C31.9692 41.4479 33.4529 40.8333 35 40.8333M35 52.5C36.5471 52.5 38.0308 51.8854 39.1248 50.7915C40.2188 49.6975 40.8334 48.2138 40.8334 46.6667C40.8334 45.1196 40.2188 43.6358 39.1248 42.5419C38.0308 41.4479 36.5471 40.8333 35 40.8333M35 52.5V58.3333M35 40.8333V11.6667M52.5 26.25C50.9529 26.25 49.4692 25.6354 48.3752 24.5415C47.2813 23.4475 46.6667 21.9638 46.6667 20.4167C46.6667 18.8696 47.2813 17.3858 48.3752 16.2919C49.4692 15.1979 50.9529 14.5833 52.5 14.5833M52.5 26.25C54.0471 26.25 55.5308 25.6354 56.6248 24.5415C57.7188 23.4475 58.3334 21.9638 58.3334 20.4167C58.3334 18.8696 57.7188 17.3858 56.6248 16.2919C55.5308 15.1979 54.0471 14.5833 52.5 14.5833M52.5 26.25V58.3333M52.5 14.5833V11.6667" stroke="#C9A227" stroke-width="4" stroke-linecap="round" stroke-linejoin="round"/>
</svg>
