<svg width="70" height="70" viewBox="0 0 70 70" fill="none" xmlns="http://www.w3.org/2000/svg">
<path d="M26.25 61.25V43.75C26.25 42.2029 26.8646 40.7192 27.9585 39.6252C29.0525 38.5313 30.5362 37.9167 32.0833 37.9167H37.9167C39.4638 37.9167 40.9475 38.5313 42.0415 39.6252C43.1354 40.7192 43.75 42.2029 43.75 43.75V61.25M14.5833 35H8.75L35 8.75L61.25 35H55.4167V55.4167C55.4167 56.9638 54.8021 58.4475 53.7081 59.5415C52.6142 60.6354 51.1304 61.25 49.5833 61.25H20.4167C18.8696 61.25 17.3858 60.6354 16.2919 59.5415C15.1979 58.4475 14.5833 56.9638 14.5833 55.4167V35Z" stroke="#757575" stroke-width="4" stroke-linecap="round" stroke-linejoin="round"/>
</svg>
