<svg width="70" height="70" viewBox="0 0 70 70" fill="none" xmlns="http://www.w3.org/2000/svg">
<path d="M40.8333 23.3333V17.5C40.8333 15.9529 40.2188 14.4692 39.1248 13.3752C38.0308 12.2812 36.5471 11.6667 35 11.6667H14.5833C13.0362 11.6667 11.5525 12.2812 10.4585 13.3752C9.36458 14.4692 8.75 15.9529 8.75 17.5V52.5C8.75 54.0471 9.36458 55.5308 10.4585 56.6248C11.5525 57.7187 13.0362 58.3333 14.5833 58.3333H35C36.5471 58.3333 38.0308 57.7187 39.1248 56.6248C40.2188 55.5308 40.8333 54.0471 40.8333 52.5V46.6667M26.25 35H61.25M61.25 35L52.5 26.25M61.25 35L52.5 43.75" stroke="#757575" stroke-width="4" stroke-linecap="round" stroke-linejoin="round"/>
</svg>
