<svg width="70" height="70" viewBox="0 0 70 70" fill="none" xmlns="http://www.w3.org/2000/svg">
<path d="M46.6667 17.5H55.4167C56.1902 17.5 56.9321 17.8073 57.4791 18.3543C58.0261 18.9013 58.3334 19.6431 58.3334 20.4167V52.5C58.3334 54.0471 57.7188 55.5308 56.6248 56.6248C55.5308 57.7188 54.0471 58.3334 52.5 58.3334M52.5 58.3334C50.9529 58.3334 49.4692 57.7188 48.3752 56.6248C47.2813 55.5308 46.6667 54.0471 46.6667 52.5V14.5834C46.6667 13.8098 46.3594 13.0679 45.8124 12.521C45.2654 11.974 44.5236 11.6667 43.75 11.6667H14.5834C13.8098 11.6667 13.0679 11.974 12.521 12.521C11.974 13.0679 11.6667 13.8098 11.6667 14.5834V49.5834C11.6667 51.904 12.5886 54.1296 14.2295 55.7705C15.8704 57.4115 18.096 58.3334 20.4167 58.3334H52.5ZM23.3334 23.3334H35M23.3334 35H35M23.3334 46.6667H35" stroke="#C9A227" stroke-width="4" stroke-linecap="round" stroke-linejoin="round"/>
</svg>
