<svg width="70" height="70" viewBox="0 0 70 70" fill="none" xmlns="http://www.w3.org/2000/svg">
<path d="M24.0421 21.4083L5.43377 24.1062L5.10419 24.1733C4.60526 24.3057 4.15042 24.5682 3.78612 24.934C3.42182 25.2997 3.16111 25.7556 3.03062 26.255C2.90012 26.7544 2.90452 27.2796 3.04335 27.7768C3.18218 28.2739 3.45048 28.7254 3.82085 29.085L17.3017 42.207L14.1225 60.7425L14.0846 61.0633C14.0541 61.5793 14.1612 62.0942 14.3951 62.5552C14.629 63.0162 14.9811 63.4067 15.4156 63.6869C15.85 63.967 16.3511 64.1266 16.8675 64.1494C17.384 64.1722 17.8972 64.0574 18.3546 63.8166L34.9971 55.0666L51.6017 63.8166L51.8933 63.9508C52.3748 64.1404 52.898 64.1986 53.4093 64.1193C53.9206 64.0399 54.4016 63.826 54.803 63.4995C55.2044 63.1729 55.5116 62.7455 55.6933 62.261C55.8749 61.7765 55.9244 61.2524 55.8367 60.7425L52.6546 42.207L66.1413 29.082L66.3688 28.8341C66.6937 28.4339 66.9068 27.9546 66.9863 27.4452C67.0657 26.9358 67.0088 26.4144 66.8211 25.9342C66.6335 25.454 66.3219 25.0321 65.9181 24.7115C65.5143 24.3909 65.0328 24.183 64.5225 24.1091L45.9142 21.4083L37.5959 4.54996C37.3552 4.06152 36.9825 3.65021 36.5202 3.3626C36.0578 3.07498 35.5241 2.92255 34.9796 2.92255C34.4351 2.92255 33.9014 3.07498 33.439 3.3626C32.9767 3.65021 32.604 4.06152 32.3634 4.54996L24.0421 21.4083Z" fill="#C9A227"/>
</svg>
