<svg width="70" height="70" viewBox="0 0 70 70" fill="none" xmlns="http://www.w3.org/2000/svg">
<path d="M8.75 29.1666H61.25M20.4167 43.75H20.4458M32.0833 43.75H37.9167M8.75 23.3333C8.75 21.0127 9.67187 18.7871 11.3128 17.1461C12.9538 15.5052 15.1794 14.5833 17.5 14.5833H52.5C54.8206 14.5833 57.0462 15.5052 58.6872 17.1461C60.3281 18.7871 61.25 21.0127 61.25 23.3333V46.6666C61.25 48.9873 60.3281 51.2129 58.6872 52.8538C57.0462 54.4948 54.8206 55.4166 52.5 55.4166H17.5C15.1794 55.4166 12.9538 54.4948 11.3128 52.8538C9.67187 51.2129 8.75 48.9873 8.75 46.6666V23.3333Z" stroke="#C9A227" stroke-width="4" stroke-linecap="round" stroke-linejoin="round"/>
</svg>
