<svg width="70" height="70" viewBox="0 0 70 70" fill="none" xmlns="http://www.w3.org/2000/svg">
<path d="M49.5833 9.7417C53.9824 12.2817 57.6419 15.9266 60.1994 20.3155C62.757 24.7044 64.1239 29.6852 64.165 34.7648C64.206 39.8443 62.9197 44.8466 60.4334 49.2762C57.947 53.7059 54.3469 57.4094 49.9894 60.0201C45.6319 62.6309 40.6681 64.0583 35.5894 64.1611C30.5107 64.2638 25.4932 63.0384 21.0337 60.6062C16.5741 58.1739 12.8271 54.6191 10.1636 50.2936C7.50008 45.9682 6.01242 41.0221 5.8479 35.945L5.83331 35L5.8479 34.055C6.01124 29.0179 7.47699 24.1091 10.1023 19.8071C12.7275 15.5051 16.4227 11.9568 20.8276 9.50802C25.2324 7.05928 30.1967 5.79369 35.2362 5.83464C40.2758 5.8756 45.2188 7.22169 49.5833 9.7417ZM30.6571 26.6584C30.046 26.2946 29.323 26.1666 28.6242 26.2985C27.9253 26.4304 27.2988 26.8131 26.8623 27.3746C26.4259 27.9361 26.2096 28.6378 26.2542 29.3475C26.2988 30.0573 26.6012 30.7263 27.1046 31.2288L30.8729 35L27.1046 38.7713L26.8625 39.0454C26.4092 39.6317 26.196 40.3685 26.2663 41.1062C26.3366 41.8438 26.685 42.5271 27.2408 43.0172C27.7966 43.5073 28.5182 43.7675 29.2589 43.7449C29.9995 43.7222 30.7039 43.4185 31.2287 42.8954L35 39.1271L38.7712 42.8954L39.0454 43.1375C39.6316 43.5908 40.3684 43.804 41.1061 43.7337C41.8438 43.6634 42.5271 43.315 43.0172 42.7592C43.5073 42.2034 43.7674 41.4818 43.7448 40.7412C43.7222 40.0005 43.4185 39.2962 42.8954 38.7713L39.1271 35L42.8954 31.2288L43.1375 30.9546C43.5908 30.3684 43.8039 29.6316 43.7336 28.8939C43.6634 28.1562 43.3149 27.4729 42.7591 26.9828C42.2033 26.4927 41.4818 26.2326 40.7411 26.2552C40.0004 26.2778 39.2961 26.5815 38.7712 27.1046L35 30.8729L31.2287 27.1046L30.9546 26.8625L30.6571 26.6584Z" fill="#C9A227"/>
</svg>
