<svg width="70" height="70" viewBox="0 0 70 70" fill="none" xmlns="http://www.w3.org/2000/svg">
<path d="M23.3333 26.25H46.6667M23.3333 37.9167H40.8333M37.9167 58.3334L35 61.25L26.25 52.5H17.5C15.1794 52.5 12.9538 51.5782 11.3128 49.9372C9.67187 48.2963 8.75 46.0707 8.75 43.75V20.4167C8.75 18.096 9.67187 15.8704 11.3128 14.2295C12.9538 12.5886 15.1794 11.6667 17.5 11.6667H52.5C54.8206 11.6667 57.0462 12.5886 58.6872 14.2295C60.3281 15.8704 61.25 18.096 61.25 20.4167V36.4584M55.4167 46.6667L49.5833 55.4167H61.25L55.4167 64.1667" stroke="#C9A227" stroke-width="4" stroke-linecap="round" stroke-linejoin="round"/>
</svg>
