<svg width="70" height="70" viewBox="0 0 70 70" fill="none" xmlns="http://www.w3.org/2000/svg">
<path d="M17.5 5.83333C18.2144 5.83343 18.9039 6.0957 19.4378 6.57042C19.9716 7.04513 20.3127 7.69927 20.3962 8.40875L20.4167 8.75V11.865L58.5404 14.5921C59.2898 14.6452 59.9897 14.9853 60.4945 15.5417C60.9993 16.0981 61.2699 16.8278 61.25 17.5787L61.2208 17.9112L58.3042 38.3279C58.2134 38.9673 57.913 39.5584 57.4501 40.0087C56.9871 40.4589 56.3879 40.7428 55.7463 40.8158L55.4167 40.8333H20.4167V46.6667H49.5833C51.292 46.6668 52.9633 47.1671 54.3909 48.1061C55.8185 49.045 56.94 50.3814 57.6169 51.9503C58.2938 53.5191 58.4966 55.2519 58.2002 56.9347C57.9037 58.6175 57.1211 60.1767 55.9488 61.4198C54.7765 62.6629 53.2659 63.5356 51.6033 63.9302C49.9408 64.3247 48.1992 64.2239 46.5933 63.6401C44.9874 63.0563 43.5876 62.0151 42.5666 60.645C41.5456 59.2748 40.9482 57.6358 40.8479 55.93L40.8333 55.4167L40.8479 54.9033C40.8975 54.0633 41.0637 53.2583 41.3321 52.5H25.7513C26.1675 53.6808 26.3256 54.9371 26.2147 56.1842C26.1038 57.4313 25.7266 58.6401 25.1085 59.7289C24.4904 60.8177 23.6459 61.7612 22.6319 62.4957C21.618 63.2301 20.4582 63.7384 19.2309 63.9862C18.0037 64.234 16.7376 64.2156 15.5181 63.9321C14.2986 63.6487 13.1541 63.1068 12.162 62.3431C11.1698 61.5794 10.3531 60.6118 9.76703 59.5054C9.18093 58.399 8.83909 57.1798 8.76458 55.93L8.75 55.4167L8.76458 54.9033C8.86551 53.1838 9.4714 51.5322 10.5064 50.1553C11.5414 48.7784 12.9596 47.7373 14.5833 47.1625V11.6667H11.6667C10.9523 11.6666 10.2628 11.4043 9.72892 10.9296C9.19506 10.4549 8.854 9.80073 8.77042 9.09125L8.75 8.75C8.75009 8.03561 9.01237 7.3461 9.48709 6.81225C9.9618 6.2784 10.6159 5.93733 11.3254 5.85375L11.6667 5.83333H17.5ZM17.5 52.5C16.7265 52.5 15.9846 52.8073 15.4376 53.3543C14.8906 53.9012 14.5833 54.6431 14.5833 55.4167C14.5833 56.1902 14.8906 56.9321 15.4376 57.4791C15.9846 58.026 16.7265 58.3333 17.5 58.3333C18.2735 58.3333 19.0154 58.026 19.5624 57.4791C20.1094 56.9321 20.4167 56.1902 20.4167 55.4167C20.4167 54.6431 20.1094 53.9012 19.5624 53.3543C19.0154 52.8073 18.2735 52.5 17.5 52.5ZM49.5833 52.5C48.8098 52.5 48.0679 52.8073 47.5209 53.3543C46.974 53.9012 46.6667 54.6431 46.6667 55.4167C46.6667 56.1902 46.974 56.9321 47.5209 57.4791C48.0679 58.026 48.8098 58.3333 49.5833 58.3333C50.3569 58.3333 51.0987 58.026 51.6457 57.4791C52.1927 56.9321 52.5 56.1902 52.5 55.4167C52.5 54.6431 52.1927 53.9012 51.6457 53.3543C51.0987 52.8073 50.3569 52.5 49.5833 52.5Z" fill="#C9A227"/>
</svg>
