<svg width="70" height="70" viewBox="0 0 70 70" fill="none" xmlns="http://www.w3.org/2000/svg">
<g clip-path="url(#clip0_19255_666)">
<path d="M14.5834 29.1666C14.5834 34.5815 16.7344 39.7745 20.5633 43.6034C24.3921 47.4323 29.5852 49.5833 35 49.5833M35 49.5833C40.4149 49.5833 45.6079 47.4323 49.4368 43.6034C53.2657 39.7745 55.4167 34.5815 55.4167 29.1666M35 49.5833V61.25M23.3334 61.25H46.6667M26.25 14.5833C26.25 12.2627 27.1719 10.0371 28.8129 8.39613C30.4538 6.75519 32.6794 5.83331 35 5.83331C37.3207 5.83331 39.5463 6.75519 41.1872 8.39613C42.8282 10.0371 43.75 12.2627 43.75 14.5833V29.1666C43.75 31.4873 42.8282 33.7129 41.1872 35.3538C39.5463 36.9948 37.3207 37.9166 35 37.9166C32.6794 37.9166 30.4538 36.9948 28.8129 35.3538C27.1719 33.7129 26.25 31.4873 26.25 29.1666V14.5833Z" stroke="#757575" stroke-width="4" stroke-linecap="round" stroke-linejoin="round"/>
</g>
<defs>
<clipPath id="clip0_19255_666">
<rect width="70" height="70" fill="white"/>
</clipPath>
</defs>
</svg>
