<svg width="70" height="70" viewBox="0 0 70 70" fill="none" xmlns="http://www.w3.org/2000/svg">
<path d="M26.25 14.5833C26.25 13.8098 25.9427 13.0679 25.3957 12.5209C24.8488 11.9739 24.1069 11.6666 23.3333 11.6666H17.5C16.7265 11.6666 15.9846 11.9739 15.4376 12.5209C14.8906 13.0679 14.5833 13.8098 14.5833 14.5833V55.4166C14.5833 56.1902 14.8906 56.9321 15.4376 57.479C15.9846 58.026 16.7265 58.3333 17.5 58.3333H23.3333C24.1069 58.3333 24.8488 58.026 25.3957 57.479C25.9427 56.9321 26.25 56.1902 26.25 55.4166M26.25 14.5833V55.4166M26.25 14.5833C26.25 13.8098 26.5573 13.0679 27.1043 12.5209C27.6513 11.9739 28.3931 11.6666 29.1667 11.6666H35C35.7736 11.6666 36.5154 11.9739 37.0624 12.5209C37.6094 13.0679 37.9167 13.8098 37.9167 14.5833V55.4166C37.9167 56.1902 37.6094 56.9321 37.0624 57.479C36.5154 58.026 35.7736 58.3333 35 58.3333H29.1667C28.3931 58.3333 27.6513 58.026 27.1043 57.479C26.5573 56.9321 26.25 56.1902 26.25 55.4166M14.5833 23.3333H26.25M26.25 46.6666H37.9167M40.8333 26.25L52.5 23.3333M46.6667 46.6667L58.1088 43.8084M40.2588 13.2999L46.6288 11.7541C48.2679 11.3603 49.9333 12.3083 50.3679 13.8891L61.145 53.0249C61.3351 53.7414 61.2509 54.503 60.9089 55.1607C60.5669 55.8183 59.9916 56.3246 59.2958 56.5803L58.9079 56.6999L52.5379 58.2457C50.8988 58.6395 49.2333 57.6916 48.7988 56.1108L38.0217 16.9749C37.8315 16.2584 37.9158 15.4968 38.2578 14.8391C38.5998 14.1815 39.1751 13.6752 39.8708 13.4195L40.2588 13.2999Z" stroke="#C9A227" stroke-width="4" stroke-linecap="round" stroke-linejoin="round"/>
</svg>
