<svg width="70" height="70" viewBox="0 0 70 70" fill="none" xmlns="http://www.w3.org/2000/svg">
<path d="M26.25 14.5833H20.4167C18.8696 14.5833 17.3858 15.1979 16.2919 16.2919C15.1979 17.3858 14.5833 18.8696 14.5833 20.4167V55.4167C14.5833 56.9638 15.1979 58.4475 16.2919 59.5415C17.3858 60.6354 18.8696 61.25 20.4167 61.25H49.5833C51.1304 61.25 52.6142 60.6354 53.7081 59.5415C54.8021 58.4475 55.4167 56.9638 55.4167 55.4167V20.4167C55.4167 18.8696 54.8021 17.3858 53.7081 16.2919C52.6142 15.1979 51.1304 14.5833 49.5833 14.5833H43.75M26.25 14.5833C26.25 13.0362 26.8646 11.5525 27.9585 10.4585C29.0525 9.36458 30.5362 8.75 32.0833 8.75H37.9167C39.4638 8.75 40.9475 9.36458 42.0415 10.4585C43.1354 11.5525 43.75 13.0362 43.75 14.5833M26.25 14.5833C26.25 16.1304 26.8646 17.6142 27.9585 18.7081C29.0525 19.8021 30.5362 20.4167 32.0833 20.4167H37.9167C39.4638 20.4167 40.9475 19.8021 42.0415 18.7081C43.1354 17.6142 43.75 16.1304 43.75 14.5833M26.25 40.8333L32.0833 46.6667L43.75 35" stroke="#757575" stroke-width="4" stroke-linecap="round" stroke-linejoin="round"/>
</svg>
