<svg width="70" height="70" viewBox="0 0 70 70" fill="none" xmlns="http://www.w3.org/2000/svg">
<path d="M35 23.3334V61.25M35 23.3334C33.945 18.9858 32.1284 15.269 29.7871 12.6676C27.4459 10.0662 24.6887 8.70103 21.875 8.75005C19.9411 8.75005 18.0865 9.51828 16.719 10.8857C15.3516 12.2532 14.5833 14.1079 14.5833 16.0417C14.5833 17.9756 15.3516 19.8303 16.719 21.1977C18.0865 22.5652 19.9411 23.3334 21.875 23.3334M35 23.3334C36.055 18.9858 37.8716 15.269 40.2129 12.6676C42.5541 10.0662 45.3113 8.70103 48.125 8.75005C50.0589 8.75005 51.9135 9.51828 53.281 10.8857C54.6484 12.2532 55.4167 14.1079 55.4167 16.0417C55.4167 17.9756 54.6484 19.8303 53.281 21.1977C51.9135 22.5652 50.0589 23.3334 48.125 23.3334M55.4167 35V55.4167C55.4167 56.9638 54.8021 58.4475 53.7081 59.5415C52.6142 60.6354 51.1304 61.25 49.5833 61.25H20.4167C18.8696 61.25 17.3858 60.6354 16.2919 59.5415C15.1979 58.4475 14.5833 56.9638 14.5833 55.4167V35M8.75 26.25C8.75 25.4765 9.05729 24.7346 9.60427 24.1876C10.1513 23.6407 10.8931 23.3334 11.6667 23.3334H58.3333C59.1069 23.3334 59.8488 23.6407 60.3957 24.1876C60.9427 24.7346 61.25 25.4765 61.25 26.25V32.0834C61.25 32.8569 60.9427 33.5988 60.3957 34.1458C59.8488 34.6927 59.1069 35 58.3333 35H11.6667C10.8931 35 10.1513 34.6927 9.60427 34.1458C9.05729 33.5988 8.75 32.8569 8.75 32.0834V26.25Z" stroke="#757575" stroke-width="4" stroke-linecap="round" stroke-linejoin="round"/>
</svg>
