<svg width="70" height="70" viewBox="0 0 70 70" fill="none" xmlns="http://www.w3.org/2000/svg">
<path d="M49.5833 9.7417C53.9824 12.2817 57.6419 15.9266 60.1994 20.3155C62.757 24.7044 64.1239 29.6852 64.165 34.7648C64.206 39.8443 62.9197 44.8466 60.4334 49.2762C57.947 53.7059 54.3469 57.4094 49.9894 60.0201C45.6319 62.6309 40.6681 64.0583 35.5894 64.1611C30.5107 64.2638 25.4932 63.0384 21.0337 60.6062C16.5741 58.1739 12.8271 54.6191 10.1636 50.2936C7.50008 45.9682 6.01242 41.0221 5.8479 35.945L5.83331 35L5.8479 34.055C6.01124 29.0179 7.47699 24.1091 10.1023 19.8071C12.7275 15.5051 16.4227 11.9568 20.8276 9.50802C25.2324 7.05928 30.1967 5.79369 35.2362 5.83464C40.2758 5.8756 45.2188 7.22169 49.5833 9.7417ZM45.8121 27.1046C45.3098 26.6024 44.6416 26.3008 43.9328 26.2562C43.224 26.2116 42.5232 26.4272 41.9621 26.8625L41.6879 27.1046L32.0833 36.7063L28.3121 32.938L28.0379 32.6959C27.4767 32.2609 26.7761 32.0455 26.0674 32.0902C25.3588 32.1349 24.6908 32.4366 24.1887 32.9387C23.6866 33.4408 23.3849 34.1088 23.3402 34.8175C23.2955 35.5261 23.5108 36.2267 23.9458 36.7879L24.1879 37.0621L30.0212 42.8954L30.2954 43.1375C30.8069 43.5344 31.4359 43.7498 32.0833 43.7498C32.7307 43.7498 33.3597 43.5344 33.8712 43.1375L34.1454 42.8954L45.8121 31.2288L46.0541 30.9546C46.4895 30.3934 46.7051 29.6927 46.6605 28.9839C46.6159 28.2751 46.3142 27.6068 45.8121 27.1046Z" fill="#C9A227"/>
</svg>
