<svg width="70" height="70" viewBox="0 0 70 70" fill="none" xmlns="http://www.w3.org/2000/svg">
<path d="M23.3334 11.6666V58.3333M46.6667 11.6666V58.3333M11.6667 23.3333H23.3334M11.6667 46.6666H23.3334M11.6667 35H58.3334M46.6667 23.3333H58.3334M46.6667 46.6666H58.3334M11.6667 17.5C11.6667 15.9529 12.2813 14.4691 13.3752 13.3752C14.4692 12.2812 15.9529 11.6666 17.5 11.6666H52.5C54.0471 11.6666 55.5308 12.2812 56.6248 13.3752C57.7188 14.4691 58.3334 15.9529 58.3334 17.5V52.5C58.3334 54.0471 57.7188 55.5308 56.6248 56.6247C55.5308 57.7187 54.0471 58.3333 52.5 58.3333H17.5C15.9529 58.3333 14.4692 57.7187 13.3752 56.6247C12.2813 55.5308 11.6667 54.0471 11.6667 52.5V17.5Z" stroke="#C9A227" stroke-width="4" stroke-linecap="round" stroke-linejoin="round"/>
</svg>
