<svg width="70" height="70" viewBox="0 0 70 70" fill="none" xmlns="http://www.w3.org/2000/svg">
<path d="M52.5 55.4167L57.1433 50.7733C59.7793 48.1369 61.2602 44.5615 61.2602 40.8333C61.2602 37.1052 59.7793 33.5297 57.1433 30.8933L43.75 17.5M20.4166 29.1667H20.3875M8.75 23.3333V35.5017C8.75033 37.0486 9.36513 38.5321 10.4592 39.6258L27.1133 56.28C28.4315 57.598 30.2193 58.3384 32.0833 58.3384C33.9474 58.3384 35.7351 57.598 37.0533 56.28L47.53 45.8033C48.848 44.4851 49.5884 42.6974 49.5884 40.8333C49.5884 38.9693 48.848 37.1815 47.53 35.8633L30.8758 19.2092C29.7821 18.1151 28.2986 17.5003 26.7517 17.5H14.5833C13.0362 17.5 11.5525 18.1146 10.4585 19.2085C9.36458 20.3025 8.75 21.7862 8.75 23.3333Z" stroke="#C9A227" stroke-width="4" stroke-linecap="round" stroke-linejoin="round"/>
</svg>
