<svg width="70" height="70" viewBox="0 0 70 70" fill="none" xmlns="http://www.w3.org/2000/svg">
<path d="M52.5 23.3333C54.8206 23.3333 57.0462 24.2552 58.6872 25.8961C60.3281 27.5371 61.25 29.7627 61.25 32.0833C61.25 34.404 60.3281 36.6296 58.6872 38.2705C57.0462 39.9114 54.8206 40.8333 52.5 40.8333M29.1667 23.3333V55.4166C29.1667 56.1902 28.8594 56.9321 28.3124 57.479C27.7654 58.026 27.0235 58.3333 26.25 58.3333H23.3333C22.5598 58.3333 21.8179 58.026 21.2709 57.479C20.724 56.9321 20.4167 56.1902 20.4167 55.4166V40.8333M35 23.3332L48.195 12.3373C48.5784 12.018 49.0449 11.8145 49.5398 11.7508C50.0347 11.6871 50.5375 11.7657 50.9893 11.9776C51.4411 12.1894 51.8232 12.5256 52.0907 12.9468C52.3583 13.368 52.5003 13.8567 52.5 14.3557V49.8107C52.5003 50.3096 52.3583 50.7984 52.0907 51.2196C51.8232 51.6407 51.4411 51.9769 50.9893 52.1888C50.5375 52.4006 50.0347 52.4792 49.5398 52.4155C49.0449 52.3518 48.5784 52.1483 48.195 51.829L35 40.8332H11.6667C10.8931 40.8332 10.1513 40.5259 9.60427 39.9789C9.05729 39.4319 8.75 38.69 8.75 37.9165V26.2498C8.75 25.4763 9.05729 24.7344 9.60427 24.1874C10.1513 23.6405 10.8931 23.3332 11.6667 23.3332H35Z" stroke="#757575" stroke-width="4" stroke-linecap="round" stroke-linejoin="round"/>
</svg>
