<svg width="70" height="70" viewBox="0 0 70 70" fill="none" xmlns="http://www.w3.org/2000/svg">
<path d="M17.5 49.5833C19.0471 49.5833 20.5308 50.1979 21.6248 51.2919C22.7188 52.3858 23.3334 53.8696 23.3334 55.4167C23.3334 56.9638 22.7188 58.4475 21.6248 59.5415C20.5308 60.6354 19.0471 61.25 17.5 61.25C15.9529 61.25 14.4692 60.6354 13.3752 59.5415C12.2813 58.4475 11.6667 56.9638 11.6667 55.4167C11.6667 53.8696 12.2813 52.3858 13.3752 51.2919C14.4692 50.1979 15.9529 49.5833 17.5 49.5833ZM17.5 49.5833H49.5834M17.5 49.5833V8.75H11.6667M49.5834 49.5833C51.1305 49.5833 52.6142 50.1979 53.7081 51.2919C54.8021 52.3858 55.4167 53.8696 55.4167 55.4167C55.4167 56.9638 54.8021 58.4475 53.7081 59.5415C52.6142 60.6354 51.1305 61.25 49.5834 61.25C48.0363 61.25 46.5525 60.6354 45.4586 59.5415C44.3646 58.4475 43.75 56.9638 43.75 55.4167C43.75 53.8696 44.3646 52.3858 45.4586 51.2919C46.5525 50.1979 48.0363 49.5833 49.5834 49.5833ZM17.5 14.5833L58.3334 17.5L55.4167 37.9167H17.5" stroke="#C9A227" stroke-width="4" stroke-linecap="round" stroke-linejoin="round"/>
</svg>
