<svg width="70" height="70" viewBox="0 0 70 70" fill="none" xmlns="http://www.w3.org/2000/svg">
<g clip-path="url(#clip0_19340_1189)">
<path d="M27.5 20V12.5C27.5 10.5109 28.2902 8.60322 29.6967 7.1967C31.1032 5.79018 33.0109 5 35 5H61.25C63.2391 5 65.1468 5.79018 66.5533 7.1967C67.9598 8.60322 68.75 10.5109 68.75 12.5V57.5C68.75 59.4891 67.9598 61.3968 66.5533 62.8033C65.1468 64.2098 63.2391 65 61.25 65H35C33.0109 65 31.1032 64.2098 29.6967 62.8033C28.2902 61.3968 27.5 59.4891 27.5 57.5V50M46.25 35H1.25M1.25 35L12.5 23.75M1.25 35L12.5 46.25" stroke="#C9A227" stroke-width="4" stroke-linecap="round" stroke-linejoin="round"/>
</g>
<defs>
<clipPath id="clip0_19340_1189">
<rect width="70" height="70" fill="white"/>
</clipPath>
</defs>
</svg>
