<?xml version="1.0" encoding="utf-8"?>
<!-- Generator: Adobe Illustrator 27.3.1, SVG Export Plug-In . SVG Version: 6.00 Build 0)  -->
<svg version="1.1" id="Layer_1" xmlns="http://www.w3.org/2000/svg" xmlns:xlink="http://www.w3.org/1999/xlink" x="0px" y="0px"
	 viewBox="0 0 32 32" style="enable-background:new 0 0 32 32;" xml:space="preserve">
<style type="text/css">
	.st0{fill:#0A305E;}
	.st1{fill:#F7C948;}
	.st2{fill-rule:evenodd;clip-rule:evenodd;fill:#F7C948;}
	.st3{fill-rule:evenodd;clip-rule:evenodd;fill:#F4D487;}
	.st4{fill-rule:evenodd;clip-rule:evenodd;fill:#F4E6C3;}
</style>
<g>
	<path class="st0" d="M16,30.67C7.91,30.67,1.33,24.09,1.33,16C1.33,7.91,7.91,1.33,16,1.33c8.09,0,14.67,6.58,14.67,14.67
		C30.67,24.09,24.09,30.67,16,30.67L16,30.67z"/>
	<path class="st1" d="M16,1.83c7.83,0,14.17,6.35,14.17,14.17v0c0,7.83-6.35,14.17-14.17,14.17h0C8.17,30.17,1.83,23.83,1.83,16v0
		C1.83,8.17,8.17,1.83,16,1.83L16,1.83 M16,0.83L16,0.83C7.63,0.83,0.83,7.63,0.83,16c0,8.37,6.81,15.17,15.17,15.17
		c8.37,0,15.17-6.81,15.17-15.17C31.17,7.63,24.37,0.83,16,0.83L16,0.83z"/>
</g>
<g>
	<path class="st1" d="M23.32,8.14l-3,2.93c-0.77-0.72-2.12-1.58-4.11-1.58c-2.81,0-5.19,1.85-6.06,4.42
		c-0.21,0.66-0.34,1.37-0.34,2.1c0,0.73,0.13,1.44,0.35,2.1l-3.45,2.67C6,19.33,5.58,17.71,5.58,16c0-1.71,0.41-3.33,1.13-4.77
		c1.75-3.47,5.34-5.86,9.49-5.86C19.08,5.37,21.48,6.42,23.32,8.14z"/>
	<path class="st1" d="M26.42,16.24c0,3.23-1.16,5.96-3.16,7.82c-1.76,1.63-4.17,2.57-7.04,2.57c-4.16,0-7.73-2.39-9.48-5.86
		l3.44-2.67c0.85,2.56,3.23,4.42,6.04,4.42c1.58,0,2.79-0.44,3.68-1.06c1.42-0.99,2.05-2.47,2.17-3.45h-5.86v-3.95h9.98
		C26.35,14.72,26.42,15.36,26.42,16.24z"/>
</g>
</svg>
