<?xml version="1.0" encoding="utf-8"?>
<!-- Generator: Adobe Illustrator 27.3.1, SVG Export Plug-In . SVG Version: 6.00 Build 0)  -->
<svg version="1.1" id="Layer_1" xmlns="http://www.w3.org/2000/svg" xmlns:xlink="http://www.w3.org/1999/xlink" x="0px" y="0px"
	 viewBox="0 0 32 32" style="enable-background:new 0 0 32 32;" xml:space="preserve">
<style type="text/css">
	.st0{fill:#0A305E;}
	.st1{fill:#F7C948;}
	.st2{fill-rule:evenodd;clip-rule:evenodd;fill:#F7C948;}
	.st3{fill-rule:evenodd;clip-rule:evenodd;fill:#F4D487;}
	.st4{fill-rule:evenodd;clip-rule:evenodd;fill:#F4E6C3;}
</style>
<g>
	<path class="st0" d="M16,30.67C7.91,30.67,1.33,24.09,1.33,16S7.91,1.33,16,1.33c8.09,0,14.67,6.58,14.67,14.67
		C30.67,24.09,24.09,30.67,16,30.67z"/>
	<path class="st1" d="M16,1.83c7.83,0,14.17,6.35,14.17,14.17v0c0,7.83-6.35,14.17-14.17,14.17h0C8.17,30.17,1.83,23.83,1.83,16v0
		C1.83,8.17,8.17,1.83,16,1.83L16,1.83 M16,0.83L16,0.83C7.63,0.83,0.83,7.63,0.83,16c0,8.37,6.81,15.17,15.17,15.17
		c8.37,0,15.17-6.81,15.17-15.17C31.17,7.63,24.37,0.83,16,0.83L16,0.83z"/>
</g>
<g>
	<path class="st3" d="M20.53,13.05c1.42,1.01,3.13,1.55,4.87,1.55v-3.46c-0.34,0-0.69-0.04-1.02-0.11v2.76
		c-1.75,0-3.46-0.54-4.88-1.56v7.12c0,1.17-0.32,2.31-0.93,3.31c-0.6,1-1.46,1.82-2.49,2.37c-1.03,0.55-2.19,0.81-3.36,0.76
		s-2.3-0.43-3.27-1.07c0.9,0.91,2.05,1.53,3.31,1.79c1.25,0.26,2.56,0.14,3.74-0.35c1.19-0.48,2.2-1.31,2.92-2.37
		c0.72-1.06,1.1-2.31,1.11-3.59V13.05z M21.8,9.52c-0.72-0.78-1.17-1.79-1.26-2.85V6.22h-0.97c0.12,0.68,0.38,1.32,0.76,1.89
		C20.71,8.68,21.21,9.16,21.8,9.52z M11.7,21.97c-0.34-0.44-0.54-0.96-0.59-1.51c-0.05-0.55,0.05-1.1,0.3-1.6
		c0.25-0.49,0.63-0.91,1.1-1.2c0.47-0.29,1.01-0.44,1.57-0.43c0.31,0,0.61,0.05,0.9,0.14v-3.58c-0.34-0.05-0.68-0.06-1.03-0.06v2.78
		c-0.71-0.22-1.48-0.17-2.15,0.14c-0.67,0.32-1.2,0.87-1.48,1.56c-0.28,0.69-0.29,1.46-0.03,2.15c0.26,0.7,0.77,1.27,1.44,1.6H11.7z
		"/>
	<path class="st2" d="M19.51,12.2c1.42,1.02,3.13,1.57,4.88,1.56V11c-1-0.21-1.9-0.73-2.59-1.48c-0.58-0.36-1.08-0.84-1.47-1.41
		c-0.38-0.57-0.65-1.21-0.76-1.89h-2.55v13.96c0,0.62-0.2,1.22-0.56,1.72c-0.36,0.5-0.87,0.88-1.46,1.07
		c-0.59,0.2-1.22,0.2-1.81,0.02c-0.59-0.18-1.11-0.54-1.48-1.03c-0.59-0.3-1.07-0.79-1.35-1.39c-0.28-0.6-0.35-1.28-0.2-1.93
		c0.15-0.65,0.52-1.22,1.04-1.64c0.52-0.41,1.17-0.64,1.83-0.64c0.31,0,0.61,0.05,0.9,0.14v-2.78c-1.26,0.03-2.48,0.43-3.52,1.14
		c-1.04,0.72-1.84,1.72-2.32,2.88c-0.47,1.17-0.6,2.45-0.36,3.68c0.24,1.24,0.84,2.37,1.72,3.27c0.97,0.65,2.11,1.02,3.27,1.08
		c1.17,0.06,2.33-0.2,3.36-0.75c1.03-0.55,1.9-1.37,2.5-2.37c0.6-1,0.92-2.15,0.93-3.32L19.51,12.2z"/>
	<path class="st4" d="M24.38,11l0-0.74c-0.92,0-1.81-0.25-2.59-0.74C22.48,10.28,23.39,10.8,24.38,11z M19.56,6.22
		c0-0.13-0.04-0.27-0.06-0.4V5.37h-3.52v13.97c0,0.78-0.32,1.53-0.87,2.08c-0.55,0.55-1.31,0.86-2.09,0.86
		c-0.46,0-0.91-0.1-1.33-0.31c0.37,0.49,0.89,0.85,1.48,1.03c0.59,0.18,1.22,0.17,1.81-0.02c0.59-0.2,1.1-0.57,1.46-1.07
		c0.36-0.5,0.56-1.1,0.56-1.72V6.22H19.56z M13.93,13.72v-0.79c-1.45-0.2-2.92,0.1-4.17,0.85s-2.22,1.9-2.74,3.26
		C6.5,18.41,6.46,19.91,6.9,21.3c0.44,1.39,1.35,2.59,2.56,3.41c-0.87-0.9-1.46-2.04-1.7-3.27c-0.24-1.23-0.11-2.51,0.37-3.67
		c0.48-1.16,1.28-2.16,2.31-2.87c1.03-0.71,2.25-1.11,3.51-1.14L13.93,13.72z"/>
</g>
</svg>
