<?xml version="1.0" encoding="utf-8"?>
<!-- Generator: Adobe Illustrator 27.3.1, SVG Export Plug-In . SVG Version: 6.00 Build 0)  -->
<svg version="1.1" id="Layer_1" xmlns="http://www.w3.org/2000/svg" xmlns:xlink="http://www.w3.org/1999/xlink" x="0px" y="0px"
	 viewBox="0 0 32 32" style="enable-background:new 0 0 32 32;" xml:space="preserve">
<style type="text/css">
	.st0{fill:#0A305E;}
	.st1{fill:#F7C948;}
	.st2{fill-rule:evenodd;clip-rule:evenodd;fill:#F7C948;}
	.st3{fill-rule:evenodd;clip-rule:evenodd;fill:#F4D487;}
	.st4{fill-rule:evenodd;clip-rule:evenodd;fill:#F4E6C3;}
</style>
<g>
	<path class="st0" d="M16,30.67C7.91,30.67,1.33,24.09,1.33,16C1.33,7.91,7.91,1.33,16,1.33c8.09,0,14.67,6.58,14.67,14.67
		C30.67,24.09,24.09,30.67,16,30.67z"/>
	<path class="st1" d="M16,1.83c7.83,0,14.17,6.35,14.17,14.17v0c0,7.83-6.35,14.17-14.17,14.17h0C8.17,30.17,1.83,23.83,1.83,16v0
		C1.83,8.17,8.17,1.83,16,1.83L16,1.83 M16,0.83L16,0.83C7.63,0.83,0.83,7.63,0.83,16c0,8.37,6.81,15.17,15.17,15.17
		c8.37,0,15.17-6.81,15.17-15.17C31.17,7.63,24.37,0.83,16,0.83L16,0.83z"/>
</g>
<path class="st1" d="M20.97,17.33l0.61-3.85h-3.73v-2.5c0-1.05,0.52-2.08,2.19-2.08h1.72V5.63c-1-0.16-2.01-0.25-3.03-0.26
	c-3.07,0-5.08,1.84-5.08,5.18v2.93h-3.4v3.85h3.4v9.3h4.2v-9.3H20.97z"/>
</svg>
