<?xml version="1.0" encoding="utf-8"?>
<!-- Generator: Adobe Illustrator 27.3.1, SVG Export Plug-In . SVG Version: 6.00 Build 0)  -->
<svg version="1.1" id="Layer_1" xmlns="http://www.w3.org/2000/svg" xmlns:xlink="http://www.w3.org/1999/xlink" x="0px" y="0px"
	 viewBox="0 0 32 32" style="enable-background:new 0 0 32 32;" xml:space="preserve">
<style type="text/css">
	.st0{fill:#0A305E;}
	.st1{fill:#F7C948;}
	.st2{fill-rule:evenodd;clip-rule:evenodd;fill:#F7C948;}
	.st3{fill-rule:evenodd;clip-rule:evenodd;fill:#F4D487;}
	.st4{fill-rule:evenodd;clip-rule:evenodd;fill:#F4E6C3;}
</style>
<g>
	<path class="st0" d="M16,30.67C7.91,30.67,1.33,24.09,1.33,16C1.33,7.91,7.91,1.33,16,1.33c8.09,0,14.67,6.58,14.67,14.67
		C30.67,24.09,24.09,30.67,16,30.67z"/>
	<path class="st1" d="M16,1.83c7.83,0,14.17,6.35,14.17,14.17v0c0,7.83-6.35,14.17-14.17,14.17h0C8.17,30.17,1.83,23.83,1.83,16v0
		C1.83,8.17,8.17,1.83,16,1.83L16,1.83 M16,0.83L16,0.83C7.63,0.83,0.83,7.63,0.83,16c0,8.37,6.81,15.17,15.17,15.17
		c8.37,0,15.17-6.81,15.17-15.17C31.17,7.63,24.37,0.83,16,0.83L16,0.83z"/>
</g>
<path class="st2" d="M16,5.68c-5.87,0-10.63,4.73-10.63,10.58c0,4.68,3.04,8.63,7.27,10.04c0.53,0.09,0.73-0.22,0.73-0.5
	c0-0.25-0.01-1.08-0.01-1.97c-2.67,0.49-3.36-0.65-3.57-1.24c-0.12-0.3-0.64-1.24-1.09-1.49c-0.37-0.2-0.9-0.69-0.01-0.7
	c0.84-0.01,1.44,0.77,1.63,1.08c0.96,1.6,2.48,1.15,3.1,0.87c0.09-0.69,0.37-1.15,0.68-1.41c-2.37-0.26-4.84-1.18-4.84-5.22
	c0-1.15,0.41-2.1,1.09-2.84c-0.11-0.26-0.48-1.35,0.11-2.8c0,0,0.89-0.28,2.92,1.08c0.85-0.24,1.75-0.36,2.66-0.36
	c0.9,0,1.81,0.12,2.66,0.36c2.03-1.38,2.92-1.08,2.92-1.08c0.58,1.45,0.21,2.54,0.11,2.8c0.68,0.74,1.09,1.68,1.09,2.84
	c0,4.06-2.48,4.96-4.85,5.22c0.39,0.33,0.72,0.97,0.72,1.96c0,1.41-0.01,2.55-0.01,2.91c0,0.28,0.2,0.61,0.73,0.5
	c4.2-1.4,7.24-5.37,7.24-10.04C26.63,10.42,21.87,5.68,16,5.68z"/>
</svg>
