<?xml version="1.0" encoding="utf-8"?>
<!-- Generator: Adobe Illustrator 27.3.1, SVG Export Plug-In . SVG Version: 6.00 Build 0)  -->
<svg version="1.1" id="Layer_1" xmlns="http://www.w3.org/2000/svg" xmlns:xlink="http://www.w3.org/1999/xlink" x="0px" y="0px"
	 viewBox="0 0 32 32" style="enable-background:new 0 0 32 32;" xml:space="preserve">
<style type="text/css">
	.st0{fill:#0A305E;}
	.st1{fill:#F7C948;}
	.st2{fill-rule:evenodd;clip-rule:evenodd;fill:#F7C948;}
	.st3{fill-rule:evenodd;clip-rule:evenodd;fill:#F4D487;}
	.st4{fill-rule:evenodd;clip-rule:evenodd;fill:#F4E6C3;}
</style>
<g>
	<path class="st0" d="M16,30.67C7.91,30.67,1.33,24.09,1.33,16S7.91,1.33,16,1.33c8.09,0,14.67,6.58,14.67,14.67
		C30.67,24.09,24.09,30.67,16,30.67z"/>
	<path class="st1" d="M16,1.83c7.83,0,14.17,6.35,14.17,14.17v0c0,7.83-6.35,14.17-14.17,14.17h0C8.17,30.17,1.83,23.83,1.83,16v0
		C1.83,8.17,8.17,1.83,16,1.83L16,1.83 M16,0.83L16,0.83C7.63,0.83,0.83,7.63,0.83,16c0,8.37,6.81,15.17,15.17,15.17
		c8.37,0,15.17-6.81,15.17-15.17C31.17,7.63,24.37,0.83,16,0.83L16,0.83z"/>
</g>
<path class="st2" d="M8.15,6.79c-0.75,0-1.36,0.59-1.36,1.32v15.79c0,0.73,0.61,1.32,1.36,1.32h15.7c0.75,0,1.36-0.59,1.36-1.32
	V8.11c0-0.73-0.61-1.32-1.36-1.32H8.15z M12.39,13.91v8.3H9.63v-8.3H12.39z M12.57,11.35c0,0.8-0.6,1.43-1.56,1.43l-0.02,0
	c-0.93,0-1.52-0.64-1.52-1.43c0-0.81,0.62-1.43,1.56-1.43C11.97,9.91,12.55,10.53,12.57,11.35z M16.67,22.21h-2.76
	c0,0,0.04-7.52,0-8.29h2.76v1.17c0.37-0.57,1.02-1.37,2.48-1.37c1.81,0,3.17,1.19,3.17,3.73v4.76h-2.76v-4.44
	c0-1.12-0.4-1.88-1.4-1.88c-0.76,0-1.22,0.51-1.41,1.01c-0.07,0.18-0.09,0.43-0.09,0.67V22.21z"/>
</svg>
