<?xml version="1.0" encoding="utf-8"?>
<!-- Generator: Adobe Illustrator 27.3.1, SVG Export Plug-In . SVG Version: 6.00 Build 0)  -->
<svg version="1.1" id="Layer_1" xmlns="http://www.w3.org/2000/svg" xmlns:xlink="http://www.w3.org/1999/xlink" x="0px" y="0px"
	 viewBox="0 0 32 32" style="enable-background:new 0 0 32 32;" xml:space="preserve">
<style type="text/css">
	.st0{fill:#0A305E;}
	.st1{fill:#F7C948;}
	.st2{fill-rule:evenodd;clip-rule:evenodd;fill:#F7C948;}
	.st3{fill-rule:evenodd;clip-rule:evenodd;fill:#F4D487;}
	.st4{fill-rule:evenodd;clip-rule:evenodd;fill:#F4E6C3;}
</style>
<g>
	<path class="st0" d="M16,30.67C7.91,30.67,1.33,24.09,1.33,16C1.33,7.91,7.91,1.33,16,1.33c8.09,0,14.67,6.58,14.67,14.67
		C30.67,24.09,24.09,30.67,16,30.67z"/>
	<path class="st1" d="M16,1.83c7.83,0,14.17,6.35,14.17,14.17v0c0,7.83-6.35,14.17-14.17,14.17h0C8.17,30.17,1.83,23.83,1.83,16v0
		C1.83,8.17,8.17,1.83,16,1.83L16,1.83 M16,0.83L16,0.83C7.63,0.83,0.83,7.63,0.83,16c0,8.37,6.81,15.17,15.17,15.17
		c8.37,0,15.17-6.81,15.17-15.17C31.17,7.63,24.37,0.83,16,0.83L16,0.83z"/>
</g>
<path class="st1" d="M26.54,9.34c-0.69,0.3-1.41,0.5-2.15,0.61c0.35-0.06,0.86-0.68,1.06-0.93c0.31-0.38,0.54-0.81,0.69-1.28
	c0-0.03,0.03-0.08,0-0.11c-0.02-0.01-0.04-0.01-0.06-0.01c-0.02,0-0.04,0-0.06,0.01c-0.8,0.44-1.66,0.77-2.55,0.99
	c-0.03,0.01-0.06,0.01-0.1,0c-0.03-0.01-0.06-0.02-0.08-0.05c-0.07-0.08-0.14-0.16-0.22-0.23c-0.36-0.32-0.77-0.59-1.22-0.79
	c-0.6-0.25-1.25-0.35-1.89-0.31c-0.63,0.04-1.24,0.21-1.8,0.49c-0.55,0.3-1.04,0.71-1.42,1.21c-0.41,0.51-0.7,1.1-0.87,1.73
	c-0.13,0.6-0.15,1.22-0.04,1.83c0,0.1,0,0.12-0.09,0.1c-3.53-0.52-6.42-1.77-8.78-4.46c-0.1-0.12-0.16-0.12-0.24,0
	c-1.03,1.56-0.53,4.04,0.76,5.26c0.17,0.16,0.35,0.32,0.54,0.47c-0.59-0.04-1.16-0.2-1.69-0.47c-0.1-0.06-0.15-0.03-0.16,0.09
	c-0.01,0.16-0.01,0.33,0,0.49c0.1,0.79,0.41,1.54,0.9,2.16c0.49,0.63,1.13,1.12,1.87,1.42c0.18,0.08,0.37,0.14,0.56,0.17
	c-0.55,0.11-1.11,0.12-1.66,0.05c-0.12-0.02-0.16,0.04-0.12,0.15c0.73,1.98,2.3,2.58,3.46,2.92c0.16,0.02,0.32,0.02,0.49,0.06
	c0,0,0,0-0.03,0.03c-0.34,0.62-1.72,1.04-2.35,1.26c-1.16,0.41-2.39,0.57-3.61,0.46c-0.19-0.03-0.24-0.02-0.29,0
	c-0.05,0.02,0,0.08,0.05,0.13c0.25,0.16,0.49,0.31,0.75,0.45c0.77,0.42,1.57,0.75,2.41,0.99c4.34,1.2,9.23,0.32,12.49-2.92
	c2.56-2.54,3.46-6.05,3.46-9.56c0-0.13,0.16-0.21,0.26-0.28c0.65-0.5,1.22-1.1,1.7-1.77c0.08-0.1,0.12-0.23,0.12-0.36
	C26.63,9.29,26.63,9.3,26.54,9.34z"/>
</svg>
