<?xml version="1.0" encoding="utf-8"?>
<!-- Generator: Adobe Illustrator 27.3.1, SVG Export Plug-In . SVG Version: 6.00 Build 0)  -->
<svg version="1.1" id="Layer_1" xmlns="http://www.w3.org/2000/svg" xmlns:xlink="http://www.w3.org/1999/xlink" x="0px" y="0px"
	 viewBox="0 0 32 32" style="enable-background:new 0 0 32 32;" xml:space="preserve">
<style type="text/css">
	.st0{fill:#0A305E;}
	.st1{fill:#F7C948;}
	.st2{fill-rule:evenodd;clip-rule:evenodd;fill:#F7C948;}
	.st3{fill-rule:evenodd;clip-rule:evenodd;fill:#F4D487;}
	.st4{fill-rule:evenodd;clip-rule:evenodd;fill:#F4E6C3;}
</style>
<g>
	<path class="st0" d="M16,30.67C7.91,30.67,1.33,24.09,1.33,16C1.33,7.91,7.91,1.33,16,1.33c8.09,0,14.67,6.58,14.67,14.67
		C30.67,24.09,24.09,30.67,16,30.67z"/>
	<path class="st1" d="M16,1.83c7.83,0,14.17,6.35,14.17,14.17v0c0,7.83-6.35,14.17-14.17,14.17h0C8.17,30.17,1.83,23.83,1.83,16v0
		C1.83,8.17,8.17,1.83,16,1.83L16,1.83 M16,0.83L16,0.83C7.63,0.83,0.83,7.63,0.83,16c0,8.37,6.81,15.17,15.17,15.17
		c8.37,0,15.17-6.81,15.17-15.17C31.17,7.63,24.37,0.83,16,0.83L16,0.83z"/>
</g>
<path class="st1" d="M13.95,15.52c0,0,2.01-0.15,2.01-2.56c0-2.4-1.36-3.59-3.45-3.59L5.37,9.36v13.29h7.31c0,0,3.65,0.12,3.65-3.99
	C16.33,18.66,16.6,15.52,13.95,15.52z M8.03,11.35h3.65c0,0,1.25,0.02,1.25,1.64c0,1.68-1.25,1.68-1.25,1.68H8.03V11.35z
	 M12.01,20.65H8.03v-3.99h3.99c0,0,1.99,0.02,1.99,1.99C14.01,20.63,12.3,20.65,12.01,20.65z M21.98,12.68
	c-4.99,0-4.98,4.98-4.98,4.98s-0.33,4.98,4.98,4.98c0,0,4.65,0,4.65-3.99h-2.66c0,0,0,1.99-1.99,1.99c0,0-1.99,0-1.99-2.66
	c0,0,5.31,0,6.64,0C26.63,16.66,26.63,12.68,21.98,12.68z M19.99,16.66c0,0-0.04-1.99,1.99-1.99c2.04,0,1.99,1.99,1.99,1.99H19.99z
	 M24.64,10.69h-5.31v1.33h5.31V10.69z"/>
</svg>
