<?xml version="1.0" encoding="utf-8"?>
<!-- Generator: Adobe Illustrator 27.3.1, SVG Export Plug-In . SVG Version: 6.00 Build 0)  -->
<svg version="1.1" id="Layer_1" xmlns="http://www.w3.org/2000/svg" xmlns:xlink="http://www.w3.org/1999/xlink" x="0px" y="0px"
	 viewBox="0 0 32 32" style="enable-background:new 0 0 32 32;" xml:space="preserve">
<style type="text/css">
	.st0{fill:#0A305E;}
	.st1{fill:#F7C948;}
	.st2{fill-rule:evenodd;clip-rule:evenodd;fill:#F7C948;}
	.st3{fill-rule:evenodd;clip-rule:evenodd;fill:#F4D487;}
	.st4{fill-rule:evenodd;clip-rule:evenodd;fill:#F4E6C3;}
</style>
<g>
	<path class="st0" d="M16,30.67C7.91,30.67,1.33,24.09,1.33,16S7.91,1.33,16,1.33c8.09,0,14.67,6.58,14.67,14.67
		C30.67,24.09,24.09,30.67,16,30.67L16,30.67z"/>
	<path class="st1" d="M16,1.83c7.83,0,14.17,6.35,14.17,14.17v0c0,7.83-6.35,14.17-14.17,14.17h0C8.17,30.17,1.83,23.83,1.83,16v0
		C1.83,8.17,8.17,1.83,16,1.83L16,1.83 M16,0.83L16,0.83C7.63,0.83,0.83,7.63,0.83,16c0,8.37,6.81,15.17,15.17,15.17
		c8.37,0,15.17-6.81,15.17-15.17C31.17,7.63,24.37,0.83,16,0.83L16,0.83z"/>
</g>
<path class="st2" d="M25.21,16c0,5.09-4.12,9.21-9.21,9.21c-5.09,0-9.21-4.12-9.21-9.21c0-5.09,4.12-9.21,9.21-9.21
	C21.09,6.79,25.21,10.91,25.21,16z M16.88,13.17c-1.58,0.68-6.15,2.63-6.15,2.63c-1.08,0.44-0.45,0.85-0.45,0.85
	s0.92,0.33,1.71,0.57c0.79,0.25,1.21-0.03,1.21-0.03s1.85-1.26,3.72-2.6c1.32-0.93,1-0.16,0.69,0.16c-0.69,0.71-1.82,1.83-2.77,2.73
	c-0.42,0.38-0.21,0.71-0.03,0.88c0.54,0.47,1.8,1.33,2.38,1.72c0.16,0.11,0.27,0.18,0.29,0.2c0.13,0.11,0.87,0.6,1.32,0.49
	c0.45-0.11,0.5-0.74,0.5-0.74s0.34-2.24,0.66-4.29c0.06-0.4,0.12-0.8,0.17-1.16c0.14-0.96,0.26-1.73,0.28-2.01
	c0.08-0.93-0.87-0.55-0.87-0.55S17.49,12.9,16.88,13.17z"/>
</svg>
