<?xml version="1.0" encoding="utf-8"?>
<!-- Generator: Adobe Illustrator 27.3.1, SVG Export Plug-In . SVG Version: 6.00 Build 0)  -->
<svg version="1.1" id="Layer_1" xmlns="http://www.w3.org/2000/svg" xmlns:xlink="http://www.w3.org/1999/xlink" x="0px" y="0px"
	 viewBox="0 0 32 32" style="enable-background:new 0 0 32 32;" xml:space="preserve">
<style type="text/css">
	.st0{fill:#0A305E;}
	.st1{fill:#F7C948;}
	.st2{fill-rule:evenodd;clip-rule:evenodd;fill:#F7C948;}
	.st3{fill-rule:evenodd;clip-rule:evenodd;fill:#F4D487;}
	.st4{fill-rule:evenodd;clip-rule:evenodd;fill:#F4E6C3;}
</style>
<g>
	<path class="st0" d="M16,30.67C7.91,30.67,1.33,24.09,1.33,16C1.33,7.91,7.91,1.33,16,1.33c8.09,0,14.67,6.58,14.67,14.67
		C30.67,24.09,24.09,30.67,16,30.67L16,30.67z"/>
	<path class="st1" d="M16,1.83c7.83,0,14.17,6.35,14.17,14.17v0c0,7.83-6.35,14.17-14.17,14.17h0C8.17,30.17,1.83,23.83,1.83,16v0
		C1.83,8.17,8.17,1.83,16,1.83L16,1.83 M16,0.83L16,0.83C7.63,0.83,0.83,7.63,0.83,16c0,8.37,6.81,15.17,15.17,15.17
		c8.37,0,15.17-6.81,15.17-15.17C31.17,7.63,24.37,0.83,16,0.83L16,0.83z"/>
</g>
<path class="st1" d="M23.39,9.23c2.4,3.55,3.59,7.56,3.14,12.17c0,0.02-0.01,0.04-0.03,0.05c-1.82,1.34-3.58,2.16-5.32,2.7
	c-0.01,0-0.03,0-0.04,0c-0.01,0-0.03-0.01-0.03-0.02c-0.4-0.56-0.77-1.15-1.09-1.78c-0.02-0.04,0-0.08,0.04-0.1
	c0.58-0.22,1.13-0.48,1.66-0.79c0.04-0.02,0.04-0.08,0.01-0.11c-0.11-0.08-0.22-0.17-0.33-0.26c-0.02-0.02-0.05-0.02-0.07-0.01
	c-3.44,1.6-7.21,1.6-10.68,0c-0.02-0.01-0.05-0.01-0.07,0.01c-0.11,0.09-0.22,0.18-0.33,0.26c-0.04,0.03-0.04,0.09,0.01,0.11
	c0.53,0.31,1.08,0.57,1.66,0.8c0.04,0.01,0.06,0.06,0.04,0.09c-0.31,0.62-0.68,1.22-1.09,1.78c-0.02,0.02-0.05,0.03-0.07,0.02
	c-1.73-0.54-3.49-1.36-5.31-2.7c-0.02-0.01-0.03-0.03-0.03-0.05C5.09,17.41,5.84,13.37,8.6,9.23C8.61,9.22,8.62,9.21,8.63,9.2
	c1.36-0.63,2.81-1.09,4.33-1.35c0.03,0,0.06,0.01,0.07,0.03c0.19,0.33,0.4,0.76,0.55,1.11c1.6-0.25,3.23-0.25,4.86,0
	c0.15-0.34,0.35-0.78,0.54-1.11c0.01-0.01,0.02-0.02,0.03-0.03c0.01-0.01,0.03-0.01,0.04-0.01c1.52,0.26,2.97,0.72,4.33,1.35
	C23.38,9.21,23.39,9.22,23.39,9.23z M14.38,16.81c0.02-1.18-0.84-2.16-1.91-2.16c-1.06,0-1.91,0.97-1.91,2.16
	c0,1.19,0.86,2.16,1.91,2.16C13.54,18.97,14.38,18,14.38,16.81z M21.45,16.81c0.02-1.18-0.84-2.16-1.91-2.16
	c-1.06,0-1.91,0.97-1.91,2.16c0,1.19,0.86,2.16,1.91,2.16C20.61,18.97,21.45,18,21.45,16.81z"/>
</svg>
