<?xml version="1.0" encoding="utf-8"?>
<!-- Generator: Adobe Illustrator 27.3.1, SVG Export Plug-In . SVG Version: 6.00 Build 0)  -->
<svg version="1.1" id="Layer_1" xmlns="http://www.w3.org/2000/svg" xmlns:xlink="http://www.w3.org/1999/xlink" x="0px" y="0px"
	 viewBox="0 0 32 32" style="enable-background:new 0 0 32 32;" xml:space="preserve">
<style type="text/css">
	.st0{fill:#0A305E;}
	.st1{fill:#F7C948;}
	.st2{fill-rule:evenodd;clip-rule:evenodd;fill:#F7C948;}
	.st3{fill-rule:evenodd;clip-rule:evenodd;fill:#F4D487;}
	.st4{fill-rule:evenodd;clip-rule:evenodd;fill:#F4E6C3;}
</style>
<g>
	<path class="st0" d="M16,30.67C7.91,30.67,1.33,24.09,1.33,16C1.33,7.91,7.91,1.33,16,1.33c8.09,0,14.67,6.58,14.67,14.67
		C30.67,24.09,24.09,30.67,16,30.67z"/>
	<path class="st1" d="M16,1.83c7.83,0,14.17,6.35,14.17,14.17v0c0,7.83-6.35,14.17-14.17,14.17h0C8.17,30.17,1.83,23.83,1.83,16v0
		C1.83,8.17,8.17,1.83,16,1.83L16,1.83 M16,0.83L16,0.83C7.63,0.83,0.83,7.63,0.83,16c0,8.37,6.81,15.17,15.17,15.17
		c8.37,0,15.17-6.81,15.17-15.17C31.17,7.63,24.37,0.83,16,0.83L16,0.83z"/>
</g>
<path class="st1" d="M12.46,16c0-1.96,1.59-3.54,3.54-3.54c1.96,0,3.54,1.59,3.54,3.54c0,1.96-1.59,3.54-3.54,3.54
	C14.04,19.54,12.46,17.96,12.46,16z M10.54,16c0,3.01,2.44,5.46,5.46,5.46c3.01,0,5.46-2.44,5.46-5.46s-2.44-5.46-5.46-5.46
	C12.99,10.54,10.54,12.99,10.54,16z M20.4,10.33c0,0.25,0.07,0.5,0.21,0.71c0.14,0.21,0.34,0.37,0.57,0.47
	c0.23,0.1,0.49,0.12,0.74,0.07c0.25-0.05,0.47-0.17,0.65-0.35c0.18-0.18,0.3-0.41,0.35-0.65c0.05-0.25,0.02-0.5-0.07-0.74
	c-0.1-0.23-0.26-0.43-0.47-0.57c-0.21-0.14-0.46-0.22-0.71-0.22h0c-0.34,0-0.66,0.13-0.9,0.37C20.53,9.67,20.4,9.99,20.4,10.33z
	 M11.71,24.65c-1.04-0.05-1.6-0.22-1.97-0.37c-0.5-0.19-0.85-0.42-1.22-0.79c-0.37-0.37-0.6-0.73-0.8-1.22
	c-0.15-0.37-0.32-0.94-0.37-1.97C7.3,19.17,7.29,18.84,7.29,16c0-2.84,0.01-3.17,0.06-4.29c0.05-1.04,0.22-1.6,0.37-1.97
	c0.19-0.5,0.42-0.85,0.8-1.22c0.37-0.37,0.73-0.6,1.22-0.79c0.37-0.15,0.94-0.32,1.97-0.37C12.83,7.3,13.16,7.29,16,7.29
	c2.84,0,3.17,0.01,4.3,0.06c1.04,0.05,1.6,0.22,1.97,0.37c0.5,0.19,0.85,0.42,1.22,0.79c0.37,0.37,0.6,0.73,0.8,1.22
	c0.15,0.37,0.32,0.94,0.37,1.97c0.05,1.12,0.06,1.46,0.06,4.29c0,2.84-0.01,3.17-0.06,4.29c-0.05,1.04-0.22,1.6-0.37,1.97
	c-0.19,0.5-0.42,0.85-0.8,1.22c-0.37,0.37-0.73,0.6-1.22,0.79c-0.37,0.15-0.94,0.32-1.97,0.37c-1.12,0.05-1.46,0.06-4.3,0.06
	C13.16,24.71,12.83,24.7,11.71,24.65z M11.62,5.44c-1.13,0.05-1.9,0.23-2.58,0.49c-0.7,0.27-1.29,0.64-1.88,1.23
	C6.56,7.75,6.2,8.34,5.93,9.04c-0.26,0.68-0.44,1.45-0.49,2.58C5.38,12.75,5.37,13.11,5.37,16c0,2.89,0.01,3.25,0.06,4.38
	c0.05,1.13,0.23,1.9,0.49,2.58c0.27,0.7,0.63,1.29,1.23,1.88c0.59,0.59,1.18,0.95,1.88,1.23c0.68,0.26,1.45,0.44,2.58,0.49
	c1.13,0.05,1.5,0.06,4.38,0.06c2.89,0,3.25-0.01,4.38-0.06c1.13-0.05,1.9-0.23,2.58-0.49c0.7-0.27,1.29-0.64,1.88-1.23
	c0.59-0.59,0.95-1.18,1.23-1.88c0.26-0.68,0.44-1.45,0.49-2.58c0.05-1.13,0.06-1.49,0.06-4.38c0-2.89-0.01-3.25-0.06-4.38
	c-0.05-1.13-0.23-1.9-0.49-2.58c-0.27-0.7-0.64-1.29-1.23-1.88c-0.59-0.59-1.18-0.95-1.88-1.23c-0.68-0.26-1.45-0.44-2.58-0.49
	c-1.13-0.05-1.5-0.06-4.38-0.06C13.11,5.38,12.75,5.39,11.62,5.44z"/>
</svg>
