<svg width="55" height="55" viewBox="0 0 55 55" fill="none" xmlns="http://www.w3.org/2000/svg">
<path fill-rule="evenodd" clip-rule="evenodd" d="M54.6407 27.3203C54.6407 42.4089 42.4089 54.6407 27.3203 54.6407C12.2318 54.6407 0 42.4089 0 27.3203C0 12.2318 12.2318 0 27.3203 0C42.4089 0 54.6407 12.2318 54.6407 27.3203ZM29.9384 18.9372C25.2449 20.9645 11.7118 26.722 11.7118 26.722C8.50453 28.0195 10.3818 29.2358 10.3818 29.2358C10.3818 29.2358 13.1198 30.209 15.4666 30.9387C17.8134 31.6685 19.065 30.8577 19.065 30.8577C19.065 30.8577 24.5408 27.1274 30.0948 23.1539C34.0061 20.3969 33.0675 22.6674 32.1287 23.6406C30.0948 25.7489 26.7311 29.0736 23.915 31.7497C22.6634 32.885 23.2892 33.858 23.8368 34.3446C25.4294 35.7415 29.1803 38.282 30.8832 39.4355C31.3551 39.7551 31.6697 39.9682 31.7376 40.021C32.1287 40.3454 34.3191 41.805 35.6489 41.4806C36.9787 41.1563 37.1352 39.2911 37.1352 39.2911C37.1352 39.2911 38.1521 32.6417 39.0909 26.5598C39.2647 25.3657 39.4386 24.1966 39.6007 23.1065C40.0221 20.2731 40.3642 17.9731 40.4207 17.1532C40.6554 14.3961 37.8392 15.5313 37.8392 15.5313C37.8392 15.5313 31.7376 18.1263 29.9384 18.9372Z" fill="white"/>
</svg>
