<svg width="41" height="46" viewBox="0 0 41 46" fill="none" xmlns="http://www.w3.org/2000/svg">
<path fill-rule="evenodd" clip-rule="evenodd" d="M30.0373 16.5545C33.104 18.7345 36.7764 19.8993 40.5389 19.8851V12.4284C39.7992 12.4305 39.0616 12.3513 38.3392 12.1923V18.1328C34.5682 18.1395 30.8904 16.9614 27.8252 14.7649V30.1009C27.8159 32.6174 27.1258 35.0845 25.828 37.2405C24.5302 39.3966 22.6732 41.1613 20.4537 42.3475C18.2343 43.5336 15.7352 44.097 13.2215 43.978C10.7078 43.859 8.27318 43.0619 6.17578 41.6712C8.11582 43.6342 10.5947 44.9772 13.2986 45.5304C16.0024 46.0835 18.8096 45.8219 21.3647 44.7786C23.9197 43.7353 26.1077 41.9572 27.6516 39.6696C29.1955 37.3819 30.0258 34.6876 30.0373 31.9278V16.5545ZM32.759 8.9486C31.1996 7.25829 30.2427 5.09983 30.0373 2.80922V1.83984H27.9495C28.2076 3.29587 28.7692 4.68128 29.5978 5.90602C30.4264 7.13076 31.5035 8.16742 32.759 8.9486ZM11.0102 35.768C10.2866 34.8217 9.8431 33.6913 9.73028 32.5053C9.61746 31.3194 9.83982 30.1256 10.3721 29.0598C10.9043 27.994 11.7251 27.0991 12.7409 26.4768C13.7567 25.8545 14.9269 25.5299 16.1181 25.5398C16.7758 25.5396 17.4296 25.6402 18.0569 25.8381V18.1328C17.3236 18.0357 16.5842 17.9942 15.8447 18.0085V23.9988C14.3174 23.516 12.6644 23.6258 11.2145 24.3063C9.76447 24.9868 8.62375 26.1881 8.01917 27.6714C7.4146 29.1546 7.39047 30.8111 7.95159 32.3113C8.51271 33.8115 9.61796 35.0456 11.0475 35.768H11.0102Z" fill="white"/>
<path fill-rule="evenodd" clip-rule="evenodd" d="M27.8241 14.7151C30.8893 16.9117 34.5671 18.0898 38.3381 18.0831V12.1426C36.1896 11.6883 34.2378 10.5711 32.758 8.9486C31.5024 8.16742 30.4254 7.13076 29.5967 5.90602C28.7681 4.68128 28.2065 3.29587 27.9484 1.83984H22.4553V31.9278C22.4501 33.2596 22.0281 34.5563 21.2484 35.636C20.4686 36.7157 19.3703 37.5241 18.1077 37.9477C16.8451 38.3713 15.4815 38.3889 14.2084 37.998C12.9352 37.607 11.8165 36.8272 11.0092 35.768C9.72975 35.1225 8.70513 34.0647 8.10063 32.7654C7.49614 31.4661 7.34701 30.001 7.67731 28.6065C8.00762 27.212 8.79809 25.9695 9.9212 25.0794C11.0443 24.1893 12.4345 23.7036 13.8676 23.7005C14.5251 23.7026 15.1786 23.8032 15.8063 23.9988V18.0085C13.0941 18.0736 10.4598 18.9293 8.22695 20.4704C5.9941 22.0115 4.25981 24.171 3.23698 26.6839C2.21415 29.1968 1.94729 31.9536 2.46915 34.616C2.99102 37.2784 4.2789 39.7305 6.17471 41.6712C8.27254 43.0718 10.711 43.8772 13.2304 44.0014C15.7497 44.1257 18.2556 43.5643 20.4811 42.3769C22.7066 41.1896 24.5683 39.4208 25.868 37.259C27.1676 35.0972 27.8566 32.6233 27.8614 30.1009L27.8241 14.7151Z" fill="white"/>
<path fill-rule="evenodd" clip-rule="evenodd" d="M38.3381 12.1426L38.3388 10.5389C36.3657 10.5472 34.4311 9.99614 32.759 8.9486C34.2351 10.5758 36.1874 11.6939 38.3381 12.1426ZM27.9495 1.83984C27.9495 1.554 27.8621 1.25522 27.8248 0.969376V0H20.2438V30.1004C20.2372 31.7858 19.5622 33.3998 18.3669 34.5881C17.1716 35.7764 15.5537 36.4419 13.8683 36.4386C12.8759 36.4436 11.8967 36.2141 11.0102 35.768C11.8175 36.8272 12.9352 37.607 14.2084 37.998C15.4815 38.3889 16.8451 38.3713 18.1077 37.9477C19.3703 37.5241 20.4686 36.7157 21.2484 35.636C22.0281 34.5563 22.4501 33.2596 22.4553 31.9278V1.83984H27.9495ZM15.807 17.9956V16.293C12.6875 15.8692 9.51638 16.5145 6.81053 18.1237C4.10468 19.7329 2.02363 22.2111 0.906542 25.1544C-0.210543 28.0978 -0.297796 31.3327 0.659002 34.332C1.6158 37.3312 3.56061 39.9185 6.17578 41.6712C4.29432 39.726 3.01978 37.2744 2.50857 34.6168C1.99736 31.9593 2.27123 29.2104 3.29673 26.7059C4.32224 24.2015 6.05497 22.0499 8.28325 20.5141C10.5115 18.9783 13.1389 18.1248 15.8443 18.0577L15.807 17.9956Z" fill="white"/>
</svg>
