<svg width="57" height="40" viewBox="0 0 57 40" fill="none" xmlns="http://www.w3.org/2000/svg">
<path fill-rule="evenodd" clip-rule="evenodd" d="M50.7704 1.19091C53.2278 1.85455 55.1592 3.79091 55.8121 6.24545C57 10.7 57 20 57 20C57 20 57 29.3 55.8121 33.7545C55.1502 36.2182 53.2187 38.1545 50.7704 38.8091C46.3272 40 28.5 40 28.5 40C28.5 40 10.6818 40 6.22956 38.8091C3.77219 38.1455 1.84076 36.2091 1.18788 33.7545C0 29.3 0 20 0 20C0 20 0 10.7 1.18788 6.24545C1.84982 3.78182 3.78126 1.84546 6.22956 1.19091C10.6818 0 28.5 0 28.5 0C28.5 0 46.3272 0 50.7704 1.19091ZM37.6131 20L22.8055 28.5727V11.4273L37.6131 20Z" fill="white"/>
</svg>
